# Blender v2.80 (sub 75) OBJ File: 'street props pack.blend'
# www.blender.org
mtllib barrel.mtl
o Cylinder.008_Cylinder.003
v 0.000000 0.174380 24.747675
v 0.000000 3.218547 24.747675
v 0.500000 0.174380 24.881649
v 0.500000 3.218547 24.881649
v 0.866025 0.174380 25.247675
v 0.866025 3.218547 25.247675
v 1.000000 0.174380 25.747675
v 1.000000 3.218547 25.747675
v 0.866025 0.174380 26.247675
v 0.866025 3.218547 26.247675
v 0.500000 0.174380 26.613701
v 0.500000 3.218547 26.613701
v 0.000000 0.174380 26.747675
v 0.000000 3.218547 26.747675
v -0.500000 0.174380 26.613701
v -0.500000 3.218547 26.613701
v -0.866025 0.174380 26.247675
v -0.866025 3.218547 26.247675
v -1.000000 0.174380 25.747675
v -1.000000 3.218547 25.747675
v -0.866026 0.174380 25.247675
v -0.866026 3.218547 25.247675
v -0.500001 0.174380 24.881649
v -0.500001 3.218547 24.881649
v 0.000000 0.226498 24.747675
v 0.000000 3.166430 24.747675
v 0.500000 3.166429 24.881649
v 0.500000 0.226498 24.881649
v 0.866025 3.166429 25.247675
v 0.866025 0.226498 25.247675
v 1.000000 3.166429 25.747675
v 1.000000 0.226498 25.747675
v 0.866025 3.166429 26.247675
v 0.866025 0.226498 26.247675
v 0.500000 3.166429 26.613701
v 0.500000 0.226498 26.613701
v 0.000000 3.166429 26.747675
v 0.000000 0.226498 26.747675
v -0.500000 3.166429 26.613701
v -0.500000 0.226498 26.613701
v -0.866025 3.166429 26.247675
v -0.866025 0.226498 26.247675
v -1.000000 3.166429 25.747675
v -1.000000 0.226498 25.747675
v -0.866026 3.166429 25.247675
v -0.866026 0.226498 25.247675
v -0.500001 3.166429 24.881649
v -0.500001 0.226498 24.881649
v 0.000000 0.174380 24.696541
v 0.525567 0.174380 24.837366
v 0.525567 3.218547 24.837366
v 0.000000 3.218547 24.696541
v 0.000000 3.166430 24.696541
v 0.525567 0.226498 24.837366
v 0.910310 0.174380 25.222107
v 0.910310 3.218547 25.222107
v 0.910310 0.226498 25.222107
v 1.051135 0.174380 25.747675
v 1.051135 3.218547 25.747675
v 1.051135 0.226498 25.747675
v 0.910310 0.174380 26.273243
v 0.910310 3.218547 26.273243
v 0.910310 0.226498 26.273243
v 0.525568 0.174380 26.657984
v 0.525568 3.218547 26.657984
v 0.525568 0.226498 26.657984
v 0.000000 0.174380 26.798809
v 0.000000 3.218547 26.798809
v 0.000000 0.226498 26.798809
v -0.525567 0.174380 26.657984
v -0.525567 3.218547 26.657984
v -0.525567 0.226498 26.657984
v -0.910309 0.174380 26.273243
v -0.910309 3.218547 26.273243
v -0.910309 0.226498 26.273243
v -1.051135 0.174380 25.747675
v -1.051135 3.218547 25.747675
v -1.051135 0.226498 25.747675
v -0.910310 0.174380 25.222109
v -0.910310 3.218547 25.222109
v -0.910310 0.226498 25.222109
v -0.525568 0.174380 24.837366
v -0.525568 3.218547 24.837366
v -0.525568 0.226498 24.837366
v 0.000000 0.226498 24.696541
v 0.525567 3.166429 24.837366
v 0.910310 3.166429 25.222107
v 1.051135 3.166429 25.747675
v 0.910310 3.166429 26.273243
v 0.525568 3.166429 26.657984
v 0.000000 3.166429 26.798809
v -0.525567 3.166429 26.657984
v -0.910309 3.166429 26.273243
v -1.051135 3.166429 25.747675
v -0.910310 3.166429 25.222109
v -0.525568 3.166429 24.837366
v 0.000000 0.208844 24.747675
v 0.500000 0.208844 24.881649
v 0.500000 3.184083 24.881649
v 0.000000 3.184083 24.747675
v 0.866025 0.208844 25.247675
v 0.866025 3.184083 25.247675
v 1.000000 0.208844 25.747675
v 1.000000 3.184083 25.747675
v 0.866025 0.208844 26.247675
v 0.866025 3.184083 26.247675
v 0.500000 0.208844 26.613701
v 0.500000 3.184083 26.613701
v 0.000000 0.208844 26.747675
v 0.000000 3.184083 26.747675
v -0.500000 0.208844 26.613701
v -0.500000 3.184083 26.613701
v -0.866025 0.208844 26.247675
v -0.866025 3.184083 26.247675
v -1.000000 0.208844 25.747675
v -1.000000 3.184083 25.747675
v -0.866026 0.208844 25.247675
v -0.866026 3.184083 25.247675
v -0.500001 0.208844 24.881649
v -0.500001 3.184083 24.881649
v 0.000000 1.121215 24.747675
v 0.000000 2.271713 24.747675
v 0.500000 2.271712 24.881649
v 0.500000 1.121215 24.881649
v 0.866025 2.271712 25.247675
v 0.866025 1.121215 25.247675
v 1.000000 2.271712 25.747675
v 1.000000 1.121215 25.747675
v 0.866025 2.271712 26.247675
v 0.866025 1.121215 26.247675
v 0.500000 2.271712 26.613701
v 0.500000 1.121215 26.613701
v 0.000000 2.271712 26.747675
v 0.000000 1.121215 26.747675
v -0.500000 2.271712 26.613701
v -0.500000 1.121215 26.613701
v -0.866025 2.271712 26.247675
v -0.866025 1.121215 26.247675
v -1.000000 2.271712 25.747675
v -1.000000 1.121215 25.747675
v -0.866026 2.271712 25.247675
v -0.866026 1.121215 25.247675
v -0.500001 2.271712 24.881649
v -0.500001 1.121215 24.881649
vt 0.081001 0.998999
vt 0.158999 0.998999
vt 0.158999 0.961001
vt 0.081001 0.961001
vt 0.001001 0.998999
vt 0.078999 0.998999
vt 0.078999 0.961001
vt 0.001001 0.961001
vt 0.998999 0.318999
vt 0.998999 0.241001
vt 0.961001 0.241001
vt 0.961001 0.318999
vt 0.321001 0.638999
vt 0.478999 0.638999
vt 0.478999 0.561001
vt 0.321001 0.561001
vt 0.001001 0.718999
vt 0.158999 0.718999
vt 0.158999 0.641001
vt 0.001001 0.641001
vt 0.998999 0.158999
vt 0.998999 0.081001
vt 0.961001 0.081001
vt 0.961001 0.158999
vt 0.161001 0.718999
vt 0.318999 0.718999
vt 0.318999 0.641001
vt 0.161001 0.641001
vt 0.481001 0.718999
vt 0.638999 0.718999
vt 0.638999 0.641001
vt 0.481001 0.641001
vt 0.001001 0.798999
vt 0.158999 0.798999
vt 0.158999 0.721001
vt 0.001001 0.721001
vt 0.161001 0.798999
vt 0.318999 0.798999
vt 0.318999 0.721001
vt 0.161001 0.721001
vt 0.321001 0.798999
vt 0.478999 0.798999
vt 0.478999 0.721001
vt 0.321001 0.721001
vt 0.958999 0.798999
vt 0.958999 0.721001
vt 0.921001 0.721001
vt 0.921001 0.798999
vt 0.641001 0.558999
vt 0.798999 0.558999
vt 0.798999 0.481001
vt 0.641001 0.481001
vt 0.481001 0.798999
vt 0.638999 0.798999
vt 0.638999 0.721001
vt 0.481001 0.721001
vt 0.918999 0.638999
vt 0.918999 0.561001
vt 0.881001 0.561001
vt 0.881001 0.638999
vt 0.001001 0.878999
vt 0.158999 0.878999
vt 0.158999 0.801001
vt 0.001001 0.801001
vt 0.721001 0.158999
vt 0.878999 0.158999
vt 0.878999 0.081001
vt 0.721001 0.081001
vt 0.161001 0.878999
vt 0.318999 0.878999
vt 0.318999 0.801001
vt 0.161001 0.801001
vt 0.878999 0.398999
vt 0.878999 0.321001
vt 0.841001 0.321001
vt 0.841001 0.398999
vt 0.878999 0.478999
vt 0.878999 0.401001
vt 0.841001 0.401001
vt 0.841001 0.478999
vt 0.878999 0.638999
vt 0.878999 0.561001
vt 0.841001 0.561001
vt 0.841001 0.638999
vt 0.161001 0.918999
vt 0.238999 0.918999
vt 0.238999 0.881001
vt 0.161001 0.881001
vt 0.401001 0.918999
vt 0.478999 0.918999
vt 0.478999 0.881001
vt 0.401001 0.881001
vt 0.918999 0.398999
vt 0.918999 0.321001
vt 0.881001 0.321001
vt 0.881001 0.398999
vt 0.318999 0.202604
vt 0.276395 0.276395
vt 0.202604 0.318999
vt 0.117396 0.318999
vt 0.043605 0.276395
vt 0.001001 0.202604
vt 0.001001 0.117396
vt 0.043605 0.043605
vt 0.117396 0.001001
vt 0.202604 0.001001
vt 0.276395 0.043605
vt 0.318999 0.117396
vt 0.117396 0.321001
vt 0.202604 0.321001
vt 0.276395 0.363605
vt 0.318999 0.437396
vt 0.318999 0.522604
vt 0.276395 0.596395
vt 0.202604 0.638999
vt 0.117396 0.638999
vt 0.043605 0.596395
vt 0.001001 0.522604
vt 0.001001 0.437396
vt 0.043605 0.363605
vt 0.718999 0.718999
vt 0.718999 0.561001
vt 0.641001 0.561001
vt 0.641001 0.718999
vt 0.718999 0.398999
vt 0.718999 0.241001
vt 0.641001 0.241001
vt 0.641001 0.398999
vt 0.718999 0.158999
vt 0.718999 0.001001
vt 0.641001 0.001001
vt 0.641001 0.158999
vt 0.638999 0.558999
vt 0.638999 0.401001
vt 0.561001 0.401001
vt 0.561001 0.558999
vt 0.638999 0.398999
vt 0.638999 0.241001
vt 0.561001 0.241001
vt 0.561001 0.398999
vt 0.638999 0.158999
vt 0.638999 0.001001
vt 0.561001 0.001001
vt 0.561001 0.158999
vt 0.558999 0.558999
vt 0.558999 0.401001
vt 0.481001 0.401001
vt 0.481001 0.558999
vt 0.558999 0.158999
vt 0.558999 0.001001
vt 0.481001 0.001001
vt 0.481001 0.158999
vt 0.478999 0.158999
vt 0.478999 0.001001
vt 0.401001 0.001001
vt 0.401001 0.158999
vt 0.398999 0.398999
vt 0.398999 0.241001
vt 0.321001 0.241001
vt 0.321001 0.398999
vt 0.398999 0.158999
vt 0.398999 0.001001
vt 0.321001 0.001001
vt 0.321001 0.158999
vt 0.798999 0.398999
vt 0.798999 0.241001
vt 0.721001 0.241001
vt 0.721001 0.398999
vt 0.998999 0.958999
vt 0.998999 0.881001
vt 0.961001 0.881001
vt 0.961001 0.958999
vt 0.241001 0.998999
vt 0.318999 0.998999
vt 0.318999 0.961001
vt 0.241001 0.961001
vt 0.998999 0.798999
vt 0.998999 0.721001
vt 0.961001 0.721001
vt 0.961001 0.798999
vt 0.161001 0.998999
vt 0.238999 0.998999
vt 0.238999 0.961001
vt 0.161001 0.961001
vt 0.998999 0.718999
vt 0.998999 0.641001
vt 0.961001 0.641001
vt 0.961001 0.718999
vt 0.998999 0.638999
vt 0.998999 0.561001
vt 0.961001 0.561001
vt 0.961001 0.638999
vt 0.998999 0.558999
vt 0.998999 0.481001
vt 0.961001 0.481001
vt 0.961001 0.558999
vt 0.801001 0.958999
vt 0.878999 0.958999
vt 0.878999 0.921001
vt 0.801001 0.921001
vt 0.998999 0.478999
vt 0.998999 0.401001
vt 0.961001 0.401001
vt 0.961001 0.478999
vt 0.721001 0.958999
vt 0.798999 0.958999
vt 0.798999 0.921001
vt 0.721001 0.921001
vt 0.998999 0.398999
vt 0.998999 0.321001
vt 0.961001 0.321001
vt 0.961001 0.398999
vt 0.641001 0.958999
vt 0.718999 0.958999
vt 0.718999 0.921001
vt 0.641001 0.921001
vt 0.998999 0.238999
vt 0.998999 0.161001
vt 0.961001 0.161001
vt 0.961001 0.238999
vt 0.998999 0.078999
vt 0.998999 0.001001
vt 0.961001 0.001001
vt 0.961001 0.078999
vt 0.958999 0.958999
vt 0.958999 0.881001
vt 0.921001 0.881001
vt 0.921001 0.958999
vt 0.918999 0.958999
vt 0.918999 0.881001
vt 0.881001 0.881001
vt 0.881001 0.958999
vt 0.958999 0.878999
vt 0.958999 0.801001
vt 0.921001 0.801001
vt 0.921001 0.878999
vt 0.958999 0.718999
vt 0.958999 0.641001
vt 0.921001 0.641001
vt 0.921001 0.718999
vt 0.918999 0.558999
vt 0.918999 0.481001
vt 0.881001 0.481001
vt 0.881001 0.558999
vt 0.878999 0.558999
vt 0.878999 0.481001
vt 0.841001 0.481001
vt 0.841001 0.558999
vt 0.758999 0.561001
vt 0.721001 0.561001
vt 0.721001 0.638999
vt 0.758999 0.638999
vt 0.798999 0.678999
vt 0.798999 0.641001
vt 0.721001 0.641001
vt 0.721001 0.678999
vt 0.798999 0.561001
vt 0.761001 0.561001
vt 0.761001 0.638999
vt 0.798999 0.638999
vt 0.798999 0.718999
vt 0.798999 0.681001
vt 0.721001 0.681001
vt 0.721001 0.718999
vt 0.838999 0.161001
vt 0.801001 0.161001
vt 0.801001 0.238999
vt 0.838999 0.238999
vt 0.398999 0.838999
vt 0.398999 0.801001
vt 0.321001 0.801001
vt 0.321001 0.838999
vt 0.838999 0.241001
vt 0.801001 0.241001
vt 0.801001 0.318999
vt 0.838999 0.318999
vt 0.478999 0.838999
vt 0.478999 0.801001
vt 0.401001 0.801001
vt 0.401001 0.838999
vt 0.838999 0.321001
vt 0.801001 0.321001
vt 0.801001 0.398999
vt 0.838999 0.398999
vt 0.558999 0.838999
vt 0.558999 0.801001
vt 0.481001 0.801001
vt 0.481001 0.838999
vt 0.838999 0.401001
vt 0.801001 0.401001
vt 0.801001 0.478999
vt 0.838999 0.478999
vt 0.638999 0.838999
vt 0.638999 0.801001
vt 0.561001 0.801001
vt 0.561001 0.838999
vt 0.838999 0.481001
vt 0.801001 0.481001
vt 0.801001 0.558999
vt 0.838999 0.558999
vt 0.718999 0.838999
vt 0.718999 0.801001
vt 0.641001 0.801001
vt 0.641001 0.838999
vt 0.838999 0.561001
vt 0.801001 0.561001
vt 0.801001 0.638999
vt 0.838999 0.638999
vt 0.798999 0.838999
vt 0.798999 0.801001
vt 0.721001 0.801001
vt 0.721001 0.838999
vt 0.838999 0.641001
vt 0.801001 0.641001
vt 0.801001 0.718999
vt 0.838999 0.718999
vt 0.398999 0.878999
vt 0.398999 0.841001
vt 0.321001 0.841001
vt 0.321001 0.878999
vt 0.838999 0.721001
vt 0.801001 0.721001
vt 0.801001 0.798999
vt 0.838999 0.798999
vt 0.478999 0.878999
vt 0.478999 0.841001
vt 0.401001 0.841001
vt 0.401001 0.878999
vt 0.878999 0.161001
vt 0.841001 0.161001
vt 0.841001 0.238999
vt 0.878999 0.238999
vt 0.558999 0.878999
vt 0.558999 0.841001
vt 0.481001 0.841001
vt 0.481001 0.878999
vt 0.878999 0.241001
vt 0.841001 0.241001
vt 0.841001 0.318999
vt 0.878999 0.318999
vt 0.638999 0.878999
vt 0.638999 0.841001
vt 0.561001 0.841001
vt 0.561001 0.878999
vt 0.641001 0.878999
vt 0.718999 0.878999
vt 0.718999 0.841001
vt 0.641001 0.841001
vt 0.721001 0.878999
vt 0.798999 0.878999
vt 0.798999 0.841001
vt 0.721001 0.841001
vt 0.998999 0.878999
vt 0.998999 0.801001
vt 0.961001 0.801001
vt 0.961001 0.878999
vt 0.801001 0.838999
vt 0.878999 0.838999
vt 0.878999 0.801001
vt 0.801001 0.801001
vt 0.801001 0.878999
vt 0.878999 0.878999
vt 0.878999 0.841001
vt 0.801001 0.841001
vt 0.878999 0.718999
vt 0.878999 0.641001
vt 0.841001 0.641001
vt 0.841001 0.718999
vt 0.001001 0.918999
vt 0.078999 0.918999
vt 0.078999 0.881001
vt 0.001001 0.881001
vt 0.878999 0.798999
vt 0.878999 0.721001
vt 0.841001 0.721001
vt 0.841001 0.798999
vt 0.081001 0.918999
vt 0.158999 0.918999
vt 0.158999 0.881001
vt 0.081001 0.881001
vt 0.918999 0.078999
vt 0.918999 0.001001
vt 0.881001 0.001001
vt 0.881001 0.078999
vt 0.918999 0.158999
vt 0.918999 0.081001
vt 0.881001 0.081001
vt 0.881001 0.158999
vt 0.241001 0.918999
vt 0.318999 0.918999
vt 0.318999 0.881001
vt 0.241001 0.881001
vt 0.918999 0.238999
vt 0.918999 0.161001
vt 0.881001 0.161001
vt 0.881001 0.238999
vt 0.321001 0.918999
vt 0.398999 0.918999
vt 0.398999 0.881001
vt 0.321001 0.881001
vt 0.918999 0.318999
vt 0.918999 0.241001
vt 0.881001 0.241001
vt 0.881001 0.318999
vt 0.481001 0.918999
vt 0.558999 0.918999
vt 0.558999 0.881001
vt 0.481001 0.881001
vt 0.918999 0.478999
vt 0.918999 0.401001
vt 0.881001 0.401001
vt 0.881001 0.478999
vt 0.561001 0.918999
vt 0.638999 0.918999
vt 0.638999 0.881001
vt 0.561001 0.881001
vt 0.918999 0.718999
vt 0.918999 0.641001
vt 0.881001 0.641001
vt 0.881001 0.718999
vt 0.641001 0.918999
vt 0.718999 0.918999
vt 0.718999 0.881001
vt 0.641001 0.881001
vt 0.918999 0.798999
vt 0.918999 0.721001
vt 0.881001 0.721001
vt 0.881001 0.798999
vt 0.721001 0.918999
vt 0.798999 0.918999
vt 0.798999 0.881001
vt 0.721001 0.881001
vt 0.918999 0.878999
vt 0.918999 0.801001
vt 0.881001 0.801001
vt 0.881001 0.878999
vt 0.801001 0.918999
vt 0.878999 0.918999
vt 0.878999 0.881001
vt 0.801001 0.881001
vt 0.958999 0.078999
vt 0.958999 0.001001
vt 0.921001 0.001001
vt 0.921001 0.078999
vt 0.001001 0.958999
vt 0.078999 0.958999
vt 0.078999 0.921001
vt 0.001001 0.921001
vt 0.958999 0.158999
vt 0.958999 0.081001
vt 0.921001 0.081001
vt 0.921001 0.158999
vt 0.081001 0.958999
vt 0.158999 0.958999
vt 0.158999 0.921001
vt 0.081001 0.921001
vt 0.958999 0.238999
vt 0.958999 0.161001
vt 0.921001 0.161001
vt 0.921001 0.238999
vt 0.161001 0.958999
vt 0.238999 0.958999
vt 0.238999 0.921001
vt 0.161001 0.921001
vt 0.958999 0.318999
vt 0.958999 0.241001
vt 0.921001 0.241001
vt 0.921001 0.318999
vt 0.241001 0.958999
vt 0.318999 0.958999
vt 0.318999 0.921001
vt 0.241001 0.921001
vt 0.958999 0.398999
vt 0.958999 0.321001
vt 0.921001 0.321001
vt 0.921001 0.398999
vt 0.321001 0.958999
vt 0.398999 0.958999
vt 0.398999 0.921001
vt 0.321001 0.921001
vt 0.958999 0.478999
vt 0.958999 0.401001
vt 0.921001 0.401001
vt 0.921001 0.478999
vt 0.401001 0.958999
vt 0.478999 0.958999
vt 0.478999 0.921001
vt 0.401001 0.921001
vt 0.958999 0.558999
vt 0.958999 0.481001
vt 0.921001 0.481001
vt 0.921001 0.558999
vt 0.481001 0.958999
vt 0.558999 0.958999
vt 0.558999 0.921001
vt 0.481001 0.921001
vt 0.958999 0.638999
vt 0.958999 0.561001
vt 0.921001 0.561001
vt 0.921001 0.638999
vt 0.561001 0.958999
vt 0.638999 0.958999
vt 0.638999 0.921001
vt 0.561001 0.921001
vt 0.641001 0.478999
vt 0.798999 0.478999
vt 0.798999 0.401001
vt 0.641001 0.401001
vt 0.641001 0.238999
vt 0.798999 0.238999
vt 0.798999 0.161001
vt 0.641001 0.161001
vt 0.321001 0.718999
vt 0.478999 0.718999
vt 0.478999 0.641001
vt 0.321001 0.641001
vt 0.641001 0.798999
vt 0.798999 0.798999
vt 0.798999 0.721001
vt 0.641001 0.721001
vt 0.481001 0.238999
vt 0.638999 0.238999
vt 0.638999 0.161001
vt 0.481001 0.161001
vt 0.321001 0.558999
vt 0.478999 0.558999
vt 0.478999 0.481001
vt 0.321001 0.481001
vt 0.401001 0.398999
vt 0.558999 0.398999
vt 0.558999 0.321001
vt 0.401001 0.321001
vt 0.401001 0.318999
vt 0.558999 0.318999
vt 0.558999 0.241001
vt 0.401001 0.241001
vt 0.321001 0.478999
vt 0.478999 0.478999
vt 0.478999 0.401001
vt 0.321001 0.401001
vt 0.321001 0.238999
vt 0.478999 0.238999
vt 0.478999 0.161001
vt 0.321001 0.161001
vt 0.481001 0.638999
vt 0.638999 0.638999
vt 0.638999 0.561001
vt 0.481001 0.561001
vt 0.721001 0.078999
vt 0.878999 0.078999
vt 0.878999 0.001001
vt 0.721001 0.001001
vn 0.0000 -1.0000 0.0000
vn -0.2588 0.0000 -0.9659
vn -0.7071 0.0000 -0.7071
vn -0.9659 0.0000 -0.2588
vn -0.9659 0.0000 0.2588
vn -0.7071 0.0000 0.7071
vn -0.2588 0.0000 0.9659
vn 0.2588 0.0000 0.9659
vn 0.7071 0.0000 0.7071
vn 0.9659 0.0000 0.2588
vn 0.9659 0.0000 -0.2588
vn 0.7071 0.0000 -0.7071
vn 0.2588 0.0000 -0.9659
vn 0.0000 1.0000 -0.0000
usemtl Grey
s off
f 29/1/1 27/2/1 86/3/1 87/4/1
f 43/5/1 41/6/1 93/7/1 94/8/1
f 31/9/1 29/10/1 87/11/1 88/12/1
f 143/13/2 47/14/2 26/15/2 122/16/2
f 141/17/3 45/18/3 47/19/3 143/20/3
f 45/21/1 43/22/1 94/23/1 95/24/1
f 139/25/4 43/26/4 45/27/4 141/28/4
f 137/29/5 41/30/5 43/31/5 139/32/5
f 135/33/6 39/34/6 41/35/6 137/36/6
f 133/37/7 37/38/7 39/39/7 135/40/7
f 131/41/8 35/42/8 37/43/8 133/44/8
f 33/45/1 31/46/1 88/47/1 89/48/1
f 129/49/9 33/50/9 35/51/9 131/52/9
f 127/53/10 31/54/10 33/55/10 129/56/10
f 47/57/1 45/58/1 95/59/1 96/60/1
f 125/61/11 29/62/11 31/63/11 127/64/11
f 123/65/12 27/66/12 29/67/12 125/68/12
f 122/69/13 26/70/13 27/71/13 123/72/13
f 41/73/1 39/74/1 92/75/1 93/76/1
f 27/77/1 26/78/1 53/79/1 86/80/1
f 39/81/1 37/82/1 91/83/1 92/84/1
f 37/85/1 35/86/1 90/87/1 91/88/1
f 26/89/1 47/90/1 96/91/1 53/92/1
f 35/93/1 33/94/1 89/95/1 90/96/1
f 99/97/14 100/98/14 120/99/14 118/100/14 116/101/14 114/102/14 112/103/14 110/104/14 108/105/14 106/106/14 104/107/14 102/108/14
f 97/109/1 98/110/1 101/111/1 103/112/1 105/113/1 107/114/1 109/115/1 111/116/1 113/117/1 115/118/1 117/119/1 119/120/1
f 25/121/13 121/122/13 124/123/13 28/124/13
f 28/125/12 124/126/12 126/127/12 30/128/12
f 30/129/11 126/130/11 128/131/11 32/132/11
f 32/133/10 128/134/10 130/135/10 34/136/10
f 34/137/9 130/138/9 132/139/9 36/140/9
f 36/141/8 132/142/8 134/143/8 38/144/8
f 38/145/7 134/146/7 136/147/7 40/148/7
f 40/149/6 136/150/6 138/151/6 42/152/6
f 42/153/5 138/154/5 140/155/5 44/156/5
f 44/157/4 140/158/4 142/159/4 46/160/4
f 46/161/3 142/162/3 144/163/3 48/164/3
f 48/165/2 144/166/2 121/167/2 25/168/2
usemtl Black
f 25/169/14 28/170/14 54/171/14 85/172/14
f 21/173/1 19/174/1 76/175/1 79/176/1
f 2/177/14 4/178/14 51/179/14 52/180/14
f 40/181/14 42/182/14 75/183/14 72/184/14
f 10/185/14 12/186/14 65/187/14 62/188/14
f 3/189/1 1/190/1 49/191/1 50/192/1
f 11/193/1 9/194/1 61/195/1 64/196/1
f 28/197/14 30/198/14 57/199/14 54/200/14
f 16/201/13 14/202/13 110/203/13 112/204/13
f 18/205/14 20/206/14 77/207/14 74/208/14
f 42/209/14 44/210/14 78/211/14 75/212/14
f 6/213/6 4/214/6 99/215/6 102/216/6
f 19/217/1 17/218/1 73/219/1 76/220/1
f 8/221/14 10/222/14 62/223/14 59/224/14
f 30/225/14 32/226/14 60/227/14 57/228/14
f 44/229/14 46/230/14 81/231/14 78/232/14
f 9/233/1 7/234/1 58/235/1 61/236/1
f 16/237/14 18/238/14 74/239/14 71/240/14
f 32/241/14 34/242/14 63/243/14 60/244/14
f 17/245/1 15/246/1 70/247/1 73/248/1
f 53/249/13 52/250/13 51/251/13 86/252/13
f 86/253/12 51/254/12 56/255/12 87/256/12
f 87/257/11 56/258/11 59/259/11 88/260/11
f 88/261/10 59/262/10 62/263/10 89/264/10
f 89/265/9 62/266/9 65/267/9 90/268/9
f 90/269/8 65/270/8 68/271/8 91/272/8
f 91/273/7 68/274/7 71/275/7 92/276/7
f 92/277/6 71/278/6 74/279/6 93/280/6
f 93/281/5 74/282/5 77/283/5 94/284/5
f 94/285/4 77/286/4 80/287/4 95/288/4
f 95/289/3 80/290/3 83/291/3 96/292/3
f 96/293/2 83/294/2 52/295/2 53/296/2
f 82/297/2 84/298/2 85/299/2 49/300/2
f 79/301/3 81/302/3 84/303/3 82/304/3
f 76/305/4 78/306/4 81/307/4 79/308/4
f 73/309/5 75/310/5 78/311/5 76/312/5
f 70/313/6 72/314/6 75/315/6 73/316/6
f 67/317/7 69/318/7 72/319/7 70/320/7
f 64/321/8 66/322/8 69/323/8 67/324/8
f 61/325/9 63/326/9 66/327/9 64/328/9
f 58/329/10 60/330/10 63/331/10 61/332/10
f 55/333/11 57/334/11 60/335/11 58/336/11
f 50/337/12 54/338/12 57/339/12 55/340/12
f 49/341/13 85/342/13 54/343/13 50/344/13
f 20/345/14 22/346/14 80/347/14 77/348/14
f 13/349/1 11/350/1 64/351/1 67/352/1
f 38/353/14 40/354/14 72/355/14 69/356/14
f 12/357/14 14/358/14 68/359/14 65/360/14
f 5/361/1 3/362/1 50/363/1 55/364/1
f 23/365/1 21/366/1 79/367/1 82/368/1
f 36/369/14 38/370/14 69/371/14 66/372/14
f 4/373/14 6/374/14 56/375/14 51/376/14
f 22/377/14 24/378/14 83/379/14 80/380/14
f 15/381/1 13/382/1 67/383/1 70/384/1
f 48/385/14 25/386/14 85/387/14 84/388/14
f 14/389/14 16/390/14 71/391/14 68/392/14
f 34/393/14 36/394/14 66/395/14 63/396/14
f 7/397/1 5/398/1 55/399/1 58/400/1
f 1/401/1 23/402/1 82/403/1 49/404/1
f 6/405/14 8/406/14 59/407/14 56/408/14
f 24/409/14 2/410/14 52/411/14 83/412/14
f 46/413/14 48/414/14 84/415/14 81/416/14
f 2/417/8 24/418/8 120/419/8 100/420/8
f 9/421/3 11/422/3 107/423/3 105/424/3
f 19/425/10 21/426/10 117/427/10 115/428/10
f 12/429/3 10/430/3 106/431/3 108/432/3
f 22/433/10 20/434/10 116/435/10 118/436/10
f 5/437/5 7/438/5 103/439/5 101/440/5
f 15/441/12 17/442/12 113/443/12 111/444/12
f 1/445/7 3/446/7 98/447/7 97/448/7
f 8/449/5 6/450/5 102/451/5 104/452/5
f 18/453/12 16/454/12 112/455/12 114/456/12
f 4/457/7 2/458/7 100/459/7 99/460/7
f 11/461/2 13/462/2 109/463/2 107/464/2
f 21/465/9 23/466/9 119/467/9 117/468/9
f 14/469/2 12/470/2 108/471/2 110/472/2
f 24/473/9 22/474/9 118/475/9 120/476/9
f 7/477/4 9/478/4 105/479/4 103/480/4
f 17/481/11 19/482/11 115/483/11 113/484/11
f 10/485/4 8/486/4 104/487/4 106/488/4
f 20/489/11 18/490/11 114/491/11 116/492/11
f 3/493/6 5/494/6 101/495/6 98/496/6
f 13/497/13 15/498/13 111/499/13 109/500/13
f 23/501/8 1/502/8 97/503/8 119/504/8
usemtl light_grey
f 121/505/13 122/506/13 123/507/13 124/508/13
f 124/509/12 123/510/12 125/511/12 126/512/12
f 126/513/11 125/514/11 127/515/11 128/516/11
f 128/517/10 127/518/10 129/519/10 130/520/10
f 130/521/9 129/522/9 131/523/9 132/524/9
f 132/525/8 131/526/8 133/527/8 134/528/8
f 134/529/7 133/530/7 135/531/7 136/532/7
f 136/533/6 135/534/6 137/535/6 138/536/6
f 138/537/5 137/538/5 139/539/5 140/540/5
f 140/541/4 139/542/4 141/543/4 142/544/4
f 142/545/3 141/546/3 143/547/3 144/548/3
f 144/549/2 143/550/2 122/551/2 121/552/2
