# Blender v2.80 (sub 75) OBJ File: 'street props pack.blend'
# www.blender.org
mtllib bench.mtl
o Cube_Cube.001
v -1.366114 3.484600 54.887108
v -1.171296 3.519516 54.887108
v -1.366114 3.484600 60.123199
v -1.171296 3.519516 60.123199
v 1.047531 1.395942 60.123199
v 1.047531 1.593865 60.123199
v 1.047531 1.395942 54.887108
v 1.047531 1.593865 54.887108
v -0.257766 1.395942 60.123199
v 0.612432 1.593865 54.887108
v 0.177333 1.593865 54.887108
v -0.257766 1.593865 54.887108
v -0.257766 1.395942 54.887108
v 0.177333 1.395942 60.123199
v 0.177333 1.395942 54.887108
v 0.612432 1.395942 54.887108
v 0.612432 1.395942 60.123199
v 0.612432 1.593865 60.123199
v 0.177333 1.593865 60.123199
v -0.257766 1.593865 60.123199
v 0.659276 1.593865 54.887108
v 0.659276 1.395942 60.123199
v 0.659276 1.395942 54.887108
v 0.659276 1.593865 60.123199
v 0.215959 1.395942 60.123199
v 0.215959 1.593865 54.887108
v 0.215959 1.395942 54.887108
v 0.215959 1.593865 60.123199
v -0.220079 1.395942 60.123199
v -0.220079 1.593865 54.887108
v -0.220079 1.395942 54.887108
v -0.220079 1.593865 60.123199
v -0.662521 1.395942 54.887108
v -0.662521 1.593865 60.123199
v -0.662521 1.395942 60.123199
v -0.662521 1.593865 54.887108
v -0.941022 2.234692 60.123199
v -1.289356 3.056325 54.887108
v -1.212598 2.628050 54.887108
v -1.135841 2.199775 54.887108
v -0.941022 2.234692 54.887108
v -1.017780 2.662967 60.123199
v -1.017780 2.662967 54.887108
v -1.094538 3.091242 54.887108
v -1.094538 3.091242 60.123199
v -1.289356 3.056325 60.123199
v -1.212598 2.628050 60.123199
v -1.135841 2.199775 60.123199
v -1.297620 3.102435 54.887108
v -1.102802 3.137351 60.123199
v -1.102802 3.137351 54.887108
v -1.297620 3.102435 60.123199
v -1.024594 2.700987 60.123199
v -1.219413 2.666070 54.887108
v -1.024594 2.700987 54.887108
v -1.219413 2.666070 60.123199
v -0.947671 2.271788 60.123199
v -1.142489 2.236871 54.887108
v -0.947671 2.271788 54.887108
v -1.142489 2.236871 60.123199
v -0.869617 1.836284 54.887108
v -1.064436 1.801368 60.123199
v -0.869617 1.836284 60.123199
v -1.064436 1.801368 54.887108
v -0.729176 1.719373 60.251881
v -0.729176 1.719373 60.031013
v 1.191395 -0.280627 60.251881
v 1.191395 1.719373 60.251881
v 1.191395 -0.280627 60.031013
v 1.191395 1.719373 60.031013
v -0.729176 1.719373 54.915668
v -0.729176 1.719373 54.694801
v 1.191395 -0.280627 54.915668
v 1.191395 1.719373 54.915668
v 1.191395 -0.280627 54.694801
v 1.191395 1.719373 54.694801
v -1.125405 -0.280627 60.031013
v -1.125405 -0.280627 60.251881
v -1.125405 1.719373 60.251881
v -1.125405 1.719373 60.031013
v -1.125405 -0.280627 54.694801
v -1.125405 -0.280627 54.915668
v -1.125405 1.719373 54.915668
v -1.125405 1.719373 54.694801
v -1.087154 3.579553 60.251881
v -1.087154 3.579553 60.031013
v -1.087154 3.579553 54.915668
v -1.087154 3.579553 54.694801
v -1.483384 3.579553 60.251881
v -1.483384 3.579553 60.031013
v -1.483384 3.579553 54.915668
v -1.483384 3.579553 54.694801
vt 0.822528 0.706883
vt 0.765707 0.706883
vt 0.765707 0.940175
vt 0.822528 0.940175
vt 0.293117 0.942177
vt 0.236295 0.942177
vt 0.236295 0.998999
vt 0.293117 0.998999
vt 0.704881 0.646058
vt 0.704881 0.589236
vt 0.471589 0.589236
vt 0.471589 0.646058
vt 0.998999 0.177472
vt 0.942177 0.177472
vt 0.942177 0.234293
vt 0.998999 0.234293
vt 0.528411 0.001001
vt 0.471589 0.001001
vt 0.471589 0.234293
vt 0.528411 0.234293
vt 0.234293 0.942177
vt 0.177472 0.942177
vt 0.177472 0.998999
vt 0.234293 0.998999
vt 0.998999 0.118648
vt 0.942177 0.118648
vt 0.942177 0.175470
vt 0.998999 0.175470
vt 0.469587 0.528411
vt 0.469587 0.471589
vt 0.236295 0.471589
vt 0.236295 0.528411
vt 0.587234 0.001001
vt 0.530413 0.001001
vt 0.530413 0.234293
vt 0.587234 0.234293
vt 0.234293 0.587234
vt 0.234293 0.530413
vt 0.001001 0.530413
vt 0.001001 0.587234
vt 0.587234 0.236295
vt 0.530413 0.236295
vt 0.530413 0.469587
vt 0.587234 0.469587
vt 0.469587 0.587234
vt 0.469587 0.530413
vt 0.236295 0.530413
vt 0.236295 0.587234
vt 0.646058 0.001001
vt 0.589236 0.001001
vt 0.589236 0.234293
vt 0.646058 0.234293
vt 0.234293 0.646058
vt 0.234293 0.589236
vt 0.001001 0.589236
vt 0.001001 0.646058
vt 0.646058 0.236295
vt 0.589236 0.236295
vt 0.589236 0.469587
vt 0.646058 0.469587
vt 0.175470 0.942177
vt 0.118648 0.942177
vt 0.118648 0.998999
vt 0.175470 0.998999
vt 0.057823 0.942177
vt 0.001001 0.942177
vt 0.001001 0.998999
vt 0.057823 0.998999
vt 0.998999 0.001001
vt 0.942177 0.001001
vt 0.942177 0.057823
vt 0.998999 0.057823
vt 0.940175 0.883354
vt 0.883354 0.883354
vt 0.883354 0.940175
vt 0.940175 0.940175
vt 0.469587 0.704881
vt 0.469587 0.648060
vt 0.236295 0.648060
vt 0.236295 0.704881
vt 0.940175 0.824530
vt 0.883354 0.824530
vt 0.883354 0.881352
vt 0.940175 0.881352
vt 0.763705 0.001001
vt 0.706883 0.001001
vt 0.706883 0.234293
vt 0.763705 0.234293
vt 0.704881 0.587234
vt 0.704881 0.530413
vt 0.471589 0.530413
vt 0.471589 0.587234
vt 0.940175 0.765707
vt 0.883354 0.765707
vt 0.883354 0.822528
vt 0.940175 0.822528
vt 0.763705 0.706883
vt 0.706883 0.706883
vt 0.706883 0.940175
vt 0.763705 0.940175
vt 0.704881 0.704881
vt 0.704881 0.648060
vt 0.471589 0.648060
vt 0.471589 0.704881
vt 0.763705 0.471589
vt 0.706883 0.471589
vt 0.706883 0.704881
vt 0.763705 0.704881
vt 0.940175 0.706883
vt 0.883354 0.706883
vt 0.883354 0.763705
vt 0.940175 0.763705
vt 0.236295 0.763705
vt 0.469587 0.763705
vt 0.469587 0.706883
vt 0.236295 0.706883
vt 0.822528 0.001001
vt 0.765707 0.001001
vt 0.765707 0.234293
vt 0.822528 0.234293
vt 0.471589 0.763705
vt 0.704881 0.763705
vt 0.704881 0.706883
vt 0.471589 0.706883
vt 0.822528 0.469587
vt 0.822528 0.236295
vt 0.765707 0.236295
vt 0.765707 0.469587
vt 0.234293 0.822528
vt 0.234293 0.765707
vt 0.001001 0.765707
vt 0.001001 0.822528
vt 0.704881 0.883354
vt 0.648060 0.883354
vt 0.648060 0.940175
vt 0.704881 0.940175
vt 0.998999 0.236295
vt 0.942177 0.236295
vt 0.942177 0.293117
vt 0.998999 0.293117
vt 0.881352 0.001001
vt 0.824530 0.001001
vt 0.824530 0.234293
vt 0.881352 0.234293
vt 0.704881 0.822528
vt 0.704881 0.765707
vt 0.471589 0.765707
vt 0.471589 0.822528
vt 0.646058 0.883354
vt 0.589236 0.883354
vt 0.589236 0.940175
vt 0.646058 0.940175
vt 0.881352 0.471589
vt 0.824530 0.471589
vt 0.824530 0.704881
vt 0.881352 0.704881
vt 0.234293 0.881352
vt 0.234293 0.824530
vt 0.001001 0.824530
vt 0.001001 0.881352
vt 0.940175 0.001001
vt 0.883354 0.001001
vt 0.883354 0.234293
vt 0.940175 0.234293
vt 0.587234 0.883354
vt 0.530413 0.883354
vt 0.530413 0.940175
vt 0.587234 0.940175
vt 0.471589 0.881352
vt 0.704881 0.881352
vt 0.704881 0.824530
vt 0.471589 0.824530
vt 0.940175 0.236295
vt 0.883354 0.236295
vt 0.883354 0.469587
vt 0.940175 0.469587
vt 0.001001 0.940175
vt 0.234293 0.940175
vt 0.234293 0.883354
vt 0.001001 0.883354
vt 0.940175 0.704881
vt 0.940175 0.471589
vt 0.883354 0.471589
vt 0.883354 0.704881
vt 0.469587 0.940175
vt 0.469587 0.883354
vt 0.236295 0.883354
vt 0.236295 0.940175
vt 0.528411 0.883354
vt 0.471589 0.883354
vt 0.471589 0.940175
vt 0.528411 0.940175
vt 0.001001 0.001001
vt 0.194394 0.001001
vt 0.234293 0.001001
vt 0.234293 0.234293
vt 0.001001 0.234293
vt 0.881352 0.940175
vt 0.881352 0.706883
vt 0.824530 0.706883
vt 0.824530 0.940175
vt 0.236295 0.001001
vt 0.429689 0.001001
vt 0.469587 0.001001
vt 0.469587 0.234293
vt 0.236295 0.234293
vt 0.236295 0.881352
vt 0.469587 0.881352
vt 0.469587 0.824530
vt 0.236295 0.824530
vt 0.881352 0.469587
vt 0.881352 0.236295
vt 0.824530 0.236295
vt 0.824530 0.469587
vt 0.001001 0.236295
vt 0.234293 0.236295
vt 0.234293 0.469587
vt 0.194394 0.469587
vt 0.001001 0.469587
vt 0.001001 0.763705
vt 0.234293 0.763705
vt 0.234293 0.706883
vt 0.001001 0.706883
vt 0.763705 0.469587
vt 0.763705 0.236295
vt 0.706883 0.236295
vt 0.706883 0.469587
vt 0.471589 0.528411
vt 0.704881 0.528411
vt 0.704881 0.471589
vt 0.471589 0.471589
vt 0.704881 0.236295
vt 0.648060 0.236295
vt 0.648060 0.469587
vt 0.704881 0.469587
vt 0.469587 0.236295
vt 0.469587 0.469587
vt 0.429689 0.469587
vt 0.236295 0.469587
vt 0.236295 0.236295
vt 0.469587 0.646058
vt 0.469587 0.589236
vt 0.236295 0.589236
vt 0.236295 0.646058
vt 0.998999 0.059825
vt 0.942177 0.059825
vt 0.942177 0.116646
vt 0.998999 0.116646
vt 0.116646 0.942177
vt 0.059825 0.942177
vt 0.059825 0.998999
vt 0.116646 0.998999
vt 0.704881 0.001001
vt 0.648060 0.001001
vt 0.648060 0.234293
vt 0.704881 0.234293
vt 0.234293 0.528411
vt 0.234293 0.471589
vt 0.001001 0.471589
vt 0.001001 0.528411
vt 0.528411 0.236295
vt 0.471589 0.236295
vt 0.471589 0.469587
vt 0.528411 0.469587
vt 0.234293 0.704881
vt 0.234293 0.648060
vt 0.001001 0.648060
vt 0.001001 0.704881
vt 0.822528 0.471589
vt 0.765707 0.471589
vt 0.765707 0.704881
vt 0.822528 0.704881
vt 0.469587 0.822528
vt 0.469587 0.765707
vt 0.236295 0.765707
vt 0.236295 0.822528
vn -1.0000 0.0000 0.0000
vn 0.0000 0.0000 -1.0000
vn 1.0000 0.0000 0.0000
vn 0.0000 -1.0000 0.0000
vn 0.9843 0.1764 0.0000
vn -0.1764 0.9843 0.0000
vn 0.0000 0.0000 1.0000
vn 0.0000 1.0000 0.0000
vn 0.1764 -0.9843 0.0000
vn -0.9843 -0.1764 0.0000
vn -0.9820 -0.1890 0.0000
vn 0.9820 0.1890 0.0000
usemtl light_brown
s off
f 22/1/1 24/2/1 21/3/1 23/4/1
f 23/5/2 21/6/2 8/7/2 7/8/2
f 7/9/3 8/10/3 6/11/3 5/12/3
f 55/13/2 54/14/2 38/15/2 44/16/2
f 23/17/4 7/18/4 5/19/4 22/20/4
f 59/21/2 58/22/2 39/23/2 43/24/2
f 61/25/2 64/26/2 40/27/2 41/28/2
f 61/29/5 41/30/5 37/31/5 63/32/5
f 27/33/4 16/34/4 17/35/4 25/36/4
f 31/37/4 15/38/4 14/39/4 29/40/4
f 59/41/5 43/42/5 42/43/5 57/44/5
f 33/45/4 13/46/4 9/47/4 35/48/4
f 55/49/5 44/50/5 45/51/5 53/52/5
f 51/53/5 2/54/5 4/55/5 50/56/5
f 2/57/6 1/58/6 3/59/6 4/60/6
f 33/61/2 36/62/2 12/63/2 13/64/2
f 31/65/2 30/66/2 11/67/2 15/68/2
f 27/69/2 26/70/2 10/71/2 16/72/2
f 5/73/7 6/74/7 24/75/7 22/76/7
f 8/77/8 21/78/8 24/79/8 6/80/8
f 51/81/2 49/82/2 1/83/2 2/84/2
f 50/85/9 52/86/9 49/87/9 51/88/9
f 20/89/3 9/90/3 13/91/3 12/92/3
f 17/93/7 18/94/7 28/95/7 25/96/7
f 19/97/3 14/98/3 15/99/3 11/100/3
f 10/101/8 26/102/8 28/103/8 18/104/8
f 18/105/3 17/106/3 16/107/3 10/108/3
f 14/109/7 19/110/7 32/111/7 29/112/7
f 33/113/1 35/114/1 34/115/1 36/116/1
f 11/117/8 30/118/8 32/119/8 19/120/8
f 31/121/1 29/122/1 32/123/1 30/124/1
f 27/125/1 25/126/1 28/127/1 26/128/1
f 12/129/8 36/130/8 34/131/8 20/132/8
f 9/133/7 20/134/7 34/135/7 35/136/7
f 4/137/7 3/138/7 52/139/7 50/140/7
f 1/141/10 49/142/10 52/143/10 3/144/10
f 48/145/6 37/146/6 41/147/6 40/148/6
f 45/149/7 46/150/7 56/151/7 53/152/7
f 47/153/6 42/154/6 43/155/6 39/156/6
f 38/157/10 54/158/10 56/159/10 46/160/10
f 46/161/6 45/162/6 44/163/6 38/164/6
f 42/165/7 47/166/7 60/167/7 57/168/7
f 61/169/9 63/170/9 62/171/9 64/172/9
f 39/173/10 58/174/10 60/175/10 47/176/10
f 59/177/9 57/178/9 60/179/9 58/180/9
f 55/181/9 53/182/9 56/183/9 54/184/9
f 40/185/10 64/186/10 62/187/10 48/188/10
f 37/189/7 48/190/7 62/191/7 63/192/7
usemtl Black
f 74/193/7 71/194/7 83/195/7 82/196/7 73/197/7
f 69/198/3 70/199/3 68/200/3 67/201/3
f 68/202/7 65/203/7 79/204/7 78/205/7 67/206/7
f 70/207/8 66/208/8 65/209/8 68/210/8
f 75/211/3 76/212/3 74/213/3 73/214/3
f 75/215/2 81/216/2 84/217/2 72/218/2 76/219/2
f 76/220/8 72/221/8 71/222/8 74/223/8
f 78/224/1 79/225/1 80/226/1 77/227/1
f 82/228/1 83/229/1 84/230/1 81/231/1
f 79/232/7 65/233/7 85/234/7 89/235/7
f 77/236/2 80/237/2 66/238/2 70/239/2 69/240/2
f 84/241/11 83/242/11 91/243/11 92/244/11
f 85/245/8 86/246/8 90/247/8 89/248/8
f 87/249/8 88/250/8 92/251/8 91/252/8
f 80/253/11 79/254/11 89/255/11 90/256/11
f 65/257/12 66/258/12 86/259/12 85/260/12
f 72/261/2 84/262/2 92/263/2 88/264/2
f 66/265/2 80/266/2 90/267/2 86/268/2
f 71/269/12 72/270/12 88/271/12 87/272/12
f 83/273/7 71/274/7 87/275/7 91/276/7
