# Blender v2.80 (sub 75) OBJ File: 'street props pack.blend'
# www.blender.org
mtllib bilboard.mtl
o Cylinder.018
v 8.437048 -0.282707 88.565498
v 8.437048 2.877952 88.565498
v 8.593040 -0.282707 88.655556
v 8.593040 2.877952 88.655556
v 8.593040 -0.282707 88.835686
v 8.593040 2.877952 88.835686
v 8.437048 -0.282707 88.925743
v 8.437048 2.877952 88.925743
v 8.281056 -0.282707 88.835686
v 8.281056 2.877952 88.835686
v 8.281056 -0.282707 88.655556
v 8.281056 2.877952 88.655556
v 8.593040 3.148571 88.926178
v 8.437048 3.238633 88.926178
v 8.593040 2.968447 88.926178
v 8.437048 2.878385 88.926178
v 8.281056 2.968447 88.926178
v 8.281056 3.148571 88.926178
v 8.437048 -0.282707 95.787788
v 8.437048 2.877952 95.787788
v 8.593040 -0.282707 95.877846
v 8.593040 2.877952 95.877846
v 8.593040 -0.282707 96.057968
v 8.593040 2.877952 96.057968
v 8.437048 -0.282707 96.148033
v 8.437048 2.877952 96.148033
v 8.281056 -0.282707 96.057968
v 8.281056 2.877952 96.057968
v 8.281056 -0.282707 95.877846
v 8.281056 2.877952 95.877846
v 8.593040 2.968447 95.787354
v 8.437048 2.878386 95.787354
v 8.593040 3.148571 95.787354
v 8.437048 3.238633 95.787354
v 8.281056 3.148571 95.787354
v 8.281056 2.968447 95.787354
v 8.437048 2.104759 88.565498
v 8.437048 2.609738 88.565498
v 8.593040 2.609738 88.655556
v 8.593040 2.104759 88.655556
v 8.593040 2.609738 88.835686
v 8.593040 2.104759 88.835686
v 8.437048 2.609738 88.925743
v 8.437048 2.104759 88.925743
v 8.281056 2.609738 88.835686
v 8.281056 2.104759 88.835686
v 8.281056 2.609738 88.655556
v 8.281056 2.104759 88.655556
v 8.437048 2.104759 95.787788
v 8.437048 2.609738 95.787788
v 8.593040 2.609738 95.877846
v 8.593040 2.104759 95.877846
v 8.593040 2.609738 96.057968
v 8.593040 2.104759 96.057968
v 8.437048 2.609738 96.148033
v 8.437048 2.104759 96.148033
v 8.281056 2.609738 96.057968
v 8.281056 2.104759 96.057968
v 8.281056 2.609738 95.877846
v 8.281056 2.104759 95.877846
v 8.437048 2.104759 88.496346
v 8.437048 2.609738 88.496346
v 8.590783 2.609738 88.595673
v 8.590783 2.104759 88.595673
v 8.590783 2.609738 88.895569
v 8.590783 2.104759 88.895569
v 8.437048 2.609738 88.994896
v 8.437048 2.104759 88.994896
v 8.221170 2.609738 88.870255
v 8.221170 2.104759 88.870255
v 8.221170 2.609738 88.620987
v 8.221170 2.104759 88.620987
v 8.437048 2.104759 95.718636
v 8.437048 2.609738 95.718636
v 8.590783 2.609738 95.817963
v 8.590783 2.104759 95.817963
v 8.590783 2.609738 96.117859
v 8.590783 2.104759 96.117859
v 8.437048 2.609738 96.217186
v 8.437048 2.104759 96.217186
v 8.221170 2.609738 96.092545
v 8.221170 2.104759 96.092545
v 8.221170 2.609738 95.843277
v 8.221170 2.104759 95.843277
v 8.592237 0.696102 97.377045
v 8.592237 6.800785 97.377045
v 8.592237 0.696102 87.336487
v 8.592237 6.800785 87.336487
v 8.637527 0.761669 97.311478
v 8.637527 6.735218 97.311478
v 8.637527 0.761669 87.402046
v 8.637527 6.735218 87.402046
v 8.637527 6.800785 87.336487
v 8.637527 0.696102 87.336487
v 8.637527 0.696102 97.377045
v 8.637527 6.800785 97.377045
v 8.609133 6.735218 87.402046
v 8.609133 0.761669 87.402046
v 8.609133 0.761669 97.311478
v 8.609133 6.735218 97.311478
vt 0.798999 0.174499
vt 0.742857 0.198999
vt 0.686715 0.174499
vt 0.686715 0.125501
vt 0.742857 0.101001
vt 0.798999 0.125500
vt 0.227570 0.001001
vt 0.001001 0.001001
vt 0.001001 0.798999
vt 0.227570 0.798999
vt 0.686715 0.373999
vt 0.913285 0.373999
vt 0.913285 0.351001
vt 0.686715 0.351001
vt 0.656142 0.798999
vt 0.656142 0.001001
vt 0.629572 0.001001
vt 0.629572 0.798999
vt 0.686715 0.398999
vt 0.913285 0.398999
vt 0.913285 0.376001
vt 0.686715 0.376001
vt 0.627570 0.001001
vt 0.601001 0.001001
vt 0.601001 0.798999
vt 0.627570 0.798999
vt 0.913285 0.923999
vt 0.913285 0.901001
vt 0.001001 0.901001
vt 0.001001 0.923999
vt 0.913285 0.598999
vt 0.913285 0.401001
vt 0.886715 0.401001
vt 0.886715 0.598999
vt 0.001001 0.973999
vt 0.913285 0.973999
vt 0.913285 0.951001
vt 0.001001 0.951001
vt 0.598999 0.798999
vt 0.598999 0.001001
vt 0.572430 0.001001
vt 0.572430 0.798999
vt 0.686715 0.323999
vt 0.913285 0.323999
vt 0.913285 0.301001
vt 0.686715 0.301001
vt 0.686715 0.348999
vt 0.913285 0.348999
vt 0.913285 0.326001
vt 0.686715 0.326001
vt 0.884713 0.598999
vt 0.884713 0.401001
vt 0.858144 0.401001
vt 0.858144 0.598999
vt 0.001001 0.998999
vt 0.913285 0.998999
vt 0.913285 0.976001
vt 0.001001 0.976001
vt 0.456142 0.001001
vt 0.229572 0.001001
vt 0.229572 0.798999
vt 0.456142 0.798999
vt 0.970428 0.201001
vt 0.943858 0.201001
vt 0.943858 0.248999
vt 0.970428 0.248999
vt 0.998999 0.148999
vt 0.998999 0.126001
vt 0.943858 0.126001
vt 0.943858 0.148999
vt 0.970428 0.026001
vt 0.943858 0.026001
vt 0.943858 0.073999
vt 0.970428 0.073999
vt 0.970428 0.848999
vt 0.970428 0.826001
vt 0.915287 0.826001
vt 0.915287 0.848999
vt 0.941856 0.773999
vt 0.941856 0.726001
vt 0.915287 0.726001
vt 0.915287 0.773999
vt 0.970428 0.698999
vt 0.970428 0.676001
vt 0.915287 0.676001
vt 0.915287 0.698999
vt 0.941856 0.301001
vt 0.915287 0.301001
vt 0.915287 0.348999
vt 0.941856 0.348999
vt 0.913285 0.048999
vt 0.913285 0.001001
vt 0.801001 0.001001
vt 0.801001 0.048999
vt 0.884713 0.148999
vt 0.884713 0.101001
vt 0.858144 0.101001
vt 0.858144 0.148999
vt 0.856142 0.548999
vt 0.856142 0.526001
vt 0.801001 0.526001
vt 0.801001 0.548999
vt 0.884713 0.601001
vt 0.858144 0.601001
vt 0.858144 0.648999
vt 0.884713 0.648999
vt 0.856142 0.298999
vt 0.856142 0.251001
vt 0.743858 0.251001
vt 0.743858 0.298999
vt 0.884713 0.701001
vt 0.858144 0.701001
vt 0.858144 0.748999
vt 0.884713 0.748999
vt 0.998999 0.198999
vt 0.998999 0.176001
vt 0.943858 0.176001
vt 0.943858 0.198999
vt 0.941856 0.776001
vt 0.915287 0.776001
vt 0.915287 0.823999
vt 0.941856 0.823999
vt 0.970428 0.723999
vt 0.970428 0.701001
vt 0.915287 0.701001
vt 0.915287 0.723999
vt 0.741856 0.201001
vt 0.686715 0.201001
vt 0.686715 0.298999
vt 0.741856 0.298999
vt 0.970428 0.523999
vt 0.970428 0.501001
vt 0.915287 0.501001
vt 0.915287 0.523999
vt 0.941856 0.226001
vt 0.915287 0.226001
vt 0.915287 0.273999
vt 0.941856 0.273999
vt 0.742857 0.098999
vt 0.686715 0.074500
vt 0.686715 0.025501
vt 0.742857 0.001001
vt 0.798999 0.025501
vt 0.798999 0.074500
vt 0.856142 0.773999
vt 0.856142 0.751001
vt 0.801001 0.751001
vt 0.801001 0.773999
vt 0.913285 0.251001
vt 0.886715 0.251001
vt 0.886715 0.298999
vt 0.913285 0.298999
vt 0.743858 0.773999
vt 0.798999 0.773999
vt 0.798999 0.751001
vt 0.743858 0.751001
vt 0.741856 0.551001
vt 0.686715 0.551001
vt 0.686715 0.648999
vt 0.741856 0.648999
vt 0.686715 0.773999
vt 0.741856 0.773999
vt 0.741856 0.751001
vt 0.686715 0.751001
vt 0.684713 0.798999
vt 0.684713 0.001001
vt 0.658144 0.001001
vt 0.658144 0.798999
vt 0.001001 0.898999
vt 0.913285 0.898999
vt 0.913285 0.851001
vt 0.001001 0.851001
vt 0.570428 0.798999
vt 0.570428 0.001001
vt 0.515287 0.001001
vt 0.515287 0.798999
vt 0.001001 0.948999
vt 0.913285 0.948999
vt 0.913285 0.926001
vt 0.001001 0.926001
vt 0.513285 0.798999
vt 0.513285 0.001001
vt 0.458144 0.001001
vt 0.458144 0.798999
vt 0.001001 0.848999
vt 0.913285 0.848999
vt 0.913285 0.801001
vt 0.001001 0.801001
vt 0.856142 0.148999
vt 0.856142 0.051001
vt 0.801001 0.051001
vt 0.801001 0.148999
vt 0.801001 0.523999
vt 0.856142 0.523999
vt 0.856142 0.501001
vt 0.801001 0.501001
vt 0.856142 0.498999
vt 0.856142 0.401001
vt 0.801001 0.401001
vt 0.801001 0.498999
vt 0.943858 0.123999
vt 0.998999 0.123999
vt 0.998999 0.101001
vt 0.943858 0.101001
vt 0.856142 0.748999
vt 0.856142 0.651001
vt 0.801001 0.651001
vt 0.801001 0.748999
vt 0.970428 0.301001
vt 0.943858 0.301001
vt 0.943858 0.323999
vt 0.970428 0.323999
vt 0.801001 0.198999
vt 0.913285 0.198999
vt 0.913285 0.151001
vt 0.801001 0.151001
vt 0.884713 0.098999
vt 0.884713 0.051001
vt 0.858144 0.051001
vt 0.858144 0.098999
vt 0.686715 0.748999
vt 0.798999 0.748999
vt 0.798999 0.701001
vt 0.686715 0.701001
vt 0.884713 0.201001
vt 0.858144 0.201001
vt 0.858144 0.248999
vt 0.884713 0.248999
vt 0.743858 0.648999
vt 0.856142 0.648999
vt 0.856142 0.601001
vt 0.743858 0.601001
vt 0.884713 0.298999
vt 0.884713 0.251001
vt 0.858144 0.251001
vt 0.858144 0.298999
vt 0.743858 0.598999
vt 0.856142 0.598999
vt 0.856142 0.551001
vt 0.743858 0.551001
vt 0.884713 0.698999
vt 0.884713 0.651001
vt 0.858144 0.651001
vt 0.858144 0.698999
vt 0.743858 0.248999
vt 0.856142 0.248999
vt 0.856142 0.201001
vt 0.743858 0.201001
vt 0.913285 0.098999
vt 0.913285 0.051001
vt 0.886715 0.051001
vt 0.886715 0.098999
vt 0.686715 0.698999
vt 0.798999 0.698999
vt 0.798999 0.651001
vt 0.686715 0.651001
vt 0.913285 0.148999
vt 0.913285 0.101001
vt 0.886715 0.101001
vt 0.886715 0.148999
vt 0.686715 0.548999
vt 0.798999 0.548999
vt 0.798999 0.501001
vt 0.686715 0.501001
vt 0.913285 0.248999
vt 0.913285 0.201001
vt 0.886715 0.201001
vt 0.886715 0.248999
vt 0.686715 0.498999
vt 0.798999 0.498999
vt 0.798999 0.451001
vt 0.686715 0.451001
vt 0.913285 0.601001
vt 0.886715 0.601001
vt 0.886715 0.648999
vt 0.913285 0.648999
vt 0.686715 0.448999
vt 0.798999 0.448999
vt 0.798999 0.401001
vt 0.686715 0.401001
vt 0.913285 0.698999
vt 0.913285 0.651001
vt 0.886715 0.651001
vt 0.886715 0.698999
vt 0.741856 0.798999
vt 0.741856 0.776001
vt 0.686715 0.776001
vt 0.686715 0.798999
vt 0.913285 0.701001
vt 0.886715 0.701001
vt 0.886715 0.748999
vt 0.913285 0.748999
vt 0.798999 0.798999
vt 0.798999 0.776001
vt 0.743858 0.776001
vt 0.743858 0.798999
vt 0.884713 0.751001
vt 0.858144 0.751001
vt 0.858144 0.798999
vt 0.884713 0.798999
vt 0.856142 0.798999
vt 0.856142 0.776001
vt 0.801001 0.776001
vt 0.801001 0.798999
vt 0.913285 0.751001
vt 0.886715 0.751001
vt 0.886715 0.798999
vt 0.913285 0.798999
vt 0.970428 0.023999
vt 0.970428 0.001001
vt 0.915287 0.001001
vt 0.915287 0.023999
vt 0.941856 0.026001
vt 0.915287 0.026001
vt 0.915287 0.073999
vt 0.941856 0.073999
vt 0.970428 0.098999
vt 0.970428 0.076001
vt 0.915287 0.076001
vt 0.915287 0.098999
vt 0.941856 0.101001
vt 0.915287 0.101001
vt 0.915287 0.148999
vt 0.941856 0.148999
vt 0.915287 0.173999
vt 0.970428 0.173999
vt 0.970428 0.151001
vt 0.915287 0.151001
vt 0.941856 0.223999
vt 0.941856 0.176001
vt 0.915287 0.176001
vt 0.915287 0.223999
vt 0.970428 0.251001
vt 0.943858 0.251001
vt 0.943858 0.273999
vt 0.970428 0.273999
vt 0.915287 0.298999
vt 0.970428 0.298999
vt 0.970428 0.276001
vt 0.915287 0.276001
vt 0.970428 0.326001
vt 0.943858 0.326001
vt 0.943858 0.348999
vt 0.970428 0.348999
vt 0.941856 0.398999
vt 0.941856 0.351001
vt 0.915287 0.351001
vt 0.915287 0.398999
vt 0.915287 0.423999
vt 0.970428 0.423999
vt 0.970428 0.401001
vt 0.915287 0.401001
vt 0.941856 0.473999
vt 0.941856 0.426001
vt 0.915287 0.426001
vt 0.915287 0.473999
vt 0.915287 0.498999
vt 0.970428 0.498999
vt 0.970428 0.476001
vt 0.915287 0.476001
vt 0.970428 0.351001
vt 0.943858 0.351001
vt 0.943858 0.373999
vt 0.970428 0.373999
vt 0.941856 0.573999
vt 0.941856 0.526001
vt 0.915287 0.526001
vt 0.915287 0.573999
vt 0.915287 0.598999
vt 0.970428 0.598999
vt 0.970428 0.576001
vt 0.915287 0.576001
vt 0.941856 0.648999
vt 0.941856 0.601001
vt 0.915287 0.601001
vt 0.915287 0.648999
vt 0.915287 0.673999
vt 0.970428 0.673999
vt 0.970428 0.651001
vt 0.915287 0.651001
vn 0.0000 -1.0000 0.0000
vn -1.0000 0.0000 0.0000
vn 0.0000 0.0000 -1.0000
vn 0.0000 0.0000 1.0000
vn 0.0000 1.0000 0.0000
vn 1.0000 0.0000 0.0000
vn 0.5000 0.0000 -0.8660
vn 0.5000 0.0000 0.8660
vn -0.5000 0.0000 0.8660
vn 0.3779 -0.6547 0.6547
vn -0.5000 0.0000 -0.8660
vn -0.3779 0.6547 -0.6547
vn -0.3779 -0.6547 0.6547
vn 0.3779 0.6547 -0.6547
vn -0.3780 0.6546 0.6546
vn 0.3780 -0.6546 -0.6546
vn 0.3780 0.6546 0.6546
vn -0.3780 -0.6546 -0.6546
vn 0.5000 -0.8660 0.0000
vn -0.5000 -0.8660 0.0000
vn -0.5000 0.8660 -0.0000
vn 0.5000 0.8660 -0.0000
vn 0.9993 0.0000 -0.0377
vn 0.5427 0.0000 0.8400
vn 0.5427 0.0000 -0.8399
vn 0.5427 0.0000 0.8399
vn 0.5427 0.0000 -0.8400
vn 0.9993 0.0000 -0.0376
vn 0.9993 0.0000 0.0376
usemtl Black
s off
f 1/1/1 3/2/1 5/3/1 7/4/1 9/5/1 11/6/1
f 85/7/2 86/8/2 88/9/2 87/10/2
f 87/11/3 88/12/3 93/13/3 94/14/3
f 92/15/1 90/16/1 100/17/1 97/18/1
f 95/19/4 96/20/4 86/21/4 85/22/4
f 87/23/1 94/24/1 95/25/1 85/26/1
f 93/27/5 88/28/5 86/29/5 96/30/5
f 92/31/6 91/32/6 94/33/6 93/34/6
f 91/35/6 89/36/6 95/37/6 94/38/6
f 90/39/6 92/40/6 93/41/6 96/42/6
f 89/43/6 90/44/6 96/45/6 95/46/6
f 91/47/4 92/48/4 97/49/4 98/50/4
f 90/51/3 89/52/3 99/53/3 100/54/3
f 89/55/5 91/56/5 98/57/5 99/58/5
usemtl Dark_green
f 98/59/6 97/60/6 100/61/6 99/62/6
usemtl Grey
f 38/63/7 2/64/7 4/65/7 39/66/7
f 39/67/6 4/68/6 6/69/6 41/70/6
f 41/71/8 6/72/8 8/73/8 43/74/8
f 43/75/9 8/76/9 10/77/9 45/78/9
f 8/79/10 6/80/10 15/81/10 16/82/10
f 45/83/2 10/84/2 12/85/2 47/86/2
f 47/87/11 12/88/11 2/89/11 38/90/11
f 2/91/12 12/92/12 18/93/12 14/94/12
f 10/95/13 8/96/13 16/97/13 17/98/13
f 6/99/6 4/100/6 13/101/6 15/102/6
f 12/103/2 10/104/2 17/105/2 18/106/2
f 4/107/14 2/108/14 14/109/14 13/110/14
f 50/111/7 20/112/7 22/113/7 51/114/7
f 51/115/6 22/116/6 24/117/6 53/118/6
f 53/119/8 24/120/8 26/121/8 55/122/8
f 55/123/9 26/124/9 28/125/9 57/126/9
f 28/127/15 26/128/15 34/129/15 35/130/15
f 57/131/2 28/132/2 30/133/2 59/134/2
f 59/135/11 30/136/11 20/137/11 50/138/11
f 19/139/1 21/140/1 23/141/1 25/142/1 27/143/1 29/144/1
f 24/145/6 22/146/6 31/147/6 33/148/6
f 30/149/2 28/150/2 35/151/2 36/152/2
f 22/153/16 20/154/16 32/155/16 31/156/16
f 26/157/17 24/158/17 33/159/17 34/160/17
f 20/161/18 30/162/18 36/163/18 32/164/18
f 13/165/6 33/166/6 31/167/6 15/168/6
f 15/169/19 31/170/19 32/171/19 16/172/19
f 16/173/20 32/174/20 36/175/20 17/176/20
f 17/177/2 36/178/2 35/179/2 18/180/2
f 18/181/21 35/182/21 34/183/21 14/184/21
f 14/185/22 34/186/22 33/187/22 13/188/22
f 11/189/11 48/190/11 37/191/11 1/192/11
f 55/193/5 57/194/5 81/195/5 79/196/5
f 9/197/2 46/198/2 48/199/2 11/200/2
f 44/201/1 42/202/1 66/203/1 68/204/1
f 7/205/9 44/206/9 46/207/9 9/208/9
f 39/209/23 40/210/23 64/211/23 63/212/23
f 5/213/8 42/214/8 44/215/8 7/216/8
f 58/217/1 56/218/1 80/219/1 82/220/1
f 3/221/6 40/222/6 42/223/6 5/224/6
f 40/225/6 39/226/6 41/227/6 42/228/6
f 1/229/7 37/230/7 40/231/7 3/232/7
f 50/233/5 51/234/5 75/235/5 74/236/5
f 29/237/11 60/238/11 49/239/11 19/240/11
f 43/241/5 45/242/5 69/243/5 67/244/5
f 27/245/2 58/246/2 60/247/2 29/248/2
f 57/249/5 59/250/5 83/251/5 81/252/5
f 25/253/9 56/254/9 58/255/9 27/256/9
f 52/257/1 49/258/1 73/259/1 76/260/1
f 23/261/8 54/262/8 56/263/8 25/264/8
f 46/265/1 44/266/1 68/267/1 70/268/1
f 21/269/6 52/270/6 54/271/6 23/272/6
f 52/273/6 51/274/6 53/275/6 54/276/6
f 19/277/7 49/278/7 52/279/7 21/280/7
f 60/281/1 58/282/1 82/283/1 84/284/1
f 72/285/11 71/286/11 62/287/11 61/288/11
f 70/289/2 69/290/2 71/291/2 72/292/2
f 68/293/9 67/294/9 69/295/9 70/296/9
f 66/297/24 65/298/24 67/299/24 68/300/24
f 61/301/25 62/302/25 63/303/25 64/304/25
f 84/305/11 83/306/11 74/307/11 73/308/11
f 82/309/2 81/310/2 83/311/2 84/312/2
f 80/313/9 79/314/9 81/315/9 82/316/9
f 78/317/26 77/318/26 79/319/26 80/320/26
f 73/321/27 74/322/27 75/323/27 76/324/27
f 41/325/5 43/326/5 67/327/5 65/328/5
f 37/329/1 48/330/1 72/331/1 61/332/1
f 51/333/28 52/334/28 76/335/28 75/336/28
f 56/337/1 54/338/1 78/339/1 80/340/1
f 42/341/29 41/342/29 65/343/29 66/344/29
f 47/345/5 38/346/5 62/347/5 71/348/5
f 53/349/5 55/350/5 79/351/5 77/352/5
f 49/353/1 60/354/1 84/355/1 73/356/1
f 48/357/1 46/358/1 70/359/1 72/360/1
f 54/361/29 53/362/29 77/363/29 78/364/29
f 40/365/1 37/366/1 61/367/1 64/368/1
f 59/369/5 50/370/5 74/371/5 83/372/5
f 45/373/5 47/374/5 71/375/5 69/376/5
f 38/377/5 39/378/5 63/379/5 62/380/5
