# Blender v2.80 (sub 75) OBJ File: 'street props pack.blend'
# www.blender.org
mtllib coke can.mtl
o Cylinder.015_Cylinder.019
v 1.616699 0.032940 9.443409
v 1.616699 0.546606 9.399569
v 1.716254 0.032940 9.484646
v 1.747253 0.546606 9.453646
v 1.757491 0.032940 9.584200
v 1.801331 0.546606 9.584200
v 1.716254 0.032940 9.683754
v 1.747253 0.546606 9.714754
v 1.616699 0.032940 9.724991
v 1.616699 0.546606 9.768831
v 1.517145 0.032940 9.683754
v 1.486145 0.546606 9.714754
v 1.475908 0.032940 9.584200
v 1.432068 0.546606 9.584200
v 1.517145 0.032940 9.484646
v 1.486145 0.546606 9.453646
v 1.616699 0.022055 9.399569
v 1.616699 0.526837 9.399569
v 1.747253 0.526837 9.453646
v 1.747253 0.022055 9.453646
v 1.801331 0.526837 9.584200
v 1.801331 0.022055 9.584200
v 1.747253 0.526837 9.714754
v 1.747253 0.022055 9.714754
v 1.616699 0.526837 9.768831
v 1.616699 0.022055 9.768831
v 1.486145 0.526837 9.714754
v 1.486145 0.022055 9.714754
v 1.432068 0.526837 9.584200
v 1.432068 0.022055 9.584200
v 1.486145 0.526837 9.453646
v 1.486145 0.022055 9.453646
v 1.616699 0.002286 9.390152
v 1.753912 0.002286 9.446987
v 1.753912 0.546606 9.446987
v 1.616699 0.546606 9.390152
v 1.616699 0.526837 9.390152
v 1.753912 0.022055 9.446987
v 1.810748 0.002286 9.584200
v 1.810748 0.546606 9.584200
v 1.810748 0.022055 9.584200
v 1.753912 0.002286 9.721413
v 1.753912 0.546606 9.721413
v 1.753912 0.022055 9.721413
v 1.616699 0.002286 9.778248
v 1.616699 0.546606 9.778248
v 1.616699 0.022055 9.778248
v 1.479486 0.002286 9.721413
v 1.479486 0.546606 9.721413
v 1.479486 0.022055 9.721413
v 1.422651 0.002286 9.584200
v 1.422651 0.546606 9.584200
v 1.422651 0.022055 9.584200
v 1.479486 0.002286 9.446987
v 1.479486 0.546606 9.446987
v 1.479486 0.022055 9.446987
v 1.616699 0.022055 9.390152
v 1.753912 0.526837 9.446987
v 1.810748 0.526837 9.584200
v 1.753912 0.526837 9.721413
v 1.616699 0.526837 9.778248
v 1.479486 0.526837 9.721413
v 1.422651 0.526837 9.584200
v 1.479486 0.526837 9.446987
v 1.616699 -0.002561 9.399569
v 1.747253 -0.002561 9.453646
v 1.747253 0.551453 9.453646
v 1.616699 0.551453 9.399569
v 1.801331 -0.002561 9.584200
v 1.801331 0.551453 9.584200
v 1.486145 0.551453 9.714754
v 1.479486 0.551453 9.721413
v 1.747253 -0.002561 9.714754
v 1.747253 0.551453 9.714754
v 1.753912 -0.002561 9.446987
v 1.616699 -0.002561 9.768831
v 1.616699 0.551453 9.768831
v 1.616699 -0.002561 9.390152
v 1.486145 -0.002561 9.714754
v 1.432068 -0.002561 9.584200
v 1.432068 0.551453 9.584200
v 1.486145 -0.002561 9.453646
v 1.486145 0.551453 9.453646
v 1.479486 -0.002561 9.721413
v 1.616699 -0.002561 9.778248
v 1.753912 0.551453 9.721413
v 1.616699 0.551453 9.778248
v 1.753912 0.551453 9.446987
v 1.616699 0.551453 9.390152
v 1.810748 -0.002561 9.584200
v 1.810748 0.551453 9.584200
v 1.753912 -0.002561 9.721413
v 1.422651 -0.002561 9.584200
v 1.422651 0.551453 9.584200
v 1.479486 -0.002561 9.446987
v 1.479486 0.551453 9.446987
v 1.616699 0.073896 9.363740
v 1.616699 0.474996 9.363740
v 1.772588 0.474996 9.428311
v 1.772588 0.073896 9.428311
v 1.837159 0.474996 9.584200
v 1.837159 0.073896 9.584200
v 1.772588 0.474996 9.740088
v 1.772588 0.073896 9.740088
v 1.616699 0.474996 9.804660
v 1.616699 0.073896 9.804660
v 1.460811 0.474996 9.740088
v 1.460811 0.073896 9.740088
v 1.396240 0.474996 9.584200
v 1.396240 0.073896 9.584200
v 1.460811 0.474996 9.428311
v 1.460811 0.073896 9.428311
v 1.616699 0.002286 9.399569
v 1.747253 0.002286 9.453646
v 1.801331 0.002286 9.584200
v 1.747253 0.002286 9.714754
v 1.616699 0.002286 9.768831
v 1.486145 0.002286 9.714754
v 1.432068 0.002286 9.584200
v 1.486145 0.002286 9.453646
vt 0.998999 0.974609
vt 0.998999 0.781489
vt 0.978274 0.781489
vt 0.978274 0.974609
vt 0.546456 0.998999
vt 0.726272 0.998999
vt 0.726272 0.976611
vt 0.546456 0.976611
vt 0.998999 0.584365
vt 0.998999 0.391245
vt 0.978274 0.391245
vt 0.978274 0.584365
vt 0.364637 0.998999
vt 0.544454 0.998999
vt 0.544454 0.976611
vt 0.364637 0.976611
vt 0.998999 0.389243
vt 0.998999 0.196123
vt 0.978274 0.196123
vt 0.978274 0.389243
vt 0.182819 0.998999
vt 0.362635 0.998999
vt 0.362635 0.976611
vt 0.182819 0.976611
vt 0.001001 0.275529
vt 0.001001 0.114714
vt 0.106921 0.001001
vt 0.256715 0.001001
vt 0.362635 0.114714
vt 0.362635 0.275530
vt 0.256715 0.389243
vt 0.106921 0.389243
vt 0.998999 0.194121
vt 0.998999 0.001001
vt 0.978274 0.001001
vt 0.978274 0.194121
vt 0.001001 0.998999
vt 0.180817 0.998999
vt 0.180817 0.976611
vt 0.001001 0.976611
vt 0.106921 0.779487
vt 0.001001 0.665773
vt 0.001001 0.504958
vt 0.106921 0.391245
vt 0.256715 0.391245
vt 0.362635 0.504958
vt 0.362635 0.665773
vt 0.256715 0.779487
vt 0.976272 0.974609
vt 0.976272 0.781489
vt 0.955546 0.781489
vt 0.955546 0.974609
vt 0.976272 0.779487
vt 0.976272 0.586367
vt 0.955546 0.586367
vt 0.955546 0.779487
vt 0.976272 0.584365
vt 0.976272 0.391245
vt 0.955546 0.391245
vt 0.955546 0.584365
vt 0.976272 0.389243
vt 0.976272 0.196123
vt 0.955546 0.196123
vt 0.955546 0.389243
vt 0.976272 0.194121
vt 0.976272 0.001001
vt 0.955546 0.001001
vt 0.955546 0.194121
vt 0.953544 0.974609
vt 0.953544 0.781489
vt 0.932819 0.781489
vt 0.932819 0.974609
vt 0.953544 0.779487
vt 0.953544 0.586367
vt 0.932819 0.586367
vt 0.932819 0.779487
vt 0.953544 0.584365
vt 0.953544 0.391245
vt 0.932819 0.391245
vt 0.932819 0.584365
vt 0.953544 0.196123
vt 0.932819 0.196123
vt 0.932819 0.389243
vt 0.953544 0.389243
vt 0.908090 0.974609
vt 0.908090 0.952220
vt 0.728274 0.952220
vt 0.728274 0.974609
vt 0.953544 0.001001
vt 0.932819 0.001001
vt 0.932819 0.194121
vt 0.953544 0.194121
vt 0.908090 0.950218
vt 0.908090 0.927830
vt 0.728274 0.927830
vt 0.728274 0.950218
vt 0.930817 0.781489
vt 0.910092 0.781489
vt 0.910092 0.974609
vt 0.930817 0.974609
vt 0.908090 0.925828
vt 0.908090 0.903440
vt 0.728274 0.903440
vt 0.728274 0.925828
vt 0.930817 0.586367
vt 0.910092 0.586367
vt 0.910092 0.779487
vt 0.930817 0.779487
vt 0.726272 0.901438
vt 0.726272 0.879050
vt 0.546456 0.879050
vt 0.546456 0.901438
vt 0.794454 0.001001
vt 0.773728 0.001001
vt 0.773728 0.194121
vt 0.794454 0.194121
vt 0.180817 0.852658
vt 0.180817 0.830269
vt 0.001001 0.830269
vt 0.001001 0.852658
vt 0.794454 0.196123
vt 0.773728 0.196123
vt 0.773728 0.389243
vt 0.794454 0.389243
vt 0.362635 0.852658
vt 0.362635 0.830269
vt 0.182819 0.830269
vt 0.182819 0.852658
vt 0.794454 0.391245
vt 0.773728 0.391245
vt 0.773728 0.584365
vt 0.794454 0.584365
vt 0.544454 0.852658
vt 0.544454 0.830269
vt 0.364637 0.830269
vt 0.364637 0.852658
vt 0.794454 0.586367
vt 0.773728 0.586367
vt 0.773728 0.779487
vt 0.794454 0.779487
vt 0.726272 0.852658
vt 0.726272 0.830269
vt 0.546456 0.830269
vt 0.546456 0.852658
vt 0.817181 0.194121
vt 0.817181 0.001001
vt 0.796456 0.001001
vt 0.796456 0.194121
vt 0.001001 0.877048
vt 0.180817 0.877048
vt 0.180817 0.854660
vt 0.001001 0.854660
vt 0.817181 0.389243
vt 0.817181 0.196123
vt 0.796456 0.196123
vt 0.796456 0.389243
vt 0.182819 0.877048
vt 0.362635 0.877048
vt 0.362635 0.854660
vt 0.182819 0.854660
vt 0.817181 0.584365
vt 0.817181 0.391245
vt 0.796456 0.391245
vt 0.796456 0.584365
vt 0.364637 0.877048
vt 0.544454 0.877048
vt 0.544454 0.854660
vt 0.364637 0.854660
vt 0.817181 0.779487
vt 0.817181 0.586367
vt 0.796456 0.586367
vt 0.796456 0.779487
vt 0.546456 0.877048
vt 0.726272 0.877048
vt 0.726272 0.854660
vt 0.546456 0.854660
vt 0.839908 0.194121
vt 0.839908 0.001001
vt 0.819183 0.001001
vt 0.819183 0.194121
vt 0.001001 0.901438
vt 0.180817 0.901438
vt 0.180817 0.879050
vt 0.001001 0.879050
vt 0.839908 0.389243
vt 0.839908 0.196123
vt 0.819183 0.196123
vt 0.819183 0.389243
vt 0.182819 0.901438
vt 0.362635 0.901438
vt 0.362635 0.879050
vt 0.182819 0.879050
vt 0.839908 0.584365
vt 0.839908 0.391245
vt 0.819183 0.391245
vt 0.819183 0.584365
vt 0.364637 0.901438
vt 0.544454 0.901438
vt 0.544454 0.879050
vt 0.364637 0.879050
vt 0.998999 0.779487
vt 0.998999 0.586367
vt 0.978274 0.586367
vt 0.978274 0.779487
vt 0.001001 0.925828
vt 0.180817 0.925828
vt 0.180817 0.903440
vt 0.001001 0.903440
vt 0.839908 0.779487
vt 0.839908 0.586367
vt 0.819183 0.586367
vt 0.819183 0.779487
vt 0.182819 0.925828
vt 0.362635 0.925828
vt 0.362635 0.903440
vt 0.182819 0.903440
vt 0.862635 0.194121
vt 0.862635 0.001001
vt 0.841910 0.001001
vt 0.841910 0.194121
vt 0.364637 0.925828
vt 0.544454 0.925828
vt 0.544454 0.903440
vt 0.364637 0.903440
vt 0.862635 0.389243
vt 0.862635 0.196123
vt 0.841910 0.196123
vt 0.841910 0.389243
vt 0.546456 0.925828
vt 0.726272 0.925828
vt 0.726272 0.903440
vt 0.546456 0.903440
vt 0.862635 0.584365
vt 0.862635 0.391245
vt 0.841910 0.391245
vt 0.841910 0.584365
vt 0.001001 0.950218
vt 0.180817 0.950218
vt 0.180817 0.927830
vt 0.001001 0.927830
vt 0.862635 0.779487
vt 0.862635 0.586367
vt 0.841910 0.586367
vt 0.841910 0.779487
vt 0.182819 0.950218
vt 0.362635 0.950218
vt 0.362635 0.927830
vt 0.182819 0.927830
vt 0.885363 0.194121
vt 0.885363 0.001001
vt 0.864637 0.001001
vt 0.864637 0.194121
vt 0.364637 0.950218
vt 0.544454 0.950218
vt 0.544454 0.927830
vt 0.364637 0.927830
vt 0.885363 0.389243
vt 0.885363 0.196123
vt 0.864637 0.196123
vt 0.864637 0.389243
vt 0.546456 0.950218
vt 0.726272 0.950218
vt 0.726272 0.927830
vt 0.546456 0.927830
vt 0.885363 0.584365
vt 0.885363 0.391245
vt 0.864637 0.391245
vt 0.864637 0.584365
vt 0.001001 0.974609
vt 0.180817 0.974609
vt 0.180817 0.952220
vt 0.001001 0.952220
vt 0.885363 0.779487
vt 0.885363 0.586367
vt 0.864637 0.586367
vt 0.864637 0.779487
vt 0.182819 0.974609
vt 0.362635 0.974609
vt 0.362635 0.952220
vt 0.182819 0.952220
vt 0.908090 0.194121
vt 0.908090 0.001001
vt 0.887365 0.001001
vt 0.887365 0.194121
vt 0.364637 0.974609
vt 0.544454 0.974609
vt 0.544454 0.952220
vt 0.364637 0.952220
vt 0.908090 0.389243
vt 0.908090 0.196123
vt 0.887365 0.196123
vt 0.887365 0.389243
vt 0.546456 0.974609
vt 0.726272 0.974609
vt 0.726272 0.952220
vt 0.546456 0.952220
vt 0.908090 0.584365
vt 0.908090 0.391245
vt 0.887365 0.391245
vt 0.887365 0.584365
vt 0.728274 0.803877
vt 0.908090 0.803877
vt 0.908090 0.781489
vt 0.728274 0.781489
vt 0.908090 0.779487
vt 0.908090 0.586367
vt 0.887365 0.586367
vt 0.887365 0.779487
vt 0.728274 0.828267
vt 0.908090 0.828267
vt 0.908090 0.805879
vt 0.728274 0.805879
vt 0.930817 0.194121
vt 0.930817 0.001001
vt 0.910092 0.001001
vt 0.910092 0.194121
vt 0.728274 0.852658
vt 0.908090 0.852658
vt 0.908090 0.830269
vt 0.728274 0.830269
vt 0.930817 0.389243
vt 0.930817 0.196123
vt 0.910092 0.196123
vt 0.910092 0.389243
vt 0.728274 0.877048
vt 0.908090 0.877048
vt 0.908090 0.854660
vt 0.728274 0.854660
vt 0.930817 0.584365
vt 0.930817 0.391245
vt 0.910092 0.391245
vt 0.910092 0.584365
vt 0.728274 0.901438
vt 0.908090 0.901438
vt 0.908090 0.879050
vt 0.728274 0.879050
vt 0.589908 0.486804
vt 0.589908 0.293684
vt 0.546456 0.293684
vt 0.546456 0.486804
vt 0.546456 0.584365
vt 0.726272 0.584365
vt 0.726272 0.537586
vt 0.546456 0.537586
vt 0.680817 0.291682
vt 0.680817 0.098562
vt 0.637365 0.098562
vt 0.637365 0.291682
vt 0.001001 0.828267
vt 0.180817 0.828267
vt 0.180817 0.781489
vt 0.001001 0.781489
vt 0.726272 0.486804
vt 0.726272 0.293684
vt 0.682819 0.293684
vt 0.682819 0.486804
vt 0.364637 0.828267
vt 0.544454 0.828267
vt 0.544454 0.781489
vt 0.364637 0.781489
vt 0.771726 0.779487
vt 0.771726 0.586367
vt 0.728274 0.586367
vt 0.728274 0.779487
vt 0.546456 0.828267
vt 0.726272 0.828267
vt 0.726272 0.781489
vt 0.546456 0.781489
vt 0.544454 0.730706
vt 0.544454 0.683928
vt 0.364637 0.683928
vt 0.364637 0.730706
vt 0.726272 0.535584
vt 0.726272 0.488806
vt 0.546456 0.488806
vt 0.546456 0.535584
vt 0.544454 0.779487
vt 0.544454 0.732708
vt 0.364637 0.732708
vt 0.364637 0.779487
vt 0.726272 0.633145
vt 0.726272 0.586367
vt 0.546456 0.586367
vt 0.546456 0.633145
vt 0.726272 0.681926
vt 0.726272 0.635147
vt 0.546456 0.635147
vt 0.546456 0.681926
vt 0.726272 0.730706
vt 0.726272 0.683928
vt 0.546456 0.683928
vt 0.546456 0.730706
vt 0.726272 0.779487
vt 0.726272 0.732708
vt 0.546456 0.732708
vt 0.546456 0.779487
vt 0.362635 0.828267
vt 0.362635 0.781489
vt 0.182819 0.781489
vt 0.182819 0.828267
vt 0.771726 0.391245
vt 0.728274 0.391245
vt 0.728274 0.584365
vt 0.771726 0.584365
vt 0.544454 0.291682
vt 0.544454 0.196123
vt 0.364637 0.196123
vt 0.364637 0.291682
vt 0.771726 0.196123
vt 0.728274 0.196123
vt 0.728274 0.389243
vt 0.771726 0.389243
vt 0.544454 0.486804
vt 0.544454 0.391245
vt 0.364637 0.391245
vt 0.364637 0.486804
vt 0.771726 0.001001
vt 0.728274 0.001001
vt 0.728274 0.194121
vt 0.771726 0.194121
vt 0.544454 0.389243
vt 0.544454 0.293684
vt 0.364637 0.293684
vt 0.364637 0.389243
vt 0.726272 0.098562
vt 0.682819 0.098562
vt 0.682819 0.291682
vt 0.726272 0.291682
vt 0.544454 0.096560
vt 0.544454 0.001001
vt 0.364637 0.001001
vt 0.364637 0.096560
vt 0.680817 0.293684
vt 0.637365 0.293684
vt 0.637365 0.486804
vt 0.680817 0.486804
vt 0.544454 0.194121
vt 0.544454 0.098562
vt 0.364637 0.098562
vt 0.364637 0.194121
vt 0.635363 0.293684
vt 0.591910 0.293684
vt 0.591910 0.486804
vt 0.635363 0.486804
vt 0.726272 0.096560
vt 0.726272 0.001001
vt 0.546456 0.001001
vt 0.546456 0.096560
vt 0.635363 0.098562
vt 0.591910 0.098562
vt 0.591910 0.291682
vt 0.635363 0.291682
vt 0.544454 0.584365
vt 0.544454 0.488806
vt 0.364637 0.488806
vt 0.364637 0.584365
vt 0.589908 0.098562
vt 0.546456 0.098562
vt 0.546456 0.291682
vt 0.589908 0.291682
vt 0.544454 0.681926
vt 0.544454 0.586367
vt 0.364637 0.586367
vt 0.364637 0.681926
vn -0.9239 0.0000 0.3827
vn 0.0000 -1.0000 0.0000
vn 0.9239 0.0000 -0.3827
vn 0.0000 1.0000 -0.0000
vn 0.3827 0.0000 -0.9239
vn -0.3827 0.0000 0.9239
vn 0.9239 0.0000 0.3827
vn 0.3827 0.0000 0.9239
vn -0.9239 0.0000 -0.3827
vn -0.3827 0.0000 -0.9239
vn -0.2309 -0.7974 0.5575
vn -0.5575 -0.7974 0.2309
vn -0.5575 -0.7974 -0.2309
vn -0.2309 -0.7974 -0.5575
vn 0.2309 -0.7974 -0.5575
vn 0.5575 -0.7974 -0.2309
vn 0.5575 -0.7974 0.2309
vn 0.2309 -0.7974 0.5575
vn -0.3225 0.5382 -0.7787
vn -0.7787 0.5382 -0.3225
vn -0.7787 0.5382 0.3225
vn -0.3225 0.5382 0.7787
vn 0.3225 0.5382 0.7787
vn 0.7787 0.5382 0.3225
vn 0.7787 0.5382 -0.3225
vn 0.3225 0.5382 -0.7787
vn 0.3225 -0.5382 -0.7787
vn 0.7787 -0.5382 -0.3225
vn 0.7787 -0.5382 0.3225
vn 0.3225 -0.5382 0.7787
vn -0.3225 -0.5382 0.7787
vn -0.7787 -0.5382 0.3225
vn -0.7787 -0.5382 -0.3225
vn -0.3225 -0.5382 -0.7787
usemtl light_grey
s off
f 115/1/1 114/2/1 66/3/1 69/4/1
f 31/5/2 29/6/2 63/7/2 64/8/2
f 12/9/3 14/10/3 81/11/3 71/12/3
f 30/13/4 32/14/4 56/15/4 53/16/4
f 19/17/2 18/18/2 37/19/2 58/20/2
f 35/21/5 36/22/5 89/23/5 88/24/5
f 4/25/4 2/26/4 16/27/4 14/28/4 12/29/4 10/30/4 8/31/4 6/32/4
f 18/33/2 31/34/2 64/35/2 37/36/2
f 49/37/6 46/38/6 87/39/6 72/40/6
f 1/41/2 3/42/2 5/43/2 7/44/2 9/45/2 11/46/2 13/47/2 15/48/2
f 17/49/4 20/50/4 38/51/4 57/52/4
f 119/53/3 118/54/3 79/55/3 80/56/3
f 32/57/4 17/58/4 57/59/4 56/60/4
f 33/61/5 34/62/5 75/63/5 78/64/5
f 21/65/2 19/66/2 58/67/2 59/68/2
f 20/69/4 22/70/4 41/71/4 38/72/4
f 45/73/6 48/74/6 84/75/6 85/76/6
f 23/77/2 21/78/2 59/79/2 60/80/2
f 37/81/5 36/82/5 35/83/5 58/84/5
f 58/85/3 35/86/3 40/87/3 59/88/3
f 59/89/7 40/90/7 43/91/7 60/92/7
f 60/93/8 43/94/8 46/95/8 61/96/8
f 61/97/6 46/98/6 49/99/6 62/100/6
f 62/101/1 49/102/1 52/103/1 63/104/1
f 63/105/9 52/106/9 55/107/9 64/108/9
f 64/109/10 55/110/10 36/111/10 37/112/10
f 54/113/10 56/114/10 57/115/10 33/116/10
f 51/117/9 53/118/9 56/119/9 54/120/9
f 48/121/1 50/122/1 53/123/1 51/124/1
f 45/125/6 47/126/6 50/127/6 48/128/6
f 42/129/8 44/130/8 47/131/8 45/132/8
f 39/133/7 41/134/7 44/135/7 42/136/7
f 34/137/3 38/138/3 41/139/3 39/140/3
f 33/141/5 57/142/5 38/143/5 34/144/5
f 28/145/4 30/146/4 53/147/4 50/148/4
f 2/149/6 4/150/6 67/151/6 68/152/6
f 29/153/2 27/154/2 62/155/2 63/156/2
f 10/157/5 12/158/5 71/159/5 77/160/5
f 114/161/6 113/162/6 65/163/6 66/164/6
f 26/165/4 28/166/4 50/167/4 47/168/4
f 46/169/8 43/170/8 86/171/8 87/172/8
f 27/173/2 25/174/2 61/175/2 62/176/2
f 118/177/5 117/178/5 76/179/5 79/180/5
f 24/181/4 26/182/4 47/183/4 44/184/4
f 42/185/8 45/186/8 85/187/8 92/188/8
f 36/189/10 55/190/10 96/191/10 89/192/10
f 25/193/2 23/194/2 60/195/2 61/196/2
f 8/197/10 10/198/10 77/199/10 74/200/10
f 22/201/4 24/202/4 44/203/4 41/204/4
f 54/205/10 33/206/10 78/207/10 95/208/10
f 71/209/4 81/210/4 94/211/4 72/212/4
f 80/213/2 79/214/2 84/215/2 93/216/2
f 68/217/4 67/218/4 88/219/4 89/220/4
f 77/221/4 71/222/4 72/223/4 87/224/4
f 66/225/2 65/226/2 78/227/2 75/228/2
f 79/229/2 76/230/2 85/231/2 84/232/2
f 74/233/4 77/234/4 87/235/4 86/236/4
f 69/237/2 66/238/2 75/239/2 90/240/2
f 67/241/4 70/242/4 91/243/4 88/244/4
f 82/245/2 80/246/2 93/247/2 95/248/2
f 81/249/4 83/250/4 96/251/4 94/252/4
f 73/253/2 69/254/2 90/255/2 92/256/2
f 70/257/4 74/258/4 86/259/4 91/260/4
f 65/261/2 82/262/2 95/263/2 78/264/2
f 83/265/4 68/266/4 89/267/4 96/268/4
f 76/269/2 73/270/2 92/271/2 85/272/2
f 48/273/1 51/274/1 93/275/1 84/276/1
f 4/277/1 6/278/1 70/279/1 67/280/1
f 120/281/7 119/282/7 80/283/7 82/284/7
f 52/285/1 49/286/1 72/287/1 94/288/1
f 34/289/3 39/290/3 90/291/3 75/292/3
f 14/293/7 16/294/7 83/295/7 81/296/7
f 116/297/9 115/298/9 69/299/9 73/300/9
f 40/301/3 35/302/3 88/303/3 91/304/3
f 51/305/9 54/306/9 95/307/9 93/308/9
f 6/309/9 8/310/9 74/311/9 70/312/9
f 113/313/8 120/314/8 82/315/8 65/316/8
f 55/317/9 52/318/9 94/319/9 96/320/9
f 39/321/7 42/322/7 92/323/7 90/324/7
f 16/325/8 2/326/8 68/327/8 83/328/8
f 117/329/10 116/330/10 73/331/10 76/332/10
f 43/333/7 40/334/7 91/335/7 86/336/7
f 3/337/11 1/338/11 113/339/11 114/340/11
f 5/341/12 3/342/12 114/343/12 115/344/12
f 7/345/13 5/346/13 115/347/13 116/348/13
f 9/349/14 7/350/14 116/351/14 117/352/14
f 11/353/15 9/354/15 117/355/15 118/356/15
f 13/357/16 11/358/16 118/359/16 119/360/16
f 15/361/17 13/362/17 119/363/17 120/364/17
f 1/365/18 15/366/18 120/367/18 113/368/18
usemtl red
f 111/369/19 31/370/19 18/371/19 98/372/19
f 109/373/20 29/374/20 31/375/20 111/376/20
f 107/377/21 27/378/21 29/379/21 109/380/21
f 105/381/22 25/382/22 27/383/22 107/384/22
f 103/385/23 23/386/23 25/387/23 105/388/23
f 101/389/24 21/390/24 23/391/24 103/392/24
f 99/393/25 19/394/25 21/395/25 101/396/25
f 98/397/26 18/398/26 19/399/26 99/400/26
f 17/401/27 97/402/27 100/403/27 20/404/27
f 97/405/5 98/406/5 99/407/5 100/408/5
f 20/409/28 100/410/28 102/411/28 22/412/28
f 100/413/3 99/414/3 101/415/3 102/416/3
f 22/417/29 102/418/29 104/419/29 24/420/29
f 102/421/7 101/422/7 103/423/7 104/424/7
f 24/425/30 104/426/30 106/427/30 26/428/30
f 104/429/8 103/430/8 105/431/8 106/432/8
f 26/433/31 106/434/31 108/435/31 28/436/31
f 106/437/6 105/438/6 107/439/6 108/440/6
f 28/441/32 108/442/32 110/443/32 30/444/32
f 108/445/1 107/446/1 109/447/1 110/448/1
f 30/449/33 110/450/33 112/451/33 32/452/33
f 110/453/9 109/454/9 111/455/9 112/456/9
f 32/457/34 112/458/34 97/459/34 17/460/34
f 112/461/10 111/462/10 98/463/10 97/464/10
