# Blender v2.80 (sub 75) OBJ File: 'street props pack.blend'
# www.blender.org
mtllib concerete wall.mtl
o Cube.005
v -1.142076 -0.172793 34.671902
v -1.142076 -0.172793 28.902767
v 0.810796 -0.172793 34.671902
v 0.810796 -0.172793 28.902767
v -0.732286 1.467365 34.671902
v -0.732286 1.467365 28.902767
v 0.401006 1.467365 28.902767
v 0.401006 1.467365 34.671902
v -0.663058 3.107523 34.671902
v -0.732286 3.038296 34.671902
v -0.732286 3.038296 28.902767
v -0.663058 3.107523 28.902767
v 0.401006 3.038296 34.671902
v 0.331779 3.107523 34.671902
v 0.331779 3.107523 28.902767
v 0.401006 3.038296 28.902767
v 0.810225 -0.170508 33.826408
v -1.141505 -0.170508 33.826408
v 0.810225 -0.170508 33.461639
v -1.141505 -0.170508 33.461639
v 0.758436 0.036777 33.461639
v -1.089715 0.036777 33.461639
v 0.758436 0.036777 33.826408
v -1.089715 0.036777 33.826408
v 0.758436 0.036777 29.748260
v -1.089715 0.036777 29.748260
v -1.091632 0.029106 29.748260
v 0.758436 0.036777 30.113028
v -1.089715 0.036777 30.113028
v 0.810225 -0.170508 30.113028
v -1.141505 -0.170508 30.113028
v 0.810225 -0.170508 29.748260
v -1.141505 -0.170508 29.748260
v -0.165640 -0.170508 30.113028
v -0.165640 -0.170508 29.748260
v -0.165640 -0.170508 33.461639
v -0.165640 -0.170508 33.826408
v -1.028016 -0.170508 30.113028
v -1.028016 -0.170508 29.748260
v -1.028016 -0.170508 33.461639
v 0.696737 -0.170508 33.826408
v 0.696737 -0.170508 30.113028
v 0.696737 -0.170508 29.748260
v 0.696737 -0.170508 33.461639
v -1.028016 -0.170508 33.826408
v -0.165640 0.036777 33.826408
v -0.165640 0.036777 30.113028
v -0.165640 0.036777 33.461639
v -0.165640 0.036777 29.748260
v -0.982249 0.036777 33.826408
v 0.650970 0.036777 30.113028
v 0.650970 0.036777 33.461639
v 0.650970 0.036777 29.748260
v 0.650970 0.036777 33.826408
v -0.982249 0.036777 30.113028
v -0.982249 0.036777 33.461639
v -0.982249 0.036777 29.748260
vt 0.776777 0.223223
vt 0.667668 0.223223
vt 0.667668 0.665666
vt 0.776777 0.665666
vt 0.443443 0.665666
vt 0.443443 0.445445
vt 0.001001 0.445445
vt 0.001001 0.665666
vt 0.443443 0.001001
vt 0.223223 0.001001
vt 0.223223 0.443443
vt 0.443443 0.443443
vt 0.943443 0.057558
vt 0.890891 0.165666
vt 0.943443 0.165666
vt 0.445445 0.778779
vt 0.656371 0.778779
vt 0.665666 0.785444
vt 0.665666 0.881223
vt 0.656371 0.887888
vt 0.445445 0.887888
vt 0.665666 0.223223
vt 0.445445 0.223223
vt 0.445445 0.443443
vt 0.665666 0.443443
vt 0.223223 0.997998
vt 0.223223 0.945445
vt 0.331331 0.945445
vt 0.665666 0.445445
vt 0.445445 0.445445
vt 0.445445 0.665666
vt 0.665666 0.665666
vt 0.221221 0.443443
vt 0.001001 0.443443
vt 0.001001 0.001001
vt 0.221221 0.001001
vt 0.194113 0.065843
vt 0.193083 0.065843
vt 0.193083 0.093817
vt 0.220914 0.093817
vt 0.220914 0.350627
vt 0.193083 0.350627
vt 0.193083 0.378601
vt 0.001001 0.943443
vt 0.443443 0.943443
vt 0.443443 0.889890
vt 0.001001 0.889890
vt 0.832332 0.665666
vt 0.832332 0.223223
vt 0.778779 0.223223
vt 0.778779 0.665666
vt 0.445445 0.667668
vt 0.656371 0.667668
vt 0.665666 0.674333
vt 0.665666 0.770112
vt 0.656371 0.776777
vt 0.445445 0.776777
vt 0.887888 0.223223
vt 0.887888 0.236029
vt 0.887888 0.333333
vt 0.887888 0.430638
vt 0.887888 0.443443
vt 0.834334 0.437600
vt 0.834334 0.425474
vt 0.834334 0.333333
vt 0.834334 0.241193
vt 0.834334 0.229067
vt 0.836316 0.228851
vt 0.445446 0.221221
vt 0.446062 0.188947
vt 0.501978 0.188947
vt 0.501978 0.175023
vt 0.446062 0.175023
vt 0.446062 0.047199
vt 0.501978 0.047199
vt 0.501978 0.033275
vt 0.445445 0.001001
vt 0.887888 0.001001
vt 0.887888 0.221221
vt 0.832332 0.667668
vt 0.832332 0.680473
vt 0.832332 0.777778
vt 0.832332 0.875083
vt 0.832332 0.887888
vt 0.778779 0.882044
vt 0.778779 0.869919
vt 0.778779 0.777778
vt 0.778779 0.685637
vt 0.778779 0.673511
vt 0.943443 0.667668
vt 0.889890 0.667668
vt 0.889890 0.721221
vt 0.943443 0.721221
vt 0.943443 0.723223
vt 0.889890 0.723223
vt 0.889890 0.776777
vt 0.943443 0.776777
vt 0.887888 0.891311
vt 0.887888 0.894260
vt 0.887888 0.916667
vt 0.887888 0.939074
vt 0.887888 0.942022
vt 0.667668 0.943443
vt 0.667668 0.940329
vt 0.667668 0.916667
vt 0.667668 0.893004
vt 0.667668 0.889890
vt 0.889890 0.056557
vt 0.889890 0.164665
vt 0.942442 0.056557
vt 0.834334 0.665666
vt 0.834334 0.652860
vt 0.834334 0.555556
vt 0.834334 0.458251
vt 0.834334 0.445445
vt 0.887888 0.451289
vt 0.887888 0.463415
vt 0.887888 0.555556
vt 0.887888 0.647696
vt 0.887888 0.659822
vt 0.665666 0.889890
vt 0.665666 0.998999
vt 0.445446 0.998967
vt 0.445445 0.992626
vt 0.445445 0.944444
vt 0.445445 0.896263
vt 0.445445 0.889922
vt 0.776777 0.667668
vt 0.776777 0.887888
vt 0.667668 0.887824
vt 0.667668 0.875026
vt 0.667668 0.777778
vt 0.667668 0.680530
vt 0.667668 0.667732
vt 0.001001 0.887888
vt 0.443443 0.887888
vt 0.443443 0.667668
vt 0.001001 0.667668
vt 0.943443 0.387888
vt 0.943443 0.278779
vt 0.889890 0.278779
vt 0.889890 0.387888
vt 0.889890 0.054555
vt 0.998999 0.054555
vt 0.998999 0.001001
vt 0.889890 0.001001
vt 0.943443 0.612112
vt 0.889890 0.612112
vt 0.889890 0.665666
vt 0.943443 0.665666
vt 0.943443 0.389890
vt 0.889890 0.389890
vt 0.889890 0.443443
vt 0.943443 0.443443
vt 0.943443 0.276777
vt 0.943443 0.167668
vt 0.889890 0.167668
vt 0.889890 0.276777
vt 0.334334 0.998999
vt 0.443443 0.998999
vt 0.443443 0.945445
vt 0.334334 0.945445
vt 0.943443 0.778779
vt 0.889890 0.778779
vt 0.889890 0.832332
vt 0.943443 0.832332
vt 0.887888 0.887888
vt 0.887888 0.667668
vt 0.834334 0.667668
vt 0.834334 0.887888
vt 0.943443 0.445445
vt 0.889890 0.445445
vt 0.889890 0.498999
vt 0.943443 0.498999
vt 0.943443 0.501001
vt 0.889890 0.501001
vt 0.889890 0.554555
vt 0.943443 0.554555
vt 0.943443 0.556557
vt 0.889890 0.556557
vt 0.889890 0.610110
vt 0.943443 0.610110
vt 0.221221 0.998999
vt 0.221221 0.945445
vt 0.001001 0.945445
vt 0.001001 0.998999
vn 0.0000 1.0000 0.0000
vn 1.0000 0.0000 0.0000
vn -1.0000 0.0000 0.0000
vn 0.9702 0.2424 -0.0000
vn 0.0000 0.0000 -1.0000
vn 0.0000 0.0000 1.0000
vn -0.9702 0.2424 0.0000
vn -0.7071 0.7071 0.0000
vn 0.7071 0.7071 0.0000
vn 0.0000 -1.0000 0.0000
vn 0.0000 -1.0000 0.0027
vn 0.0000 -1.0000 -0.0027
vn 0.9765 0.2156 0.0000
vn 0.9765 -0.2156 0.0000
usemtl Grey
s off
f 15/1/1 12/2/1 9/3/1 14/4/1
f 7/5/2 16/6/2 13/7/2 8/8/2
f 5/9/3 10/10/3 11/11/3 6/12/3
f 4/13/4 25/14/4 32/15/4
f 6/16/5 11/17/5 12/18/5 15/19/5 16/20/5 7/21/5
f 3/22/6 8/23/6 5/24/6 1/25/6
f 2/26/7 33/27/7 27/28/7
f 2/29/5 6/30/5 7/31/5 4/32/5
f 1/33/7 5/34/7 6/35/7 2/36/7 27/37/7 26/38/7 29/39/7 31/40/7 20/41/7 22/42/7 24/43/7
f 9/44/8 12/45/8 11/46/8 10/47/8
f 15/48/9 14/49/9 13/50/9 16/51/9
f 8/52/6 13/53/6 14/54/6 9/55/6 10/56/6 5/57/6
f 33/58/6 39/59/6 35/60/6 43/61/6 32/62/6 25/63/6 53/64/6 49/65/6 57/66/6 26/67/6 27/68/6
f 3/69/4 17/70/4 23/71/4 21/72/4 19/73/4 30/74/4 28/75/4 25/76/4 4/77/4 7/78/4 8/79/4
f 20/80/6 40/81/6 36/82/6 44/83/6 19/84/6 21/85/6 52/86/6 48/87/6 56/88/6 22/89/6
f 50/90/10 24/91/10 22/92/10 56/93/10
f 55/94/10 29/95/10 26/96/10 57/97/10
f 29/98/5 55/99/5 47/100/5 51/101/5 28/102/5 30/103/5 42/104/5 34/105/5 38/106/5 31/107/5
f 18/108/7 1/109/7 24/110/7
f 17/111/5 41/112/5 37/113/5 45/114/5 18/115/5 24/116/5 50/117/5 46/118/5 54/119/5 23/120/5
f 2/121/11 4/122/11 32/123/11 43/124/11 35/125/11 39/126/11 33/127/11
f 3/128/12 1/129/12 18/130/12 45/131/12 37/132/12 41/133/12 17/134/12
f 30/135/10 19/136/10 20/137/10 31/138/10
f 51/139/10 47/140/10 49/141/10 53/142/10
f 54/143/10 46/144/10 48/145/10 52/146/10
f 23/147/10 54/148/10 52/149/10 21/150/10
f 28/151/10 51/152/10 53/153/10 25/154/10
f 47/155/10 55/156/10 57/157/10 49/158/10
f 46/159/10 50/160/10 56/161/10 48/162/10
f 54/163/13 41/164/13 44/165/13 52/166/13
f 40/167/10 44/168/10 41/169/10 45/170/10
f 45/171/14 40/172/14 56/173/14 50/174/14
f 39/175/14 57/176/14 55/177/14 38/178/14
f 43/179/13 53/180/13 51/181/13 42/182/13
f 43/183/10 42/184/10 38/185/10 39/186/10
