# Blender v2.80 (sub 75) OBJ File: 'street props pack.blend'
# www.blender.org
mtllib flower pot.mtl
o Cylinder.016_Cylinder.017
v 0.645951 0.273458 3.298307
v 0.645951 0.716126 3.218929
v 0.842591 0.273458 3.411837
v 0.911335 0.716126 3.372148
v 0.842591 0.273458 3.638897
v 0.911335 0.716126 3.678586
v 0.645951 0.273458 3.752428
v 0.645951 0.716126 3.831805
v 0.449311 0.273458 3.638897
v 0.380568 0.716126 3.678586
v 0.449311 0.273458 3.411837
v 0.380568 0.716126 3.372148
v 0.911335 0.819229 3.372148
v 0.645951 0.819229 3.218929
v 0.911335 0.819229 3.678586
v 0.645951 0.819229 3.831805
v 0.380568 0.819229 3.678586
v 0.380568 0.819229 3.372148
v 0.944548 0.716126 3.352973
v 0.645951 0.716126 3.180578
v 0.944548 0.716126 3.697762
v 0.645951 0.716126 3.870157
v 0.347355 0.716126 3.697762
v 0.347355 0.716126 3.352973
v 0.944548 0.819229 3.352973
v 0.645951 0.819229 3.180578
v 0.944548 0.819229 3.697762
v 0.645951 0.819229 3.870157
v 0.347355 0.819229 3.697762
v 0.347355 0.819229 3.352973
v 0.823811 0.291779 3.422680
v 0.645951 0.291779 3.319993
v 0.823811 0.291779 3.628055
v 0.645951 0.291779 3.730742
v 0.468092 0.291779 3.628054
v 0.468092 0.291779 3.422680
vt 0.776777 0.887888
vt 0.776777 0.667668
vt 0.667668 0.667668
vt 0.667668 0.887888
vt 0.001001 0.554555
vt 0.221221 0.554555
vt 0.221221 0.445445
vt 0.001001 0.445445
vt 0.554555 0.221221
vt 0.554555 0.001001
vt 0.445445 0.001001
vt 0.445445 0.221221
vt 0.223223 0.110110
vt 0.443443 0.110110
vt 0.443443 0.001001
vt 0.223223 0.001001
vt 0.332332 0.332332
vt 0.332332 0.112112
vt 0.223223 0.112112
vt 0.223223 0.332332
vt 0.223223 0.443443
vt 0.443443 0.443443
vt 0.443443 0.334334
vt 0.223223 0.334334
vt 0.443443 0.332332
vt 0.443443 0.112112
vt 0.334334 0.112112
vt 0.334334 0.332332
vt 0.001001 0.166166
vt 0.001001 0.056056
vt 0.111111 0.001001
vt 0.221221 0.056056
vt 0.221221 0.166166
vt 0.111111 0.221221
vt 0.443443 0.554555
vt 0.443443 0.445445
vt 0.223223 0.445445
vt 0.223223 0.554555
vt 0.554555 0.443443
vt 0.554555 0.223223
vt 0.445445 0.223223
vt 0.445445 0.443443
vt 0.001001 0.665666
vt 0.221221 0.665666
vt 0.221221 0.556557
vt 0.001001 0.556557
vt 0.665666 0.221221
vt 0.665666 0.001001
vt 0.556557 0.001001
vt 0.556557 0.221221
vt 0.223223 0.665666
vt 0.443443 0.665666
vt 0.443443 0.556557
vt 0.223223 0.556557
vt 0.665666 0.443443
vt 0.665666 0.223223
vt 0.556557 0.223223
vt 0.556557 0.443443
vt 0.445445 0.554555
vt 0.665666 0.554555
vt 0.665666 0.445445
vt 0.445445 0.445445
vt 0.776777 0.221221
vt 0.776777 0.001001
vt 0.667668 0.001001
vt 0.667668 0.221221
vt 0.445445 0.665666
vt 0.665666 0.665666
vt 0.665666 0.556557
vt 0.445445 0.556557
vt 0.776777 0.443443
vt 0.776777 0.223223
vt 0.667668 0.223223
vt 0.667668 0.443443
vt 0.001001 0.776777
vt 0.221221 0.776777
vt 0.221221 0.667668
vt 0.001001 0.667668
vt 0.776777 0.665666
vt 0.776777 0.445445
vt 0.667668 0.445445
vt 0.667668 0.665666
vt 0.223223 0.776777
vt 0.443443 0.776777
vt 0.443443 0.667668
vt 0.223223 0.667668
vt 0.887888 0.221221
vt 0.887888 0.001001
vt 0.778779 0.001001
vt 0.778779 0.221221
vt 0.445445 0.776777
vt 0.665666 0.776777
vt 0.665666 0.667668
vt 0.445445 0.667668
vt 0.887888 0.443443
vt 0.887888 0.223223
vt 0.778779 0.223223
vt 0.778779 0.443443
vt 0.001001 0.887888
vt 0.221221 0.887888
vt 0.221221 0.778779
vt 0.001001 0.778779
vt 0.887888 0.665666
vt 0.887888 0.445445
vt 0.778779 0.445445
vt 0.778779 0.665666
vt 0.001001 0.388388
vt 0.001001 0.278278
vt 0.111111 0.223223
vt 0.221221 0.278278
vt 0.221221 0.388388
vt 0.111111 0.443443
vt 0.443443 0.887888
vt 0.443443 0.778779
vt 0.223223 0.778779
vt 0.223223 0.887888
vt 0.887888 0.667668
vt 0.778779 0.667668
vt 0.778779 0.887888
vt 0.887888 0.887888
vt 0.665666 0.887888
vt 0.665666 0.778779
vt 0.445445 0.778779
vt 0.445445 0.887888
vt 0.998999 0.001001
vt 0.889890 0.001001
vt 0.889890 0.221221
vt 0.998999 0.221221
vt 0.221221 0.998999
vt 0.221221 0.889890
vt 0.001001 0.889890
vt 0.001001 0.998999
vn 0.4941 -0.1535 -0.8558
vn 0.9882 -0.1535 0.0000
vn 0.4941 -0.1535 0.8558
vn -0.4941 -0.1535 0.8558
vn 0.0000 1.0000 0.0000
vn -0.9882 -0.1535 0.0000
vn -0.4941 -0.1535 -0.8558
vn 0.0000 -1.0000 0.0000
vn 0.9865 0.1637 0.0000
vn -0.5000 0.0000 0.8660
vn 1.0000 -0.0000 0.0000
vn -1.0000 0.0000 0.0000
vn 0.5000 0.0000 -0.8660
vn 0.5000 0.0000 0.8660
vn -0.5000 0.0000 -0.8660
vn -0.4933 0.1637 -0.8543
vn -0.4933 0.1637 0.8543
vn 0.4933 0.1637 0.8543
vn 0.4933 0.1637 -0.8543
vn -0.9865 0.1637 -0.0000
usemtl Brick_red
s off
f 1/1/1 2/2/1 4/3/1 3/4/1
f 3/5/2 4/6/2 6/7/2 5/8/2
f 5/9/3 6/10/3 8/11/3 7/12/3
f 7/13/4 8/14/4 10/15/4 9/16/4
f 16/17/5 17/18/5 29/19/5 28/20/5
f 9/21/6 10/22/6 12/23/6 11/24/6
f 11/25/7 12/26/7 2/27/7 1/28/7
f 1/29/8 3/30/8 5/31/8 7/32/8 9/33/8 11/34/8
f 18/35/9 17/36/9 35/37/9 36/38/9
f 12/39/8 10/40/8 23/41/8 24/42/8
f 2/43/8 12/44/8 24/45/8 20/46/8
f 15/47/5 16/48/5 28/49/5 27/50/5
f 18/51/5 14/52/5 26/53/5 30/54/5
f 13/55/5 15/56/5 27/57/5 25/58/5
f 23/59/10 22/60/10 28/61/10 29/62/10
f 21/63/11 19/64/11 25/65/11 27/66/11
f 24/67/12 23/68/12 29/69/12 30/70/12
f 19/71/13 20/72/13 26/73/13 25/74/13
f 22/75/14 21/76/14 27/77/14 28/78/14
f 20/79/15 24/80/15 30/81/15 26/82/15
f 10/83/8 8/84/8 22/85/8 23/86/8
f 4/87/8 2/88/8 20/89/8 19/90/8
f 14/91/5 13/92/5 25/93/5 26/94/5
f 8/95/8 6/96/8 21/97/8 22/98/8
f 17/99/5 18/100/5 30/101/5 29/102/5
f 6/103/8 4/104/8 19/105/8 21/106/8
f 31/107/5 32/108/5 36/109/5 35/110/5 34/111/5 33/112/5
f 16/113/16 15/114/16 33/115/16 34/116/16
f 13/117/17 14/118/17 32/119/17 31/120/17
f 14/121/18 18/122/18 36/123/18 32/124/18
f 17/125/19 16/126/19 34/127/19 35/128/19
f 15/129/20 13/130/20 31/131/20 33/132/20
