# Blender v2.80 (sub 75) OBJ File: 'street props pack.blend'
# www.blender.org
mtllib garbage dump.mtl
o Cube.007_Cube.008
v -2.083107 0.036039 68.007263
v -2.083107 3.740846 68.007263
v -2.083107 0.036039 61.340122
v -2.083107 3.740846 61.340122
v 2.083107 0.036039 68.007263
v 2.083107 3.593228 67.830399
v 2.083107 0.036039 61.340122
v 2.083107 3.593228 65.628624
v -2.083107 3.950202 68.007263
v -2.083107 3.950202 61.340122
v 2.036884 3.950202 61.340122
v 2.036884 3.950202 68.007263
v -2.298241 3.740846 68.112358
v -2.298241 3.740846 61.235027
v 2.189208 3.740846 61.235027
v 2.189208 3.740846 68.112358
v -2.298241 3.950202 68.112358
v -2.298241 3.950202 61.235027
v 2.189208 3.950202 61.235027
v 2.189208 3.950202 68.112358
v 1.361331 1.788027 68.007263
v -0.521431 1.788027 68.007263
v 1.361331 2.890190 68.007263
v -0.521431 2.890190 68.007263
v -0.521431 1.788027 61.340122
v 1.361331 1.788027 61.340122
v -0.521431 2.890190 61.340122
v 1.361331 2.890190 61.340122
v 1.361331 1.972401 68.371262
v -0.521431 1.972401 68.371262
v 1.361331 2.705817 68.371262
v -0.521431 2.705817 68.371262
v -0.521431 1.972401 60.976116
v 1.361331 1.972401 60.976116
v -0.521431 2.705817 60.976116
v 1.361331 2.705817 60.976116
v -2.083107 3.950202 64.681305
v -2.083107 3.950202 64.666077
v -2.090721 3.950202 64.673691
v 2.036884 3.950202 64.666077
v 2.036884 3.950202 64.681305
v -2.099694 3.905701 61.787670
v -2.099694 3.905701 67.559715
v -2.142095 3.923265 61.787670
v -2.142095 3.923265 67.559715
v -2.159659 3.965667 61.787670
v -2.159659 3.965667 67.559715
v -2.142095 4.008068 61.787670
v -2.142095 4.008068 67.559715
v -2.099694 4.025632 61.787670
v -2.099694 4.025632 67.559715
v -2.057292 4.008068 61.787670
v -2.057292 4.008068 67.559715
v -2.039728 3.965667 61.787670
v -2.039728 3.965667 67.559715
v -2.057292 3.923265 61.787670
v -2.057292 3.923265 67.559715
v -2.099694 3.905701 62.509174
v -2.099694 3.905701 63.457016
v -2.099694 3.905701 64.178520
v -2.099694 3.905701 65.192604
v -2.099694 3.905701 65.914108
v -2.099694 3.905701 66.838211
v -2.142095 3.923265 66.838211
v -2.142095 3.923265 65.914108
v -2.142095 3.923265 65.192604
v -2.142095 3.923265 64.178520
v -2.142095 3.923265 63.457016
v -2.142095 3.923265 62.509174
v -2.159659 3.965667 66.838211
v -2.159659 3.965667 65.914108
v -2.159659 3.965667 65.192604
v -2.159659 3.965667 64.178520
v -2.159659 3.965667 63.457016
v -2.159659 3.965667 62.509174
v -2.142095 4.008068 66.838211
v -2.142095 4.008068 65.914108
v -2.142095 4.008068 65.192596
v -2.142095 4.008068 64.178520
v -2.142095 4.008068 63.457016
v -2.142095 4.008068 62.509174
v -2.099694 4.025632 66.838211
v -2.099694 4.025632 65.914108
v -2.099694 4.025632 65.192604
v -2.099694 4.025632 64.178520
v -2.099694 4.025632 63.457016
v -2.099694 4.025632 62.509174
v -2.057292 4.008068 66.838211
v -2.057292 4.008068 65.914108
v -2.057292 4.008068 65.192596
v -2.057292 4.008068 64.178520
v -2.057292 4.008068 63.457016
v -2.057292 4.008068 62.509174
v -2.039728 3.965667 66.838211
v -2.039728 3.965667 65.914108
v -2.039728 3.965667 65.192604
v -2.039728 3.965667 64.178520
v -2.039728 3.965667 63.457016
v -2.039728 3.965667 62.509174
v -2.057292 3.923265 66.838211
v -2.057292 3.923265 65.914108
v -2.057292 3.923265 65.192604
v -2.057292 3.923265 64.178520
v -2.057292 3.923265 63.457016
v -2.057292 3.923265 62.509174
v -2.083107 4.059685 68.007263
v -2.083107 4.059685 61.340122
v -2.083107 4.059685 64.666077
v -2.083107 4.059685 64.681305
v 2.036884 4.048245 68.007263
v 2.036884 4.048245 61.340122
v 2.036884 4.048245 64.666077
v 2.036884 4.048245 64.681305
v -2.083107 3.950202 66.621445
v -2.083107 3.950202 66.067123
v -2.083107 3.950202 62.725937
v -2.083107 3.950202 63.280262
v 2.083107 0.036039 64.520386
v 2.083107 0.036039 61.616890
v -2.083107 0.036039 61.616890
v -2.083107 0.036039 64.520386
v 1.544399 0.036039 64.520386
v -2.083107 0.036039 64.846222
v -2.083107 0.036039 67.676056
v 1.544399 0.036039 64.846222
v 2.083107 0.036039 67.676056
v 2.083107 0.036039 64.846222
v 1.543711 0.036039 68.007263
v 1.543711 0.036039 61.340122
v 1.543711 0.036039 61.616890
v 1.543711 0.036039 67.676056
v -1.531148 0.036039 61.340122
v -1.531148 0.036039 68.007263
v -1.531148 0.036039 61.616890
v -1.531148 0.036039 67.676056
v -1.531786 0.036039 64.520386
v -1.531786 0.036039 64.846222
v -2.083107 -0.130202 67.676056
v -2.083107 -0.130202 68.007263
v -1.531148 -0.130202 61.340122
v -2.083107 -0.130202 61.340122
v 2.083107 -0.130202 61.616890
v 2.083107 -0.130202 61.340122
v 1.543711 -0.130202 68.007263
v 2.083107 -0.130202 68.007263
v 1.544399 -0.130202 64.520386
v 1.544399 -0.130202 64.846222
v 2.083107 -0.130202 64.520386
v -2.083107 -0.130202 61.616890
v -1.531148 -0.130202 61.616890
v 2.083107 -0.130202 64.846222
v 2.083107 -0.130202 67.676056
v -2.083107 -0.130202 64.520386
v -2.083107 -0.130202 64.846222
v -1.531148 -0.130202 67.676056
v 1.543711 -0.130202 61.340122
v 1.543711 -0.130202 61.616890
v 1.543711 -0.130202 67.676056
v -1.531148 -0.130202 68.007263
v -1.531786 -0.130202 64.520386
v -1.531786 -0.130202 64.846222
v 2.083107 1.788027 61.340122
v 2.083107 1.788027 68.007263
v 2.083107 3.740846 68.007263
v 2.083107 2.080796 65.628624
v 2.083107 3.740846 61.340122
v 2.083107 2.080796 67.830399
v 2.083107 3.412176 61.340122
v 2.083107 3.412176 68.007263
v 2.045019 2.080796 65.628624
v 2.045019 2.080796 67.830399
v 2.045019 3.593228 67.830399
v 2.045019 3.593228 65.628624
vt 0.944204 0.539540
vt 0.932508 0.532962
vt 0.932508 0.446228
vt 0.932508 0.411535
vt 0.932508 0.324801
vt 0.932508 0.323848
vt 0.932508 0.237114
vt 0.932508 0.202420
vt 0.932508 0.115687
vt 0.944204 0.109109
vt 0.437355 0.971972
vt 0.437355 0.960460
vt 0.001001 0.960460
vt 0.001001 0.971972
vt 0.930506 0.863864
vt 0.930506 0.649650
vt 0.905111 0.649650
vt 0.905111 0.863864
vt 0.658535 0.944945
vt 0.875711 0.944945
vt 0.875711 0.919920
vt 0.658535 0.919920
vt 0.903109 0.647648
vt 0.903109 0.217217
vt 0.891412 0.217217
vt 0.891412 0.647648
vt 0.001001 0.944945
vt 0.437355 0.944945
vt 0.437355 0.933433
vt 0.001001 0.933433
vt 0.930506 0.647648
vt 0.930506 0.217217
vt 0.918809 0.217217
vt 0.918809 0.647648
vt 0.875711 0.971972
vt 0.875711 0.960460
vt 0.439357 0.960460
vt 0.439357 0.971972
vt 0.916807 0.217217
vt 0.905111 0.217217
vt 0.905111 0.647648
vt 0.916807 0.647648
vt 0.439357 0.958458
vt 0.875711 0.958458
vt 0.875711 0.946947
vt 0.439357 0.946947
vt 0.875711 0.649650
vt 0.822919 0.649650
vt 0.822919 0.863864
vt 0.875711 0.863864
vt 0.218177 0.917918
vt 0.218177 0.865866
vt 0.001001 0.865866
vt 0.001001 0.917918
vt 0.903109 0.863864
vt 0.903109 0.649650
vt 0.877713 0.649650
vt 0.877713 0.863864
vt 0.548946 0.755756
vt 0.766122 0.755756
vt 0.766122 0.649650
vt 0.548946 0.649650
vt 0.546944 0.863864
vt 0.546944 0.649650
vt 0.439357 0.649650
vt 0.439357 0.863864
vt 0.658535 0.917918
vt 0.875711 0.917918
vt 0.875711 0.892893
vt 0.658535 0.892893
vt 0.973604 0.829079
vt 0.977450 0.825325
vt 0.973604 0.825325
vt 0.001001 0.978729
vt 0.437355 0.978729
vt 0.437355 0.973974
vt 0.001001 0.973974
vt 0.977031 0.845596
vt 0.978451 0.846988
vt 0.978451 0.848958
vt 0.977031 0.850350
vt 0.975024 0.850350
vt 0.973604 0.848958
vt 0.973604 0.846988
vt 0.975024 0.845596
vt 0.875711 0.890891
vt 0.875711 0.865866
vt 0.439357 0.865866
vt 0.439357 0.890891
vt 0.437355 0.431431
vt 0.437355 0.001001
vt 0.220179 0.001001
vt 0.220179 0.431431
vt 0.877713 0.917918
vt 0.985300 0.917918
vt 0.985300 0.865866
vt 0.877713 0.865866
vt 0.985300 0.001001
vt 0.932508 0.001001
vt 0.932508 0.107107
vt 0.985300 0.107107
vt 0.437355 0.433433
vt 0.437355 0.647648
vt 0.379545 0.647648
vt 0.001001 0.647648
vt 0.001001 0.546347
vt 0.076597 0.546347
vt 0.273791 0.546347
vt 0.273791 0.482619
vt 0.076597 0.482619
vt 0.001001 0.452437
vt 0.001001 0.433433
vt 0.656533 0.431431
vt 0.656533 0.001001
vt 0.439357 0.001001
vt 0.439357 0.431431
vt 0.439357 0.944945
vt 0.656533 0.944945
vt 0.656533 0.892893
vt 0.439357 0.892893
vt 0.930506 0.001001
vt 0.877713 0.001001
vt 0.877713 0.215215
vt 0.930506 0.215215
vt 0.437355 0.917918
vt 0.437355 0.865866
vt 0.220179 0.865866
vt 0.220179 0.917918
vt 0.820917 0.863864
vt 0.820917 0.649650
vt 0.768124 0.649650
vt 0.768124 0.863864
vt 0.001001 0.649650
vt 0.379545 0.649650
vt 0.437355 0.649650
vt 0.437355 0.863864
vt 0.001001 0.863864
vt 0.001001 0.844860
vt 0.076597 0.814678
vt 0.273791 0.814678
vt 0.273791 0.750951
vt 0.076597 0.750951
vt 0.001001 0.750951
vt 0.889410 0.217217
vt 0.877713 0.217217
vt 0.877713 0.647648
vt 0.889410 0.647648
vt 0.437355 0.958458
vt 0.437355 0.946947
vt 0.001001 0.946947
vt 0.001001 0.958458
vt 0.761237 0.001001
vt 0.856445 0.001001
vt 0.875711 0.001001
vt 0.875711 0.431431
vt 0.867058 0.420013
vt 0.867058 0.277867
vt 0.778399 0.277867
vt 0.778399 0.420013
vt 0.658535 0.431431
vt 0.658535 0.410049
vt 0.658535 0.227355
vt 0.658535 0.206319
vt 0.658535 0.018869
vt 0.658535 0.001001
vt 0.656533 0.992242
vt 0.439357 0.985889
vt 0.439357 0.981189
vt 0.656533 0.980731
vt 0.656533 0.981752
vt 0.656533 0.986798
vt 0.937355 0.755756
vt 0.937355 0.541542
vt 0.932508 0.541542
vt 0.932508 0.755756
vt 0.944204 0.755756
vt 0.944204 0.541542
vt 0.939357 0.541542
vt 0.939357 0.755756
vt 0.877713 0.978729
vt 0.985300 0.978729
vt 0.985300 0.973974
vt 0.877713 0.973974
vt 0.964752 0.485485
vt 0.964752 0.379379
vt 0.959905 0.379379
vt 0.959905 0.485485
vt 0.001001 0.931256
vt 0.001001 0.925688
vt 0.001001 0.925663
vt 0.001001 0.920096
vt 0.437355 0.919920
vt 0.437355 0.931431
vt 0.957903 0.539540
vt 0.957903 0.109109
vt 0.953056 0.109109
vt 0.953056 0.539540
vt 0.951054 0.541542
vt 0.946207 0.541542
vt 0.946207 0.755756
vt 0.951054 0.755756
vt 0.875711 0.978729
vt 0.875711 0.973974
vt 0.439357 0.973974
vt 0.439357 0.978729
vt 0.978451 0.715215
vt 0.978451 0.663163
vt 0.973604 0.663163
vt 0.973604 0.715215
vt 0.768124 0.992242
vt 0.820917 0.992242
vt 0.820917 0.987487
vt 0.768124 0.987487
vt 0.978451 0.661161
vt 0.978451 0.609109
vt 0.973604 0.609109
vt 0.973604 0.661161
vt 0.165385 0.992242
vt 0.218177 0.992242
vt 0.218177 0.987487
vt 0.165385 0.987487
vt 0.971602 0.228729
vt 0.971602 0.176677
vt 0.966754 0.176677
vt 0.966754 0.228729
vt 0.110590 0.992242
vt 0.163383 0.992242
vt 0.163383 0.987487
vt 0.110590 0.987487
vt 0.978451 0.855714
vt 0.977031 0.857107
vt 0.975024 0.857107
vt 0.973604 0.855714
vt 0.973604 0.853745
vt 0.975023 0.852352
vt 0.977031 0.852352
vt 0.978451 0.853745
vt 0.971602 0.174675
vt 0.971602 0.122623
vt 0.966754 0.122623
vt 0.966754 0.174675
vt 0.384563 0.992242
vt 0.437355 0.992242
vt 0.437355 0.987487
vt 0.384563 0.987487
vt 0.981873 0.845596
vt 0.983881 0.845596
vt 0.985300 0.846988
vt 0.985300 0.848958
vt 0.983881 0.850350
vt 0.981873 0.850350
vt 0.980453 0.848958
vt 0.980453 0.846988
vt 0.978451 0.201702
vt 0.978451 0.149650
vt 0.973604 0.149650
vt 0.973604 0.201702
vt 0.658535 0.992242
vt 0.711328 0.992242
vt 0.711328 0.987487
vt 0.658535 0.987487
vt 0.978451 0.431431
vt 0.978451 0.379379
vt 0.973604 0.379379
vt 0.973604 0.431431
vt 0.713330 0.992242
vt 0.766122 0.992242
vt 0.766122 0.987487
vt 0.713330 0.987487
vt 0.978451 0.607107
vt 0.978451 0.555055
vt 0.973604 0.555055
vt 0.973604 0.607107
vt 0.220179 0.992242
vt 0.272972 0.992242
vt 0.272972 0.987487
vt 0.220179 0.987487
vt 0.985300 0.431431
vt 0.985300 0.379379
vt 0.980453 0.379379
vt 0.980453 0.431431
vt 0.274974 0.998999
vt 0.327766 0.998999
vt 0.327766 0.994244
vt 0.274974 0.994244
vt 0.985300 0.201702
vt 0.985300 0.149650
vt 0.980453 0.149650
vt 0.980453 0.201702
vt 0.110590 0.998999
vt 0.163383 0.998999
vt 0.163383 0.994244
vt 0.110590 0.994244
vt 0.978451 0.823323
vt 0.978451 0.771271
vt 0.973604 0.771271
vt 0.973604 0.823323
vt 0.055796 0.998999
vt 0.108588 0.998999
vt 0.108588 0.994244
vt 0.055796 0.994244
vt 0.978451 0.769269
vt 0.978451 0.717217
vt 0.973604 0.717217
vt 0.973604 0.769269
vt 0.822919 0.992242
vt 0.875711 0.992242
vt 0.875711 0.987487
vt 0.822919 0.987487
vt 0.971602 0.485485
vt 0.971602 0.433433
vt 0.966754 0.433433
vt 0.966754 0.485485
vt 0.329768 0.992242
vt 0.382561 0.992242
vt 0.382561 0.987487
vt 0.329768 0.987487
vt 0.971602 0.431431
vt 0.971602 0.379379
vt 0.966754 0.379379
vt 0.966754 0.431431
vt 0.274974 0.992242
vt 0.327766 0.992242
vt 0.327766 0.987487
vt 0.274974 0.987487
vt 0.971602 0.282783
vt 0.971602 0.230731
vt 0.966754 0.230731
vt 0.966754 0.282783
vt 0.055796 0.992242
vt 0.108588 0.992242
vt 0.108588 0.987487
vt 0.055796 0.987487
vt 0.978451 0.512513
vt 0.978451 0.460460
vt 0.973604 0.460460
vt 0.973604 0.512513
vt 0.983881 0.843594
vt 0.981873 0.843594
vt 0.980453 0.842201
vt 0.980453 0.840231
vt 0.981873 0.838839
vt 0.983881 0.838839
vt 0.985300 0.840231
vt 0.985300 0.842201
vt 0.165385 0.998999
vt 0.218177 0.998999
vt 0.218177 0.994244
vt 0.165385 0.994244
vt 0.973604 0.840232
vt 0.975023 0.838839
vt 0.977031 0.838839
vt 0.978451 0.840231
vt 0.978451 0.842201
vt 0.977031 0.843594
vt 0.975024 0.843594
vt 0.973604 0.842201
vt 0.985300 0.512513
vt 0.985300 0.460460
vt 0.980453 0.460460
vt 0.980453 0.512513
vt 0.985300 0.835444
vt 0.983881 0.836837
vt 0.981873 0.836837
vt 0.980453 0.835444
vt 0.980453 0.833475
vt 0.981873 0.832082
vt 0.983881 0.832082
vt 0.985300 0.833475
vt 0.977031 0.832082
vt 0.978451 0.833475
vt 0.978451 0.835444
vt 0.977031 0.836837
vt 0.975023 0.836837
vt 0.973604 0.835444
vt 0.973604 0.833475
vt 0.975024 0.832082
vt 0.220179 0.998999
vt 0.272972 0.998999
vt 0.272972 0.994244
vt 0.220179 0.994244
vt 0.983881 0.830080
vt 0.981873 0.830080
vt 0.980453 0.828687
vt 0.980453 0.826718
vt 0.981873 0.825325
vt 0.983881 0.825325
vt 0.985300 0.826718
vt 0.985300 0.828687
vt 0.964752 0.109109
vt 0.959905 0.109109
vt 0.959905 0.323323
vt 0.964752 0.323323
vt 0.439357 0.647648
vt 0.875711 0.647648
vt 0.875711 0.433433
vt 0.439357 0.433433
vt 0.957903 0.541542
vt 0.953056 0.541542
vt 0.953056 0.755756
vt 0.957903 0.755756
vt 0.973604 0.282783
vt 0.998999 0.282783
vt 0.998999 0.271271
vt 0.973604 0.271271
vt 0.971602 0.647648
vt 0.971602 0.595596
vt 0.959905 0.595596
vt 0.959905 0.647648
vt 0.971602 0.809810
vt 0.971602 0.757758
vt 0.959905 0.757758
vt 0.959905 0.809810
vt 0.973604 0.134134
vt 0.998999 0.134134
vt 0.998999 0.122623
vt 0.973604 0.122623
vt 0.978451 0.323323
vt 0.978451 0.298298
vt 0.966754 0.298298
vt 0.966754 0.323323
vt 0.966754 0.120621
vt 0.992150 0.120621
vt 0.992150 0.109109
vt 0.966754 0.109109
vt 0.932508 0.944945
vt 0.985300 0.944945
vt 0.985300 0.919920
vt 0.932508 0.919920
vt 0.985300 0.377377
vt 0.985300 0.325325
vt 0.959905 0.325325
vt 0.959905 0.377377
vt 0.877713 0.971972
vt 0.930506 0.971972
vt 0.930506 0.946947
vt 0.877713 0.946947
vt 0.957903 0.811812
vt 0.932508 0.811812
vt 0.932508 0.863864
vt 0.957903 0.863864
vt 0.877713 0.944945
vt 0.930506 0.944945
vt 0.930506 0.919920
vt 0.877713 0.919920
vt 0.957903 0.757758
vt 0.932508 0.757758
vt 0.932508 0.809810
vt 0.957903 0.809810
vt 0.966754 0.296296
vt 0.992150 0.296296
vt 0.992150 0.284785
vt 0.966754 0.284785
vt 0.971602 0.863864
vt 0.971602 0.811812
vt 0.959905 0.811812
vt 0.959905 0.863864
vt 0.001001 0.998999
vt 0.053794 0.998999
vt 0.053794 0.987487
vt 0.001001 0.987487
vt 0.971602 0.755756
vt 0.971602 0.703704
vt 0.959905 0.703704
vt 0.959905 0.755756
vt 0.973604 0.147648
vt 0.998999 0.147648
vt 0.998999 0.136136
vt 0.973604 0.136136
vt 0.971602 0.701702
vt 0.971602 0.649650
vt 0.959905 0.649650
vt 0.959905 0.701702
vt 0.973604 0.215215
vt 0.998999 0.215215
vt 0.998999 0.203704
vt 0.973604 0.203704
vt 0.985300 0.242242
vt 0.985300 0.217217
vt 0.973604 0.217217
vt 0.973604 0.242242
vt 0.932508 0.992242
vt 0.985300 0.992242
vt 0.985300 0.980731
vt 0.932508 0.980731
vt 0.985300 0.269269
vt 0.985300 0.244244
vt 0.973604 0.244244
vt 0.973604 0.269269
vt 0.877713 0.992242
vt 0.930506 0.992242
vt 0.930506 0.980731
vt 0.877713 0.980731
vt 0.971602 0.593594
vt 0.971602 0.541542
vt 0.959905 0.541542
vt 0.959905 0.593594
vt 0.932508 0.971972
vt 0.985300 0.971972
vt 0.985300 0.960460
vt 0.932508 0.960460
vt 0.985300 0.458458
vt 0.985300 0.433433
vt 0.973604 0.433433
vt 0.973604 0.458458
vt 0.932508 0.958458
vt 0.985300 0.958458
vt 0.985300 0.946947
vt 0.932508 0.946947
vt 0.985300 0.539540
vt 0.985300 0.514515
vt 0.973604 0.514515
vt 0.973604 0.539540
vt 0.973604 0.553053
vt 0.998999 0.553053
vt 0.998999 0.541542
vt 0.973604 0.541542
vt 0.971602 0.539540
vt 0.971602 0.487487
vt 0.959905 0.487487
vt 0.959905 0.539540
vt 0.766122 0.863864
vt 0.766122 0.757758
vt 0.548946 0.757758
vt 0.548946 0.863864
vt 0.437355 0.985485
vt 0.437355 0.980731
vt 0.001001 0.980731
vt 0.001001 0.985485
vt 0.951054 0.539540
vt 0.951054 0.109109
vt 0.946207 0.109109
vt 0.946207 0.539540
vt 0.875711 0.985485
vt 0.875711 0.980731
vt 0.658535 0.980731
vt 0.658535 0.985485
vt 0.218177 0.001001
vt 0.001001 0.001001
vt 0.001001 0.431431
vt 0.218177 0.431431
vn 0.0000 1.0000 0.0000
vn -1.0000 0.0000 0.0000
vn 0.0000 0.8921 0.4519
vn 0.0000 -0.8921 -0.4519
vn 0.0000 0.0000 1.0000
vn 0.0000 -1.0000 0.0000
vn 0.0000 0.0000 -1.0000
vn 0.0000 -0.8921 0.4519
vn 0.0000 0.8921 -0.4519
vn 1.0000 0.0000 0.0000
vn -0.3827 -0.9239 0.0000
vn -0.9239 -0.3827 0.0000
vn -0.9239 0.3827 0.0000
vn -0.3827 0.9239 0.0000
vn 0.3827 0.9239 0.0000
vn 0.9239 0.3827 0.0000
vn 0.9239 -0.3827 0.0000
vn 0.3827 -0.9239 0.0000
vn 0.0028 1.0000 0.0000
usemtl Dark_green
s off
f 17/1/1 9/2/1 114/3/1 115/4/1 37/5/1 38/6/1 117/7/1 116/8/1 10/9/1 18/10/1
f 18/11/2 14/12/2 13/13/2 17/14/2
f 23/15/3 24/16/3 32/17/3 31/18/3
f 26/19/4 25/20/4 33/21/4 34/22/4
f 12/23/1 9/24/1 17/25/1 20/26/1
f 20/27/5 17/28/5 13/29/5 16/30/5
f 16/31/6 13/32/6 2/33/6 164/34/6
f 15/35/6 166/36/6 4/37/6 14/38/6
f 14/39/7 18/40/7 19/41/7 15/42/7
f 19/43/1 18/44/1 10/45/1 11/46/1
f 33/47/7 35/48/7 36/49/7 34/50/7
f 29/51/5 31/52/5 32/53/5 30/54/5
f 22/55/8 21/56/8 29/57/8 30/58/8
f 23/59/5 24/60/5 22/61/5 21/62/5
f 28/63/5 27/64/5 25/65/5 26/66/5
f 27/67/9 28/68/9 36/69/9 35/70/9
f 37/71/1 38/72/1 39/73/1
f 40/74/1 38/75/1 37/76/1 41/77/1
f 101/78/5 95/79/5 89/80/5 83/81/5 77/82/5 71/83/5 65/84/5 62/85/5
f 14/86/6 4/87/6 2/88/6 13/89/6
f 2/90/2 4/91/2 3/92/2 1/93/2
f 163/94/5 169/95/5 23/96/5 21/97/5
f 162/98/7 26/99/7 28/100/7 168/101/7
f 2/102/5 1/103/5 133/104/5 5/105/5 163/106/5 21/107/5 22/108/5 24/109/5 23/110/5 169/111/5 164/112/5
f 133/113/6 132/114/6 129/115/6 128/116/6
f 121/117/6 120/118/6 134/119/6 136/120/6
f 123/121/6 137/122/6 135/123/6 124/124/6
f 125/125/6 127/126/6 126/127/6 131/128/6
f 122/129/6 130/130/6 119/131/6 118/132/6
f 7/133/7 132/134/7 3/135/7 4/136/7 166/137/7 168/138/7 28/139/7 27/140/7 25/141/7 26/142/7 162/143/7
f 20/144/10 16/145/10 15/146/10 19/147/10
f 166/148/6 15/149/6 16/150/6 164/151/6
f 162/152/10 168/153/10 166/154/10 164/155/10 6/156/10 8/157/10 165/158/10 167/159/10 5/160/10 126/161/10 127/162/10 118/163/10 119/164/10 7/165/10
f 5/166/10 167/167/10 6/168/10 164/169/10 169/170/10 163/171/10
f 8/172/6 6/173/6 172/174/6 173/175/6
f 167/176/1 165/177/1 170/178/1 171/179/1
f 165/180/5 8/181/5 173/182/5 170/183/5
f 6/184/7 167/185/7 171/186/7 172/187/7
f 11/188/1 40/189/1 41/190/1 12/191/1 20/192/1 19/193/1
usemtl Black
f 41/194/7 37/195/7 109/196/7 113/197/7
f 41/198/10 113/199/10 110/200/10 12/201/10
f 12/202/5 110/203/5 106/204/5 9/205/5
f 63/206/11 43/207/11 45/208/11 64/209/11
f 64/210/12 45/211/12 47/212/12 70/213/12
f 70/214/13 47/215/13 49/216/13 76/217/13
f 76/218/14 49/219/14 51/220/14 82/221/14
f 82/222/15 51/223/15 53/224/15 88/225/15
f 88/226/16 53/227/16 55/228/16 94/229/16
f 45/230/5 43/231/5 57/232/5 55/233/5 53/234/5 51/235/5 49/236/5 47/237/5
f 94/238/17 55/239/17 57/240/17 100/241/17
f 100/242/18 57/243/18 43/244/18 63/245/18
f 42/246/7 44/247/7 46/248/7 48/249/7 50/250/7 52/251/7 54/252/7 56/253/7
f 56/254/18 105/255/18 58/256/18 42/257/18
f 104/258/18 103/259/18 60/260/18 59/261/18
f 102/262/18 101/263/18 62/264/18 61/265/18
f 54/266/17 99/267/17 105/268/17 56/269/17
f 98/270/17 97/271/17 103/272/17 104/273/17
f 96/274/17 95/275/17 101/276/17 102/277/17
f 52/278/16 93/279/16 99/280/16 54/281/16
f 92/282/16 91/283/16 97/284/16 98/285/16
f 90/286/16 89/287/16 95/288/16 96/289/16
f 50/290/15 87/291/15 93/292/15 52/293/15
f 86/294/15 85/295/15 91/296/15 92/297/15
f 84/298/15 83/299/15 89/300/15 90/301/15
f 48/302/14 81/303/14 87/304/14 50/305/14
f 80/306/14 79/307/14 85/308/14 86/309/14
f 78/310/14 77/311/14 83/312/14 84/313/14
f 46/314/13 75/315/13 81/316/13 48/317/13
f 74/318/13 73/319/13 79/320/13 80/321/13
f 72/322/13 71/323/13 77/324/13 78/325/13
f 44/326/12 69/327/12 75/328/12 46/329/12
f 68/330/12 67/331/12 73/332/12 74/333/12
f 66/334/12 65/335/12 71/336/12 72/337/12
f 102/338/7 61/339/7 66/340/7 72/341/7 78/342/7 84/343/7 90/344/7 96/345/7
f 42/346/11 58/347/11 69/348/11 44/349/11
f 100/350/7 63/351/7 64/352/7 70/353/7 76/354/7 82/355/7 88/356/7 94/357/7
f 59/358/11 60/359/11 67/360/11 68/361/11
f 103/362/5 97/363/5 91/364/5 85/365/5 79/366/5 73/367/5 67/368/5 60/369/5
f 105/370/5 99/371/5 93/372/5 87/373/5 81/374/5 75/375/5 69/376/5 58/377/5
f 61/378/11 62/379/11 65/380/11 66/381/11
f 104/382/7 59/383/7 68/384/7 74/385/7 80/386/7 86/387/7 92/388/7 98/389/7
f 9/390/2 106/391/2 109/392/2 37/393/2
f 113/394/19 109/395/19 106/396/19 110/397/19
f 112/398/10 40/399/10 11/400/10 111/401/10
f 132/402/10 134/403/10 150/404/10 140/405/10
f 137/406/5 123/407/5 154/408/5 161/409/5
f 119/410/5 130/411/5 157/412/5 142/413/5
f 130/414/2 129/415/2 156/416/2 157/417/2
f 136/418/10 137/419/10 161/420/10 160/421/10
f 120/422/2 3/423/2 141/424/2 149/425/2
f 141/426/6 140/427/6 150/428/6 149/429/6
f 138/430/6 155/431/6 159/432/6 139/433/6
f 146/434/6 148/435/6 151/436/6 147/437/6
f 157/438/6 156/439/6 143/440/6 142/441/6
f 158/442/6 152/443/6 145/444/6 144/445/6
f 154/446/6 153/447/6 160/448/6 161/449/6
f 7/450/10 119/451/10 142/452/10 143/453/10
f 122/454/7 118/455/7 148/456/7 146/457/7
f 131/458/7 126/459/7 152/460/7 158/461/7
f 121/462/7 136/463/7 160/464/7 153/465/7
f 128/466/2 131/467/2 158/468/2 144/469/2
f 124/470/7 135/471/7 155/472/7 138/473/7
f 1/474/2 124/475/2 138/476/2 139/477/2
f 135/478/10 133/479/10 159/480/10 155/481/10
f 127/482/5 125/483/5 147/484/5 151/485/5
f 125/486/2 122/487/2 146/488/2 147/489/2
f 134/490/5 120/491/5 149/492/5 150/493/5
f 5/494/5 128/495/5 144/496/5 145/497/5
f 133/498/5 1/499/5 139/500/5 159/501/5
f 123/502/2 121/503/2 153/504/2 154/505/2
f 129/506/7 7/507/7 143/508/7 156/509/7
f 118/510/10 127/511/10 151/512/10 148/513/10
f 126/514/10 5/515/10 145/516/10 152/517/10
f 3/518/7 132/519/7 140/520/7 141/521/7
f 170/522/10 173/523/10 172/524/10 171/525/10
f 40/526/5 112/527/5 108/528/5 38/529/5
f 11/530/7 10/531/7 107/532/7 111/533/7
f 107/534/2 10/535/2 38/536/2 108/537/2
f 112/538/19 111/539/19 107/540/19 108/541/19
l 10 9
