# Blender v2.80 (sub 75) OBJ File: 'street props pack.blend'
# www.blender.org
mtllib paint can.mtl
o Cylinder.010_Cylinder.007
v 0.790991 -0.007698 10.536732
v 0.790991 0.728285 10.536732
v 1.042203 -0.007698 10.640787
v 1.042203 0.728285 10.640787
v 1.146259 -0.007698 10.891999
v 1.146259 0.728285 10.891999
v 1.042203 -0.007698 11.143211
v 1.042203 0.728285 11.143211
v 0.790991 -0.007698 11.247267
v 0.790991 0.728285 11.247267
v 0.539779 -0.007698 11.143211
v 0.539779 0.728285 11.143211
v 0.435724 -0.007698 10.891999
v 0.435724 0.728285 10.891999
v 0.539779 -0.007698 10.640787
v 0.539779 0.728285 10.640787
v 0.790991 0.019670 10.536732
v 0.790991 0.700917 10.536732
v 1.042203 0.700917 10.640787
v 1.042203 0.019670 10.640787
v 1.146259 0.700917 10.891999
v 1.146259 0.019670 10.891999
v 1.042203 0.700917 11.143211
v 1.042203 0.019670 11.143211
v 0.790991 0.700917 11.247267
v 0.790991 0.019670 11.247267
v 0.539779 0.700917 11.143211
v 0.539779 0.019670 11.143211
v 0.435724 0.700917 10.891999
v 0.435724 0.019670 10.891999
v 0.539779 0.700917 10.640787
v 0.539779 0.019670 10.640787
v 0.790991 -0.007698 10.522384
v 1.052349 -0.007698 10.630641
v 1.052349 0.728285 10.630641
v 0.790991 0.728285 10.522384
v 0.790991 0.700917 10.522384
v 1.052349 0.019670 10.630641
v 1.160607 -0.007698 10.891999
v 1.160607 0.728285 10.891999
v 1.160607 0.019670 10.891999
v 1.052349 -0.007698 11.153357
v 1.052349 0.728285 11.153357
v 1.052349 0.019670 11.153357
v 0.790991 -0.007698 11.261615
v 0.790991 0.728285 11.261615
v 0.790991 0.019670 11.261615
v 0.529633 -0.007698 11.153357
v 0.529633 0.728285 11.153357
v 0.529633 0.019670 11.153357
v 0.421376 -0.007698 10.891999
v 0.421376 0.728285 10.891999
v 0.421376 0.019670 10.891999
v 0.529633 -0.007698 10.630641
v 0.529633 0.728285 10.630641
v 0.529633 0.019670 10.630641
v 0.790991 0.019670 10.522384
v 1.052349 0.700917 10.630641
v 1.160607 0.700917 10.891999
v 1.052349 0.700917 11.153357
v 0.790991 0.700917 11.261615
v 0.529633 0.700917 11.153357
v 0.421376 0.700917 10.891999
v 0.529633 0.700917 10.630641
v 0.790991 0.002321 10.536732
v 1.042203 0.002321 10.640787
v 1.042203 0.718266 10.640787
v 0.790991 0.718266 10.536732
v 1.146259 0.002321 10.891999
v 1.146259 0.718266 10.891999
v 1.042203 0.002321 11.143211
v 1.042203 0.718266 11.143211
v 0.790991 0.002321 11.247267
v 0.790991 0.718266 11.247267
v 0.539779 0.002321 11.143211
v 0.539779 0.718266 11.143211
v 0.435724 0.002321 10.891999
v 0.435724 0.718266 10.891999
v 0.539779 0.002321 10.640787
v 0.539779 0.718266 10.640787
v 0.714142 0.567038 10.511806
v 0.705290 0.576546 10.519305
v 0.705290 0.576546 10.534305
v 0.714141 0.567037 10.541805
v 0.722993 0.557529 10.534305
v 0.722993 0.557529 10.519305
v 0.499868 0.367575 10.612797
v 0.494899 0.380697 10.617855
v 0.502663 0.387924 10.627971
v 0.515395 0.382029 10.633029
v 0.520365 0.368907 10.627971
v 0.512601 0.361680 10.617855
v 0.411114 0.284956 10.891999
v 0.407752 0.299574 10.891999
v 0.418732 0.309794 10.891999
v 0.433072 0.305396 10.891999
v 0.436434 0.290778 10.891999
v 0.425454 0.280557 10.891999
v 0.499868 0.367575 11.171202
v 0.494899 0.380697 11.166143
v 0.502663 0.387924 11.156028
v 0.515395 0.382029 11.150970
v 0.520365 0.368907 11.156028
v 0.512601 0.361680 11.166143
v 0.714142 0.567038 11.277982
v 0.705290 0.576546 11.270482
v 0.705290 0.576546 11.255482
v 0.714141 0.567037 11.247982
v 0.722993 0.557529 11.255482
v 0.722993 0.557529 11.270482
v 0.809401 0.639782 10.528153
v 0.789478 0.619211 10.537714
v 0.771530 0.618434 10.546311
v 0.773506 0.638228 10.545347
v 0.793429 0.658799 10.535786
v 0.811377 0.659576 10.527188
v 0.810305 0.658137 11.255384
v 0.792795 0.658110 11.247768
v 0.774010 0.639040 11.239594
v 0.772734 0.619996 11.239038
v 0.790244 0.620023 11.246654
v 0.809029 0.639093 11.254827
v 0.790991 0.184833 10.536732
v 0.790991 0.535754 10.536732
v 1.042203 0.535754 10.640787
v 1.042203 0.184833 10.640787
v 1.146259 0.535754 10.891999
v 1.146259 0.184833 10.891999
v 1.042203 0.535754 11.143211
v 1.042203 0.184833 11.143211
v 0.790991 0.535754 11.247267
v 0.790991 0.184833 11.247267
v 0.539779 0.535754 11.143211
v 0.539779 0.184833 11.143211
v 0.435724 0.535754 10.891999
v 0.435724 0.184833 10.891999
v 0.539779 0.535754 10.640787
v 0.539779 0.184833 10.640787
vt 0.998999 0.371092
vt 0.998999 0.187048
vt 0.978779 0.187048
vt 0.978779 0.371092
vt 0.001001 0.975743
vt 0.176777 0.975743
vt 0.176777 0.954489
vt 0.001001 0.954489
vt 0.976777 0.929232
vt 0.976777 0.745187
vt 0.956557 0.745187
vt 0.956557 0.929232
vt 0.534334 0.952487
vt 0.710110 0.952487
vt 0.710110 0.931234
vt 0.534334 0.931234
vt 0.976777 0.371092
vt 0.976777 0.187048
vt 0.956557 0.187048
vt 0.956557 0.371092
vt 0.001001 0.929232
vt 0.176777 0.929232
vt 0.176777 0.907978
vt 0.001001 0.907978
vt 0.887888 0.278069
vt 0.887888 0.094024
vt 0.867668 0.094024
vt 0.867668 0.278069
vt 0.534334 0.905976
vt 0.710110 0.905976
vt 0.710110 0.884722
vt 0.534334 0.884722
vt 0.821221 0.836208
vt 0.821221 0.652164
vt 0.801001 0.652164
vt 0.801001 0.836208
vt 0.534334 0.859464
vt 0.710110 0.859464
vt 0.710110 0.838210
vt 0.534334 0.838210
vt 0.998999 0.185046
vt 0.998999 0.001001
vt 0.978779 0.001001
vt 0.978779 0.185046
vt 0.532332 0.696673
vt 0.532332 0.652164
vt 0.356557 0.652164
vt 0.356557 0.696673
vt 0.976777 0.743185
vt 0.976777 0.559141
vt 0.956557 0.559141
vt 0.956557 0.743185
vt 0.710110 0.510627
vt 0.710110 0.466117
vt 0.534334 0.466117
vt 0.534334 0.510627
vt 0.976777 0.557139
vt 0.976777 0.373094
vt 0.956557 0.373094
vt 0.956557 0.557139
vt 0.532332 0.743185
vt 0.532332 0.698675
vt 0.356557 0.698675
vt 0.356557 0.743185
vt 0.976777 0.185046
vt 0.976777 0.001001
vt 0.956557 0.001001
vt 0.956557 0.185046
vt 0.710110 0.557139
vt 0.710110 0.512629
vt 0.534334 0.512629
vt 0.534334 0.557139
vt 0.954555 0.929232
vt 0.954555 0.745187
vt 0.934334 0.745187
vt 0.934334 0.929232
vt 0.710110 0.603650
vt 0.710110 0.559141
vt 0.534334 0.559141
vt 0.534334 0.603650
vt 0.954555 0.743185
vt 0.954555 0.559141
vt 0.934334 0.559141
vt 0.934334 0.743185
vt 0.710110 0.650162
vt 0.710110 0.605652
vt 0.534334 0.605652
vt 0.534334 0.650162
vt 0.954555 0.557139
vt 0.954555 0.373094
vt 0.934334 0.373094
vt 0.934334 0.557139
vt 0.710110 0.696673
vt 0.710110 0.652164
vt 0.534334 0.652164
vt 0.534334 0.696673
vt 0.954555 0.371092
vt 0.954555 0.187048
vt 0.934334 0.187048
vt 0.934334 0.371092
vt 0.710110 0.743185
vt 0.710110 0.698675
vt 0.534334 0.698675
vt 0.534334 0.743185
vt 0.954555 0.001001
vt 0.934334 0.001001
vt 0.934334 0.185046
vt 0.954555 0.185046
vt 0.532332 0.952487
vt 0.532332 0.931234
vt 0.356557 0.931234
vt 0.356557 0.952487
vt 0.887888 0.280071
vt 0.867668 0.280071
vt 0.867668 0.464115
vt 0.887888 0.464115
vt 0.887888 0.022255
vt 0.887888 0.001001
vt 0.712112 0.001001
vt 0.712112 0.022255
vt 0.865666 0.652164
vt 0.845445 0.652164
vt 0.845445 0.836208
vt 0.865666 0.836208
vt 0.354555 0.882720
vt 0.354555 0.861466
vt 0.178779 0.861466
vt 0.178779 0.882720
vt 0.754555 0.280071
vt 0.734334 0.280071
vt 0.734334 0.464115
vt 0.754555 0.464115
vt 0.532332 0.789697
vt 0.532332 0.768443
vt 0.356557 0.768443
vt 0.356557 0.789697
vt 0.776777 0.280071
vt 0.756557 0.280071
vt 0.756557 0.464115
vt 0.776777 0.464115
vt 0.710110 0.789697
vt 0.710110 0.768443
vt 0.534334 0.768443
vt 0.534334 0.789697
vt 0.776777 0.466117
vt 0.756557 0.466117
vt 0.756557 0.650162
vt 0.776777 0.650162
vt 0.176777 0.812952
vt 0.176777 0.791699
vt 0.001001 0.791699
vt 0.001001 0.812952
vt 0.798999 0.094024
vt 0.778779 0.094024
vt 0.778779 0.278069
vt 0.798999 0.278069
vt 0.354555 0.812952
vt 0.354555 0.791699
vt 0.178779 0.791699
vt 0.178779 0.812952
vt 0.798999 0.280071
vt 0.778779 0.280071
vt 0.778779 0.464115
vt 0.798999 0.464115
vt 0.532332 0.812952
vt 0.532332 0.791699
vt 0.356557 0.791699
vt 0.356557 0.812952
vt 0.798999 0.650162
vt 0.798999 0.466117
vt 0.778779 0.466117
vt 0.778779 0.650162
vt 0.534334 0.812952
vt 0.710110 0.812952
vt 0.710110 0.791699
vt 0.534334 0.791699
vt 0.732332 0.836208
vt 0.732332 0.652164
vt 0.712112 0.652164
vt 0.712112 0.836208
vt 0.001001 0.836208
vt 0.176777 0.836208
vt 0.176777 0.814954
vt 0.001001 0.814954
vt 0.754555 0.836208
vt 0.754555 0.652164
vt 0.734334 0.652164
vt 0.734334 0.836208
vt 0.178779 0.836208
vt 0.354555 0.836208
vt 0.354555 0.814954
vt 0.178779 0.814954
vt 0.776777 0.836208
vt 0.776777 0.652164
vt 0.756557 0.652164
vt 0.756557 0.836208
vt 0.356557 0.836208
vt 0.532332 0.836208
vt 0.532332 0.814954
vt 0.356557 0.814954
vt 0.798999 0.836208
vt 0.798999 0.652164
vt 0.778779 0.652164
vt 0.778779 0.836208
vt 0.534334 0.836208
vt 0.710110 0.836208
vt 0.710110 0.814954
vt 0.534334 0.814954
vt 0.821221 0.278069
vt 0.821221 0.094024
vt 0.801001 0.094024
vt 0.801001 0.278069
vt 0.001001 0.859464
vt 0.176777 0.859464
vt 0.176777 0.838210
vt 0.001001 0.838210
vt 0.821221 0.464115
vt 0.821221 0.280071
vt 0.801001 0.280071
vt 0.801001 0.464115
vt 0.178779 0.859464
vt 0.354555 0.859464
vt 0.354555 0.838210
vt 0.178779 0.838210
vt 0.821221 0.650162
vt 0.821221 0.466117
vt 0.801001 0.466117
vt 0.801001 0.650162
vt 0.356557 0.859464
vt 0.532332 0.859464
vt 0.532332 0.838210
vt 0.356557 0.838210
vt 0.104554 0.743185
vt 0.001001 0.634788
vt 0.001001 0.481491
vt 0.104554 0.373094
vt 0.251001 0.373094
vt 0.354555 0.481491
vt 0.354555 0.634788
vt 0.251001 0.743185
vt 0.104554 0.371092
vt 0.001001 0.262695
vt 0.001001 0.109398
vt 0.104554 0.001001
vt 0.251001 0.001001
vt 0.354555 0.109398
vt 0.354555 0.262695
vt 0.251001 0.371092
vt 0.843443 0.278069
vt 0.843443 0.094024
vt 0.823223 0.094024
vt 0.823223 0.278069
vt 0.001001 0.882720
vt 0.176777 0.882720
vt 0.176777 0.861466
vt 0.001001 0.861466
vt 0.843443 0.464115
vt 0.843443 0.280071
vt 0.823223 0.280071
vt 0.823223 0.464115
vt 0.712112 0.952487
vt 0.887888 0.952487
vt 0.887888 0.931234
vt 0.712112 0.931234
vt 0.843443 0.650162
vt 0.843443 0.466117
vt 0.823223 0.466117
vt 0.823223 0.650162
vt 0.356557 0.882720
vt 0.532332 0.882720
vt 0.532332 0.861466
vt 0.356557 0.861466
vt 0.843443 0.836208
vt 0.843443 0.652164
vt 0.823223 0.652164
vt 0.823223 0.836208
vt 0.534334 0.882720
vt 0.710110 0.882720
vt 0.710110 0.861466
vt 0.534334 0.861466
vt 0.865666 0.278069
vt 0.865666 0.094024
vt 0.845445 0.094024
vt 0.845445 0.278069
vt 0.001001 0.905976
vt 0.176777 0.905976
vt 0.176777 0.884722
vt 0.001001 0.884722
vt 0.865666 0.464115
vt 0.865666 0.280071
vt 0.845445 0.280071
vt 0.845445 0.464115
vt 0.178779 0.905976
vt 0.354555 0.905976
vt 0.354555 0.884722
vt 0.178779 0.884722
vt 0.865666 0.650162
vt 0.865666 0.466117
vt 0.845445 0.466117
vt 0.845445 0.650162
vt 0.356557 0.905976
vt 0.532332 0.905976
vt 0.532332 0.884722
vt 0.356557 0.884722
vt 0.776777 0.094024
vt 0.734334 0.094024
vt 0.734334 0.278069
vt 0.776777 0.278069
vt 0.576777 0.094024
vt 0.534334 0.094024
vt 0.534334 0.278069
vt 0.576777 0.278069
vt 0.576777 0.280071
vt 0.534334 0.280071
vt 0.534334 0.464115
vt 0.576777 0.464115
vt 0.621221 0.094024
vt 0.578779 0.094024
vt 0.578779 0.278069
vt 0.621221 0.278069
vt 0.621221 0.280071
vt 0.578779 0.280071
vt 0.578779 0.464115
vt 0.621221 0.464115
vt 0.732332 0.094024
vt 0.689890 0.094024
vt 0.689890 0.278069
vt 0.732332 0.278069
vt 0.732332 0.280071
vt 0.689890 0.280071
vt 0.689890 0.464115
vt 0.732332 0.464115
vt 0.754555 0.466117
vt 0.712112 0.466117
vt 0.712112 0.650162
vt 0.754555 0.650162
vt 0.532332 0.278069
vt 0.532332 0.187048
vt 0.356557 0.187048
vt 0.356557 0.278069
vt 0.710110 0.092022
vt 0.710110 0.001001
vt 0.534334 0.001001
vt 0.534334 0.092022
vt 0.532332 0.092022
vt 0.532332 0.001001
vt 0.356557 0.001001
vt 0.356557 0.092022
vt 0.532332 0.185046
vt 0.532332 0.094024
vt 0.356557 0.094024
vt 0.356557 0.185046
vt 0.532332 0.650162
vt 0.532332 0.559141
vt 0.356557 0.559141
vt 0.356557 0.650162
vt 0.532332 0.371092
vt 0.532332 0.280071
vt 0.356557 0.280071
vt 0.356557 0.371092
vt 0.532332 0.464115
vt 0.532332 0.373094
vt 0.356557 0.373094
vt 0.356557 0.464115
vt 0.532332 0.557139
vt 0.532332 0.466117
vt 0.356557 0.466117
vt 0.356557 0.557139
vt 0.487888 0.998999
vt 0.487888 0.954489
vt 0.467668 0.954489
vt 0.467668 0.998999
vt 0.423223 0.975743
vt 0.465666 0.975743
vt 0.465666 0.954489
vt 0.423223 0.954489
vt 0.421221 0.998999
vt 0.421221 0.954489
vt 0.401001 0.954489
vt 0.401001 0.998999
vt 0.356557 0.975743
vt 0.398999 0.975743
vt 0.398999 0.954489
vt 0.356557 0.954489
vt 0.354555 0.998999
vt 0.354555 0.954489
vt 0.334334 0.954489
vt 0.334334 0.998999
vt 0.289890 0.975743
vt 0.332332 0.975743
vt 0.332332 0.954489
vt 0.289890 0.954489
vt 0.887888 0.650162
vt 0.887888 0.466117
vt 0.867668 0.466117
vt 0.867668 0.650162
vt 0.712112 0.045511
vt 0.887888 0.045511
vt 0.887888 0.024257
vt 0.712112 0.024257
vt 0.887888 0.836208
vt 0.887888 0.652164
vt 0.867668 0.652164
vt 0.867668 0.836208
vt 0.712112 0.068766
vt 0.887888 0.068766
vt 0.887888 0.047513
vt 0.712112 0.047513
vt 0.910110 0.185046
vt 0.910110 0.001001
vt 0.889890 0.001001
vt 0.889890 0.185046
vt 0.712112 0.092022
vt 0.887888 0.092022
vt 0.887888 0.070768
vt 0.712112 0.070768
vt 0.910110 0.371092
vt 0.910110 0.187048
vt 0.889890 0.187048
vt 0.889890 0.371092
vt 0.178779 0.929232
vt 0.354555 0.929232
vt 0.354555 0.907978
vt 0.178779 0.907978
vt 0.910110 0.557139
vt 0.910110 0.373094
vt 0.889890 0.373094
vt 0.889890 0.557139
vt 0.356557 0.929232
vt 0.532332 0.929232
vt 0.532332 0.907978
vt 0.356557 0.907978
vt 0.910110 0.743185
vt 0.910110 0.559141
vt 0.889890 0.559141
vt 0.889890 0.743185
vt 0.534334 0.929232
vt 0.710110 0.929232
vt 0.710110 0.907978
vt 0.534334 0.907978
vt 0.910110 0.929232
vt 0.910110 0.745187
vt 0.889890 0.745187
vt 0.889890 0.929232
vt 0.712112 0.859464
vt 0.887888 0.859464
vt 0.887888 0.838210
vt 0.712112 0.838210
vt 0.932332 0.185046
vt 0.932332 0.001001
vt 0.912112 0.001001
vt 0.912112 0.185046
vt 0.712112 0.882720
vt 0.887888 0.882720
vt 0.887888 0.861466
vt 0.712112 0.861466
vt 0.932332 0.371092
vt 0.932332 0.187048
vt 0.912112 0.187048
vt 0.912112 0.371092
vt 0.712112 0.905976
vt 0.887888 0.905976
vt 0.887888 0.884722
vt 0.712112 0.884722
vt 0.932332 0.557139
vt 0.932332 0.373094
vt 0.912112 0.373094
vt 0.912112 0.557139
vt 0.712112 0.929232
vt 0.887888 0.929232
vt 0.887888 0.907978
vt 0.712112 0.907978
vt 0.932332 0.743185
vt 0.932332 0.559141
vt 0.912112 0.559141
vt 0.912112 0.743185
vt 0.001001 0.952487
vt 0.176777 0.952487
vt 0.176777 0.931234
vt 0.001001 0.931234
vt 0.932332 0.929232
vt 0.932332 0.745187
vt 0.912112 0.745187
vt 0.912112 0.929232
vt 0.178779 0.952487
vt 0.354555 0.952487
vt 0.354555 0.931234
vt 0.178779 0.931234
vt 0.687888 0.464115
vt 0.687888 0.094024
vt 0.667668 0.094024
vt 0.667668 0.464115
vt 0.001001 0.789697
vt 0.354555 0.789697
vt 0.354555 0.768443
vt 0.001001 0.768443
vt 0.665666 0.464115
vt 0.665666 0.094024
vt 0.645445 0.094024
vt 0.645445 0.464115
vt 0.356557 0.766441
vt 0.710110 0.766441
vt 0.710110 0.745187
vt 0.356557 0.745187
vt 0.643443 0.464115
vt 0.643443 0.094024
vt 0.623223 0.094024
vt 0.623223 0.464115
vt 0.001001 0.766441
vt 0.354555 0.766441
vt 0.354555 0.745187
vt 0.001001 0.745187
vt 0.287888 0.998999
vt 0.287888 0.954489
vt 0.267668 0.954489
vt 0.267668 0.998999
vt 0.223223 0.975743
vt 0.265666 0.975743
vt 0.265666 0.954489
vt 0.223223 0.954489
vt 0.932332 0.975743
vt 0.932332 0.931234
vt 0.912112 0.931234
vt 0.912112 0.975743
vt 0.178779 0.975743
vt 0.221221 0.975743
vt 0.221221 0.954489
vt 0.178779 0.954489
vt 0.910110 0.975743
vt 0.910110 0.931234
vt 0.889890 0.931234
vt 0.889890 0.975743
vt 0.489890 0.975743
vt 0.532332 0.975743
vt 0.532332 0.954489
vt 0.489890 0.954489
vn 0.0000 1.0000 0.0000
vn 0.0000 -1.0000 0.0000
vn 0.9239 0.0000 0.3827
vn -0.9239 0.0000 0.3827
vn -0.3827 0.0000 -0.9239
vn -0.9239 0.0000 -0.3827
vn -0.3827 0.0000 0.9239
vn 0.3827 0.0000 0.9239
vn 0.9239 0.0000 -0.3827
vn 0.3827 0.0000 -0.9239
vn -0.3250 0.4919 -0.8077
vn -0.6816 0.7294 0.0580
vn -0.2960 0.2003 0.9339
vn 0.3514 -0.4426 0.8250
vn 0.6867 -0.7252 -0.0503
vn 0.3095 -0.1962 -0.9304
vn -0.5269 0.1431 -0.8378
vn -0.6814 0.7320 0.0000
vn -0.1087 0.5322 0.8396
vn 0.5231 -0.1465 0.8396
vn 0.6813 -0.7320 0.0000
vn 0.1051 -0.5358 -0.8378
vn -0.9122 -0.2098 -0.3520
vn 0.2744 0.8948 0.3520
vn 0.9122 0.2098 0.3520
vn 0.6814 -0.7320 -0.0000
vn -0.2744 -0.8948 -0.3520
vn -0.9122 -0.2097 0.3520
vn -0.6814 0.7319 -0.0000
vn 0.2744 0.8948 -0.3520
vn 0.9122 0.2098 -0.3520
vn -0.2744 -0.8949 0.3520
vn -0.5379 0.1334 0.8324
vn -0.0975 0.5432 -0.8339
vn 0.5349 -0.1361 -0.8339
vn 0.6814 -0.7319 0.0000
vn 0.0946 -0.5461 0.8324
vn -0.0226 0.9997 0.0015
vn -0.7155 0.6986 -0.0001
vn -0.9965 0.0834 0.0011
vn 0.0227 -0.9997 0.0017
vn 0.7155 -0.6986 -0.0001
vn 0.9965 -0.0834 0.0009
vn 0.3514 -0.1667 0.9212
vn 0.6876 -0.7250 0.0392
vn 0.3089 -0.4644 -0.8300
vn -0.3365 0.1720 -0.9258
vn -0.6833 0.7287 -0.0458
vn -0.2812 0.5121 0.8116
usemtl Grey
s off
f 12/1/1 14/2/1 52/3/1 49/4/1
f 31/5/2 29/6/2 63/7/2 64/8/2
f 13/9/2 11/10/2 48/11/2 51/12/2
f 30/13/1 32/14/1 56/15/1 53/16/1
f 19/17/2 18/18/2 37/19/2 58/20/2
f 2/21/1 4/22/1 35/23/1 36/24/1
f 16/25/3 14/26/3 78/27/3 80/28/3
f 18/29/2 31/30/2 64/31/2 37/32/2
f 10/33/1 12/34/1 49/35/1 46/36/1
f 6/37/4 4/38/4 67/39/4 70/40/4
f 17/41/1 20/42/1 38/43/1 57/44/1
f 137/45/5 31/46/5 18/47/5 124/48/5
f 3/49/2 1/50/2 33/51/2 34/52/2
f 135/53/6 29/54/6 31/55/6 137/56/6
f 32/57/1 17/58/1 57/59/1 56/60/1
f 133/61/4 27/62/4 29/63/4 135/64/4
f 11/65/2 9/66/2 45/67/2 48/68/2
f 131/69/7 25/70/7 27/71/7 133/72/7
f 21/73/2 19/74/2 58/75/2 59/76/2
f 129/77/8 23/78/8 25/79/8 131/80/8
f 20/81/1 22/82/1 41/83/1 38/84/1
f 127/85/3 21/86/3 23/87/3 129/88/3
f 8/89/1 10/90/1 46/91/1 43/92/1
f 125/93/9 19/94/9 21/95/9 127/96/9
f 23/97/2 21/98/2 59/99/2 60/100/2
f 124/101/10 18/102/10 19/103/10 125/104/10
f 37/105/10 36/106/10 35/107/10 58/108/10
f 58/109/9 35/110/9 40/111/9 59/112/9
f 59/113/3 40/114/3 43/115/3 60/116/3
f 60/117/8 43/118/8 46/119/8 61/120/8
f 61/121/7 46/122/7 49/123/7 62/124/7
f 62/125/4 49/126/4 52/127/4 63/128/4
f 63/129/6 52/130/6 55/131/6 64/132/6
f 64/133/5 55/134/5 36/135/5 37/136/5
f 54/137/5 56/138/5 57/139/5 33/140/5
f 51/141/6 53/142/6 56/143/6 54/144/6
f 48/145/4 50/146/4 53/147/4 51/148/4
f 45/149/7 47/150/7 50/151/7 48/152/7
f 42/153/8 44/154/8 47/155/8 45/156/8
f 39/157/3 41/158/3 44/159/3 42/160/3
f 34/161/9 38/162/9 41/163/9 39/164/9
f 33/165/10 57/166/10 38/167/10 34/168/10
f 28/169/1 30/170/1 53/171/1 50/172/1
f 5/173/2 3/174/2 34/175/2 39/176/2
f 29/177/2 27/178/2 62/179/2 63/180/2
f 4/181/1 6/182/1 40/183/1 35/184/1
f 15/185/2 13/186/2 51/187/2 54/188/2
f 26/189/1 28/190/1 50/191/1 47/192/1
f 14/193/1 16/194/1 55/195/1 52/196/1
f 27/197/2 25/198/2 61/199/2 62/200/2
f 7/201/2 5/202/2 39/203/2 42/204/2
f 24/205/1 26/206/1 47/207/1 44/208/1
f 6/209/1 8/210/1 43/211/1 40/212/1
f 1/213/2 15/214/2 54/215/2 33/216/2
f 25/217/2 23/218/2 60/219/2 61/220/2
f 16/221/1 2/222/1 36/223/1 55/224/1
f 22/225/1 24/226/1 44/227/1 41/228/1
f 9/229/2 7/230/2 42/231/2 45/232/2
f 67/233/1 68/234/1 80/235/1 78/236/1 76/237/1 74/238/1 72/239/1 70/240/1
f 65/241/2 66/242/2 69/243/2 71/244/2 73/245/2 75/246/2 77/247/2 79/248/2
f 9/249/10 11/250/10 75/251/10 73/252/10
f 12/253/10 10/254/10 74/255/10 76/256/10
f 5/257/6 7/258/6 71/259/6 69/260/6
f 15/261/8 1/262/8 65/263/8 79/264/8
f 1/265/7 3/266/7 66/267/7 65/268/7
f 8/269/6 6/270/6 70/271/6 72/272/6
f 2/273/8 16/274/8 80/275/8 68/276/8
f 4/277/7 2/278/7 68/279/7 67/280/7
f 11/281/9 13/282/9 77/283/9 75/284/9
f 14/285/9 12/286/9 76/287/9 78/288/9
f 7/289/5 9/290/5 73/291/5 71/292/5
f 10/293/5 8/294/5 72/295/5 74/296/5
f 3/297/4 5/298/4 69/299/4 66/300/4
f 13/301/3 15/302/3 79/303/3 77/304/3
f 17/305/10 123/306/10 126/307/10 20/308/10
f 20/309/9 126/310/9 128/311/9 22/312/9
f 22/313/3 128/314/3 130/315/3 24/316/3
f 24/317/8 130/318/8 132/319/8 26/320/8
f 26/321/7 132/322/7 134/323/7 28/324/7
f 28/325/4 134/326/4 136/327/4 30/328/4
f 30/329/6 136/330/6 138/331/6 32/332/6
f 32/333/5 138/334/5 123/335/5 17/336/5
usemtl light_blue
f 123/337/10 124/338/10 125/339/10 126/340/10
f 126/341/9 125/342/9 127/343/9 128/344/9
f 128/345/3 127/346/3 129/347/3 130/348/3
f 130/349/8 129/350/8 131/351/8 132/352/8
f 132/353/7 131/354/7 133/355/7 134/356/7
f 134/357/4 133/358/4 135/359/4 136/360/4
f 136/361/6 135/362/6 137/363/6 138/364/6
f 138/365/5 137/366/5 124/367/5 123/368/5
usemtl light_grey
f 116/369/11 81/370/11 82/371/11 115/372/11
f 115/373/12 82/374/12 83/375/12 114/376/12
f 114/377/13 83/378/13 84/379/13 113/380/13
f 113/381/14 84/382/14 85/383/14 112/384/14
f 112/385/15 85/386/15 86/387/15 111/388/15
f 111/389/16 86/390/16 81/391/16 116/392/16
f 81/393/17 87/394/17 88/395/17 82/396/17
f 82/397/18 88/398/18 89/399/18 83/400/18
f 83/401/19 89/402/19 90/403/19 84/404/19
f 84/405/20 90/406/20 91/407/20 85/408/20
f 85/409/21 91/410/21 92/411/21 86/412/21
f 86/413/22 92/414/22 87/415/22 81/416/22
f 87/417/23 93/418/23 94/419/23 88/420/23
f 88/421/18 94/422/18 95/423/18 89/424/18
f 89/425/24 95/426/24 96/427/24 90/428/24
f 90/429/25 96/430/25 97/431/25 91/432/25
f 91/433/26 97/434/26 98/435/26 92/436/26
f 92/437/27 98/438/27 93/439/27 87/440/27
f 93/441/28 99/442/28 100/443/28 94/444/28
f 94/445/29 100/446/29 101/447/29 95/448/29
f 95/449/30 101/450/30 102/451/30 96/452/30
f 96/453/31 102/454/31 103/455/31 97/456/31
f 97/457/26 103/458/26 104/459/26 98/460/26
f 98/461/32 104/462/32 99/463/32 93/464/32
f 99/465/33 105/466/33 106/467/33 100/468/33
f 100/469/29 106/470/29 107/471/29 101/472/29
f 101/473/34 107/474/34 108/475/34 102/476/34
f 102/477/35 108/478/35 109/479/35 103/480/35
f 103/481/36 109/482/36 110/483/36 104/484/36
f 104/485/37 110/486/37 105/487/37 99/488/37
f 115/489/38 118/490/38 117/491/38 116/492/38
f 114/493/39 119/494/39 118/495/39 115/496/39
f 113/497/40 120/498/40 119/499/40 114/500/40
f 112/501/41 121/502/41 120/503/41 113/504/41
f 111/505/42 122/506/42 121/507/42 112/508/42
f 116/509/43 117/510/43 122/511/43 111/512/43
f 110/513/44 122/514/44 117/515/44 105/516/44
f 109/517/45 121/518/45 122/519/45 110/520/45
f 108/521/46 120/522/46 121/523/46 109/524/46
f 107/525/47 119/526/47 120/527/47 108/528/47
f 106/529/48 118/530/48 119/531/48 107/532/48
f 105/533/49 117/534/49 118/535/49 106/536/49
