# Blender v2.80 (sub 75) OBJ File: 'street props pack.blend'
# www.blender.org
mtllib red sign.mtl
o Cylinder.012
v 0.000000 0.016683 76.919380
v 0.000000 4.368194 76.919380
v 0.068723 0.016683 76.959053
v 0.068723 4.368194 76.959053
v 0.068723 0.016683 77.038414
v 0.068723 4.368194 77.038414
v -0.000000 0.016683 77.078087
v -0.000000 4.368194 77.078087
v -0.068723 0.016683 77.038414
v -0.068723 4.368194 77.038414
v -0.068723 0.016683 76.959053
v -0.068723 4.368194 76.959053
v -0.081592 4.906905 76.111664
v 0.081592 4.906905 76.111664
v -0.081592 4.387226 76.631187
v 0.081592 4.387226 76.631187
v -0.081592 4.387118 77.366020
v 0.081592 4.387118 77.366020
v -0.081592 4.906645 77.885696
v 0.081592 4.906645 77.885696
v -0.081592 5.641475 77.885803
v 0.081592 5.641475 77.885803
v -0.081592 6.161154 77.366280
v 0.081592 6.161154 77.366280
v -0.081592 6.161262 76.631447
v 0.081592 6.161262 76.631447
v -0.081592 5.641735 76.111771
v 0.081592 5.641735 76.111771
v -0.081592 4.891642 76.074799
v -0.081592 4.350367 76.615913
v 0.081592 4.350366 76.615913
v 0.081592 4.891642 76.074799
v -0.081592 4.350254 77.381279
v 0.081592 4.350254 77.381279
v -0.081592 4.891371 77.922554
v 0.081592 4.891371 77.922554
v -0.081592 5.656738 77.922668
v 0.081592 5.656738 77.922668
v -0.081592 6.198013 77.381554
v 0.081592 6.198013 77.381554
v -0.081592 6.198125 76.616188
v 0.081592 6.198125 76.616188
v -0.081592 5.657009 76.074913
v 0.081592 5.657009 76.074913
v -0.043162 4.906905 76.111664
v -0.043162 4.387226 76.631187
v 0.043162 4.387226 76.631187
v 0.043162 4.906905 76.111664
v -0.043162 4.387118 77.366020
v 0.043162 4.387118 77.366020
v -0.043162 4.906645 77.885696
v 0.043162 4.906645 77.885696
v -0.043162 5.641475 77.885803
v 0.043162 5.641475 77.885803
v -0.043162 6.161154 77.366280
v 0.043162 6.161154 77.366280
v -0.043162 6.161262 76.631447
v 0.043162 6.161262 76.631447
v -0.043162 5.641735 76.111771
v 0.043162 5.641735 76.111771
vt 0.951380 0.798999
vt 0.951380 0.401001
vt 0.905763 0.401001
vt 0.905763 0.798999
vt 0.381953 0.548999
vt 0.760904 0.548999
vt 0.760904 0.501001
vt 0.381953 0.501001
vt 0.665666 0.398999
vt 0.665666 0.001001
vt 0.620049 0.001001
vt 0.620049 0.398999
vt 0.381953 0.448999
vt 0.760904 0.448999
vt 0.760904 0.401001
vt 0.381953 0.401001
vt 0.618047 0.398999
vt 0.618047 0.001001
vt 0.572430 0.001001
vt 0.572430 0.398999
vt 0.001001 0.798999
vt 0.379951 0.798999
vt 0.379951 0.751001
vt 0.001001 0.751001
vt 0.475189 0.974499
vt 0.428571 0.998999
vt 0.381953 0.974500
vt 0.381953 0.925501
vt 0.428571 0.901001
vt 0.475189 0.925501
vt 0.809524 0.801001
vt 0.856142 0.825500
vt 0.856142 0.874499
vt 0.809524 0.898999
vt 0.762906 0.874499
vt 0.762906 0.825500
vt 0.379951 0.101001
vt 0.286715 0.101001
vt 0.286715 0.498999
vt 0.379951 0.498999
vt 0.379951 0.698999
vt 0.379951 0.601001
vt 0.001001 0.601001
vt 0.001001 0.698999
vt 0.284713 0.101001
vt 0.191477 0.101001
vt 0.191477 0.498999
vt 0.284713 0.498999
vt 0.477191 0.948999
vt 0.570428 0.948999
vt 0.570428 0.901001
vt 0.477191 0.901001
vt 0.189475 0.101001
vt 0.096239 0.101001
vt 0.096239 0.498999
vt 0.189475 0.498999
vt 0.379951 0.598999
vt 0.379951 0.501001
vt 0.001001 0.501001
vt 0.001001 0.598999
vt 0.760904 0.901001
vt 0.715287 0.901001
vt 0.715287 0.948999
vt 0.760904 0.948999
vt 0.475189 0.001001
vt 0.381953 0.001001
vt 0.381953 0.398999
vt 0.475189 0.398999
vt 0.572430 0.948999
vt 0.665666 0.948999
vt 0.665666 0.901001
vt 0.572430 0.901001
vt 0.903761 0.851001
vt 0.858144 0.851001
vt 0.858144 0.898999
vt 0.903761 0.898999
vt 0.760904 0.398999
vt 0.760904 0.001001
vt 0.715287 0.001001
vt 0.715287 0.398999
vt 0.381953 0.598999
vt 0.760904 0.598999
vt 0.760904 0.551001
vt 0.381953 0.551001
vt 0.808523 0.398999
vt 0.808523 0.001001
vt 0.762906 0.001001
vt 0.762906 0.398999
vt 0.381953 0.648999
vt 0.760904 0.648999
vt 0.760904 0.601001
vt 0.381953 0.601001
vt 0.808523 0.798999
vt 0.808523 0.401001
vt 0.762906 0.401001
vt 0.762906 0.798999
vt 0.381953 0.698999
vt 0.760904 0.698999
vt 0.760904 0.651001
vt 0.381953 0.651001
vt 0.903761 0.901001
vt 0.858144 0.901001
vt 0.858144 0.948999
vt 0.903761 0.948999
vt 0.713285 0.901001
vt 0.667668 0.901001
vt 0.667668 0.948999
vt 0.713285 0.948999
vt 0.856142 0.798999
vt 0.856142 0.401001
vt 0.810525 0.401001
vt 0.810525 0.798999
vt 0.381953 0.798999
vt 0.760904 0.798999
vt 0.760904 0.751001
vt 0.381953 0.751001
vt 0.903761 0.398999
vt 0.903761 0.001001
vt 0.858144 0.001001
vt 0.858144 0.398999
vt 0.001001 0.848999
vt 0.379951 0.848999
vt 0.379951 0.801001
vt 0.001001 0.801001
vt 0.903761 0.798999
vt 0.903761 0.401001
vt 0.858144 0.401001
vt 0.858144 0.798999
vt 0.381953 0.848999
vt 0.760904 0.848999
vt 0.760904 0.801001
vt 0.381953 0.801001
vt 0.808523 0.901001
vt 0.762906 0.901001
vt 0.762906 0.948999
vt 0.808523 0.948999
vt 0.903761 0.801001
vt 0.858144 0.801001
vt 0.858144 0.848999
vt 0.903761 0.848999
vt 0.998999 0.398999
vt 0.998999 0.001001
vt 0.953382 0.001001
vt 0.953382 0.398999
vt 0.856142 0.901001
vt 0.810525 0.901001
vt 0.810525 0.948999
vt 0.856142 0.948999
vt 0.001001 0.948999
vt 0.379951 0.948999
vt 0.379951 0.901001
vt 0.001001 0.901001
vt 0.951380 0.398999
vt 0.951380 0.001001
vt 0.905763 0.001001
vt 0.905763 0.398999
vt 0.001001 0.898999
vt 0.379951 0.898999
vt 0.379951 0.851001
vt 0.001001 0.851001
vt 0.856142 0.398999
vt 0.856142 0.001001
vt 0.810525 0.001001
vt 0.810525 0.398999
vt 0.381953 0.898999
vt 0.760904 0.898999
vt 0.760904 0.851001
vt 0.381953 0.851001
vt 0.713285 0.398999
vt 0.713285 0.001001
vt 0.667668 0.001001
vt 0.667668 0.398999
vt 0.381953 0.498999
vt 0.760904 0.498999
vt 0.760904 0.451001
vt 0.381953 0.451001
vt 0.570428 0.398999
vt 0.570428 0.001001
vt 0.524811 0.001001
vt 0.524811 0.398999
vt 0.001001 0.748999
vt 0.379951 0.748999
vt 0.379951 0.701001
vt 0.001001 0.701001
vt 0.522809 0.398999
vt 0.522809 0.001001
vt 0.477191 0.001001
vt 0.477191 0.398999
vt 0.381953 0.748999
vt 0.760904 0.748999
vt 0.760904 0.701001
vt 0.381953 0.701001
vt 0.046618 0.951001
vt 0.001001 0.951001
vt 0.001001 0.998999
vt 0.046618 0.998999
vt 0.094237 0.382452
vt 0.066929 0.498999
vt 0.028309 0.498975
vt 0.001001 0.382394
vt 0.001001 0.217548
vt 0.028309 0.101001
vt 0.066929 0.101025
vt 0.094237 0.217606
vt 0.111994 0.098999
vt 0.001001 0.070302
vt 0.001001 0.029712
vt 0.111993 0.001007
vt 0.268959 0.001001
vt 0.379951 0.029698
vt 0.379951 0.070288
vt 0.268960 0.098993
vn 0.5000 0.0000 -0.8660
vn 1.0000 0.0000 0.0000
vn 0.5000 0.0000 0.8660
vn -0.5000 0.0000 0.8660
vn -1.0000 0.0000 0.0000
vn -0.5000 0.0000 -0.8660
vn 0.0000 -1.0000 0.0000
vn 0.0000 1.0000 0.0000
vn -0.0000 -0.7070 -0.7072
vn -0.0000 -1.0000 -0.0001
vn 0.0000 -0.7072 0.7070
vn 0.0000 -0.0001 1.0000
vn 0.0000 0.7070 0.7072
vn 0.0000 1.0000 0.0001
vn 0.0000 0.0001 -1.0000
vn 0.0000 0.7072 -0.7070
usemtl light_grey
s off
f 1/1/1 2/2/1 4/3/1 3/4/1
f 3/5/2 4/6/2 6/7/2 5/8/2
f 5/9/3 6/10/3 8/11/3 7/12/3
f 7/13/4 8/14/4 10/15/4 9/16/4
f 9/17/5 10/18/5 12/19/5 11/20/5
f 11/21/6 12/22/6 2/23/6 1/24/6
f 1/25/7 3/26/7 5/27/7 7/28/7 9/29/7 11/30/7
f 4/31/8 2/32/8 12/33/8 10/34/8 8/35/8 6/36/8
f 29/37/9 32/38/9 31/39/9 30/40/9
f 30/41/10 31/42/10 34/43/10 33/44/10
f 33/45/11 34/46/11 36/47/11 35/48/11
f 35/49/12 36/50/12 38/51/12 37/52/12
f 37/53/13 38/54/13 40/55/13 39/56/13
f 39/57/14 40/58/14 42/59/14 41/60/14
f 22/61/15 20/62/15 52/63/15 54/64/15
f 41/65/16 42/66/16 44/67/16 43/68/16
f 43/69/15 44/70/15 32/71/15 29/72/15
f 27/73/12 13/74/12 45/75/12 59/76/12
f 15/77/5 13/78/5 29/79/5 30/80/5
f 14/81/2 16/82/2 31/83/2 32/84/2
f 17/85/5 15/86/5 30/87/5 33/88/5
f 16/89/2 18/90/2 34/91/2 31/92/2
f 19/93/5 17/94/5 33/95/5 35/96/5
f 18/97/2 20/98/2 36/99/2 34/100/2
f 21/101/5 19/102/5 35/103/5 37/104/5
f 20/105/2 22/106/2 38/107/2 36/108/2
f 23/109/5 21/110/5 37/111/5 39/112/5
f 22/113/2 24/114/2 40/115/2 38/116/2
f 25/117/5 23/118/5 39/119/5 41/120/5
f 24/121/2 26/122/2 42/123/2 40/124/2
f 27/125/5 25/126/5 41/127/5 43/128/5
f 26/129/2 28/130/2 44/131/2 42/132/2
f 13/133/5 27/134/5 43/135/5 29/136/5
f 28/137/2 14/138/2 32/139/2 44/140/2
f 13/141/13 15/142/13 46/143/13 45/144/13
f 14/145/12 28/146/12 60/147/12 48/148/12
f 21/149/9 23/150/9 55/151/9 53/152/9
f 16/153/13 14/154/13 48/155/13 47/156/13
f 24/157/9 22/158/9 54/159/9 56/160/9
f 15/161/14 17/162/14 49/163/14 46/164/14
f 23/165/10 25/166/10 57/167/10 55/168/10
f 18/169/14 16/170/14 47/171/14 50/172/14
f 26/173/10 24/174/10 56/175/10 58/176/10
f 17/177/16 19/178/16 51/179/16 49/180/16
f 25/181/11 27/182/11 59/183/11 57/184/11
f 20/185/16 18/186/16 50/187/16 52/188/16
f 28/189/11 26/190/11 58/191/11 60/192/11
f 19/193/15 21/194/15 53/195/15 51/196/15
usemtl red
f 47/197/2 48/198/2 60/199/2 58/200/2 56/201/2 54/202/2 52/203/2 50/204/2
f 45/205/5 46/206/5 49/207/5 51/208/5 53/209/5 55/210/5 57/211/5 59/212/5
