# Blender v2.80 (sub 75) OBJ File: 'street props pack.blend'
# www.blender.org
mtllib sewer lid.mtl
o Cylinder.005_Cylinder.010
v 0.168957 0.037323 12.556307
v 0.168957 0.137669 12.675718
v 0.836178 0.037323 12.735088
v 0.776473 0.137669 12.838502
v 1.324619 0.037323 13.223529
v 1.221206 0.137669 13.283235
v 1.503400 0.037323 13.890751
v 1.383989 0.137669 13.890751
v 1.324619 0.037323 14.557973
v 1.221206 0.137669 14.498267
v 0.836178 0.037323 15.046413
v 0.776473 0.137669 14.943000
v 0.168957 0.037323 15.225195
v 0.168957 0.137669 15.105783
v -0.498265 0.037323 15.046413
v -0.438560 0.137669 14.943000
v -0.986705 0.037323 14.557973
v -0.883292 0.137669 14.498267
v -1.165487 0.037323 13.890752
v -1.046076 0.137669 13.890752
v -0.986706 0.037323 13.223530
v -0.883293 0.137669 13.283236
v -0.498266 0.037323 12.735089
v -0.438561 0.137669 12.838502
v 0.836178 0.137669 12.735088
v 0.168957 0.137669 12.556307
v 1.324619 0.137669 13.223529
v 1.503400 0.137669 13.890751
v 1.324619 0.137669 14.557973
v 0.836178 0.137669 15.046413
v 0.168957 0.137669 15.225195
v -0.498265 0.137669 15.046413
v -0.986705 0.137669 14.557973
v -1.165487 0.137669 13.890752
v -0.986706 0.137669 13.223530
v -0.498266 0.137669 12.735089
v 0.761937 0.067906 12.863679
v 0.168957 0.067906 12.704790
v 1.196028 0.067906 13.297771
v 1.354917 0.067906 13.890751
v 1.196028 0.067906 14.483731
v 0.761937 0.067906 14.917823
v 0.168957 0.067906 15.076712
v -0.424023 0.067906 14.917823
v -0.858115 0.067906 14.483731
v -1.017004 0.067906 13.890752
v -0.858116 0.067906 13.297771
v -0.424024 0.067906 12.863680
v 0.776473 0.067906 12.838502
v 0.168957 0.067906 12.675718
v 1.221206 0.067906 13.283235
v 1.383989 0.067906 13.890751
v 1.221206 0.067906 14.498267
v 0.776473 0.067906 14.943000
v 0.168957 0.067906 15.105783
v -0.438560 0.067906 14.943000
v -0.883292 0.067906 14.498267
v -1.046076 0.067906 13.890752
v -0.883293 0.067906 13.283236
v -0.438561 0.067906 12.838502
v 0.714137 0.157361 12.946470
v 0.168957 0.157361 12.800389
v 1.113238 0.157361 13.345570
v 1.259318 0.157361 13.890751
v 1.113238 0.157361 14.435932
v 0.714137 0.157361 14.835032
v 0.168957 0.157361 14.981112
v -0.376224 0.157361 14.835032
v -0.775324 0.157361 14.435932
v -0.921405 0.157361 13.890751
v -0.775325 0.157361 13.345571
v -0.376225 0.157361 12.946470
v 0.761937 0.157361 12.863679
v 0.168957 0.157361 12.704790
v 1.196028 0.157361 13.297771
v 1.354917 0.157361 13.890751
v 1.196028 0.157361 14.483731
v 0.761937 0.157361 14.917823
v 0.168957 0.157361 15.076712
v -0.424023 0.157361 14.917823
v -0.858115 0.157361 14.483731
v -1.017004 0.157361 13.890752
v -0.858116 0.157361 13.297771
v -0.424024 0.157361 12.863680
v 0.213725 0.145435 14.610964
v 0.168957 0.145435 14.598969
v 0.246497 0.145435 14.643737
v 0.258493 0.145435 14.688505
v 0.246497 0.145435 14.733274
v 0.213725 0.145435 14.766046
v 0.168957 0.145435 14.778041
v 0.124188 0.145435 14.766046
v 0.091416 0.145435 14.733274
v 0.079420 0.145435 14.688505
v 0.091416 0.145435 14.643737
v 0.124188 0.145435 14.610965
v 0.714137 0.145435 12.946470
v 0.168957 0.145435 12.800389
v 1.113238 0.145435 13.345570
v 1.259318 0.145435 13.890751
v 1.113238 0.145435 14.435932
v 0.714137 0.145435 14.835032
v 0.168957 0.145435 14.981112
v -0.376224 0.145435 14.835032
v -0.775324 0.145435 14.435932
v -0.921405 0.145435 13.890751
v -0.775325 0.145435 13.345571
v -0.376225 0.145435 12.946470
v 0.213725 0.104859 14.610964
v 0.168957 0.104859 14.598969
v 0.246497 0.104859 14.643737
v 0.258493 0.104859 14.688505
v 0.246497 0.104859 14.733274
v 0.213725 0.104859 14.766046
v 0.168957 0.104859 14.778041
v 0.124188 0.104859 14.766046
v 0.091416 0.104859 14.733274
v 0.079420 0.104859 14.688505
v 0.091416 0.104859 14.643737
v 0.124188 0.104859 14.610965
vt 0.883614 0.126001
vt 0.847155 0.126001
vt 0.847155 0.248999
vt 0.883614 0.248999
vt 0.768230 0.467749
vt 0.768230 0.438501
vt 0.616386 0.438501
vt 0.616386 0.467749
vt 0.652845 0.001001
vt 0.616386 0.001001
vt 0.616386 0.123999
vt 0.652845 0.123999
vt 0.768230 0.155249
vt 0.768230 0.126001
vt 0.616386 0.126001
vt 0.616386 0.155249
vt 0.652845 0.157251
vt 0.616386 0.157251
vt 0.616386 0.280249
vt 0.652845 0.280249
vt 0.768230 0.311499
vt 0.768230 0.282251
vt 0.616386 0.282251
vt 0.616386 0.311499
vt 0.652845 0.313501
vt 0.616386 0.313501
vt 0.616386 0.436499
vt 0.652845 0.436499
vt 0.768230 0.623999
vt 0.768230 0.594751
vt 0.616386 0.594751
vt 0.616386 0.623999
vt 0.691307 0.001001
vt 0.654847 0.001001
vt 0.654847 0.123999
vt 0.691307 0.123999
vt 0.768230 0.498999
vt 0.768230 0.469751
vt 0.616386 0.469751
vt 0.616386 0.498999
vt 0.979768 0.498999
vt 0.979768 0.376001
vt 0.962539 0.376001
vt 0.962539 0.498999
vt 0.768230 0.592749
vt 0.768230 0.563501
vt 0.616386 0.563501
vt 0.616386 0.592749
vt 0.691307 0.157251
vt 0.654847 0.157251
vt 0.654847 0.280249
vt 0.691307 0.280249
vt 0.614384 0.683281
vt 0.614384 0.816719
vt 0.532206 0.932280
vt 0.389870 0.998999
vt 0.225515 0.998999
vt 0.083179 0.932280
vt 0.001001 0.816719
vt 0.001001 0.683281
vt 0.083179 0.567720
vt 0.225514 0.501001
vt 0.389870 0.501001
vt 0.532206 0.567720
vt 0.654847 0.342749
vt 0.806691 0.342749
vt 0.806691 0.313501
vt 0.654847 0.313501
vt 0.729768 0.123999
vt 0.729768 0.001001
vt 0.693309 0.001001
vt 0.693309 0.123999
vt 0.654847 0.373999
vt 0.806691 0.373999
vt 0.806691 0.344751
vt 0.654847 0.344751
vt 0.729768 0.280249
vt 0.729768 0.157251
vt 0.693309 0.157251
vt 0.693309 0.280249
vt 0.654847 0.405249
vt 0.806691 0.405249
vt 0.806691 0.376001
vt 0.654847 0.376001
vt 0.768230 0.123999
vt 0.768230 0.001001
vt 0.731770 0.001001
vt 0.731770 0.123999
vt 0.654847 0.436499
vt 0.806691 0.436499
vt 0.806691 0.407251
vt 0.654847 0.407251
vt 0.768230 0.280249
vt 0.768230 0.157251
vt 0.731770 0.157251
vt 0.731770 0.280249
vt 0.616386 0.655249
vt 0.768230 0.655249
vt 0.768230 0.626001
vt 0.616386 0.626001
vt 0.806691 0.123999
vt 0.806691 0.001001
vt 0.770232 0.001001
vt 0.770232 0.123999
vt 0.693309 0.530249
vt 0.845153 0.530249
vt 0.845153 0.501001
vt 0.693309 0.501001
vt 0.806691 0.248999
vt 0.806691 0.126001
vt 0.770232 0.126001
vt 0.770232 0.248999
vt 0.922076 0.623999
vt 0.922076 0.501001
vt 0.904847 0.501001
vt 0.904847 0.623999
vt 0.616386 0.780249
vt 0.768230 0.780249
vt 0.768230 0.766626
vt 0.616386 0.766626
vt 0.922076 0.373999
vt 0.922076 0.251001
vt 0.904847 0.251001
vt 0.904847 0.373999
vt 0.808693 0.436499
vt 0.960537 0.436499
vt 0.960537 0.422876
vt 0.808693 0.422876
vt 0.922076 0.248999
vt 0.922076 0.126001
vt 0.904847 0.126001
vt 0.904847 0.248999
vt 0.808693 0.420874
vt 0.960537 0.420874
vt 0.960537 0.407251
vt 0.808693 0.407251
vt 0.922076 0.123999
vt 0.922076 0.001001
vt 0.904847 0.001001
vt 0.904847 0.123999
vt 0.808693 0.405249
vt 0.960537 0.405249
vt 0.960537 0.391626
vt 0.808693 0.391626
vt 0.902845 0.623999
vt 0.902845 0.501001
vt 0.885616 0.501001
vt 0.885616 0.623999
vt 0.808693 0.389624
vt 0.960537 0.389624
vt 0.960537 0.376001
vt 0.808693 0.376001
vt 0.902845 0.373999
vt 0.902845 0.251001
vt 0.885616 0.251001
vt 0.885616 0.373999
vt 0.770232 0.764624
vt 0.922076 0.764624
vt 0.922076 0.751001
vt 0.770232 0.751001
vt 0.864384 0.373999
vt 0.864384 0.251001
vt 0.847155 0.251001
vt 0.847155 0.373999
vt 0.770232 0.702124
vt 0.922076 0.702124
vt 0.922076 0.688501
vt 0.770232 0.688501
vt 0.864384 0.623999
vt 0.864384 0.501001
vt 0.847155 0.501001
vt 0.847155 0.623999
vt 0.770232 0.717749
vt 0.922076 0.717749
vt 0.922076 0.704126
vt 0.770232 0.704126
vt 0.883614 0.373999
vt 0.883614 0.251001
vt 0.866386 0.251001
vt 0.866386 0.373999
vt 0.770232 0.733374
vt 0.922076 0.733374
vt 0.922076 0.719751
vt 0.770232 0.719751
vt 0.883614 0.623999
vt 0.883614 0.501001
vt 0.866386 0.501001
vt 0.866386 0.623999
vt 0.770232 0.748999
vt 0.922076 0.748999
vt 0.922076 0.735376
vt 0.770232 0.735376
vt 0.902845 0.123999
vt 0.902845 0.001001
vt 0.885616 0.001001
vt 0.885616 0.123999
vt 0.616386 0.764624
vt 0.768230 0.764624
vt 0.768230 0.751001
vt 0.616386 0.751001
vt 0.902845 0.248999
vt 0.902845 0.126001
vt 0.885616 0.126001
vt 0.885616 0.248999
vt 0.941307 0.719751
vt 0.924078 0.719751
vt 0.924078 0.733374
vt 0.941307 0.733374
vt 0.941307 0.579126
vt 0.924078 0.579126
vt 0.924078 0.592749
vt 0.941307 0.592749
vt 0.787461 0.282251
vt 0.770232 0.282251
vt 0.770232 0.295874
vt 0.787461 0.295874
vt 0.787461 0.297876
vt 0.770232 0.297876
vt 0.770232 0.311499
vt 0.787461 0.311499
vt 0.806691 0.282251
vt 0.789463 0.282251
vt 0.789463 0.295874
vt 0.806691 0.295874
vt 0.806691 0.297876
vt 0.789463 0.297876
vt 0.789463 0.311499
vt 0.806691 0.311499
vt 0.941307 0.563501
vt 0.924078 0.563501
vt 0.924078 0.577124
vt 0.941307 0.577124
vt 0.941307 0.735376
vt 0.924078 0.735376
vt 0.924078 0.748999
vt 0.941307 0.748999
vt 0.941307 0.594751
vt 0.924078 0.594751
vt 0.924078 0.608374
vt 0.941307 0.608374
vt 0.941307 0.610376
vt 0.924078 0.610376
vt 0.924078 0.623999
vt 0.941307 0.623999
vt 0.941307 0.688501
vt 0.924078 0.688501
vt 0.924078 0.702124
vt 0.941307 0.702124
vt 0.941307 0.704126
vt 0.924078 0.704126
vt 0.924078 0.717749
vt 0.941307 0.717749
vt 0.691307 0.501001
vt 0.616386 0.501001
vt 0.616386 0.561499
vt 0.691307 0.561499
vt 0.532206 0.432280
vt 0.389870 0.498999
vt 0.225514 0.498999
vt 0.083179 0.432280
vt 0.001001 0.316719
vt 0.001001 0.183281
vt 0.118244 0.111158
vt 0.118244 0.122115
vt 0.124993 0.131605
vt 0.136681 0.137083
vt 0.150177 0.137083
vt 0.161865 0.131605
vt 0.168613 0.122115
vt 0.168613 0.111158
vt 0.161865 0.101668
vt 0.150177 0.096190
vt 0.136681 0.096190
vt 0.124993 0.101668
vt 0.083179 0.067720
vt 0.225515 0.001001
vt 0.389870 0.001001
vt 0.532206 0.067720
vt 0.614384 0.183281
vt 0.614384 0.316719
vt 0.693309 0.561499
vt 0.845153 0.561499
vt 0.845153 0.532251
vt 0.693309 0.532251
vt 0.770232 0.842749
vt 0.922076 0.842749
vt 0.922076 0.829126
vt 0.770232 0.829126
vt 0.883614 0.123999
vt 0.883614 0.001001
vt 0.847155 0.001001
vt 0.847155 0.123999
vt 0.616386 0.748999
vt 0.768230 0.748999
vt 0.768230 0.719751
vt 0.616386 0.719751
vt 0.845153 0.686499
vt 0.845153 0.563501
vt 0.808693 0.563501
vt 0.808693 0.686499
vt 0.770232 0.498999
vt 0.922076 0.498999
vt 0.922076 0.469751
vt 0.770232 0.469751
vt 0.806691 0.686499
vt 0.806691 0.563501
vt 0.770232 0.563501
vt 0.770232 0.686499
vt 0.770232 0.467749
vt 0.922076 0.467749
vt 0.922076 0.438501
vt 0.770232 0.438501
vt 0.845153 0.373999
vt 0.845153 0.251001
vt 0.808693 0.251001
vt 0.808693 0.373999
vt 0.616386 0.717749
vt 0.768230 0.717749
vt 0.768230 0.688501
vt 0.616386 0.688501
vt 0.845153 0.248999
vt 0.845153 0.126001
vt 0.808693 0.126001
vt 0.808693 0.248999
vt 0.616386 0.686499
vt 0.768230 0.686499
vt 0.768230 0.657251
vt 0.616386 0.657251
vt 0.845153 0.123999
vt 0.845153 0.001001
vt 0.808693 0.001001
vt 0.808693 0.123999
vt 0.770232 0.780249
vt 0.922076 0.780249
vt 0.922076 0.766626
vt 0.770232 0.766626
vt 0.941307 0.123999
vt 0.941307 0.001001
vt 0.924078 0.001001
vt 0.924078 0.123999
vt 0.616386 0.795874
vt 0.768230 0.795874
vt 0.768230 0.782251
vt 0.616386 0.782251
vt 0.941307 0.248999
vt 0.941307 0.126001
vt 0.924078 0.126001
vt 0.924078 0.248999
vt 0.770232 0.795874
vt 0.922076 0.795874
vt 0.922076 0.782251
vt 0.770232 0.782251
vt 0.941307 0.373999
vt 0.941307 0.251001
vt 0.924078 0.251001
vt 0.924078 0.373999
vt 0.616386 0.811499
vt 0.768230 0.811499
vt 0.768230 0.797876
vt 0.616386 0.797876
vt 0.941307 0.561499
vt 0.941307 0.438501
vt 0.924078 0.438501
vt 0.924078 0.561499
vt 0.847155 0.639624
vt 0.998999 0.639624
vt 0.998999 0.626001
vt 0.847155 0.626001
vt 0.960537 0.123999
vt 0.960537 0.001001
vt 0.943309 0.001001
vt 0.943309 0.123999
vt 0.847155 0.655249
vt 0.998999 0.655249
vt 0.998999 0.641626
vt 0.847155 0.641626
vt 0.960537 0.248999
vt 0.960537 0.126001
vt 0.943309 0.126001
vt 0.943309 0.248999
vt 0.847155 0.670874
vt 0.998999 0.670874
vt 0.998999 0.657251
vt 0.847155 0.657251
vt 0.960537 0.373999
vt 0.960537 0.251001
vt 0.943309 0.251001
vt 0.943309 0.373999
vt 0.847155 0.686499
vt 0.998999 0.686499
vt 0.998999 0.672876
vt 0.847155 0.672876
vt 0.960537 0.561499
vt 0.960537 0.438501
vt 0.943309 0.438501
vt 0.943309 0.561499
vt 0.770232 0.811499
vt 0.922076 0.811499
vt 0.922076 0.797876
vt 0.770232 0.797876
vt 0.979768 0.123999
vt 0.979768 0.001001
vt 0.962539 0.001001
vt 0.962539 0.123999
vt 0.616386 0.827124
vt 0.768230 0.827124
vt 0.768230 0.813501
vt 0.616386 0.813501
vt 0.979768 0.248999
vt 0.979768 0.126001
vt 0.962539 0.126001
vt 0.962539 0.248999
vt 0.770232 0.827124
vt 0.922076 0.827124
vt 0.922076 0.813501
vt 0.770232 0.813501
vt 0.979768 0.373999
vt 0.979768 0.251001
vt 0.962539 0.251001
vt 0.962539 0.373999
vt 0.616386 0.842749
vt 0.768230 0.842749
vt 0.768230 0.829126
vt 0.616386 0.829126
vt 0.775116 0.276331
vt 0.770232 0.269543
vt 0.770232 0.261706
vt 0.775116 0.254919
vt 0.783577 0.251001
vt 0.793346 0.251001
vt 0.801807 0.254919
vt 0.806691 0.261707
vt 0.806691 0.269543
vt 0.801807 0.276331
vt 0.793346 0.280249
vt 0.783577 0.280249
vn 0.2588 0.0000 -0.9659
vn 0.7071 0.0000 -0.7071
vn 0.9659 0.0000 -0.2588
vn 0.9659 0.0000 0.2588
vn 0.7071 0.0000 0.7071
vn 0.2588 0.0000 0.9659
vn -0.2588 0.0000 0.9659
vn -0.7071 0.0000 0.7071
vn -0.9659 0.0000 0.2588
vn -0.9659 0.0000 -0.2588
vn -0.7071 0.0000 -0.7071
vn -0.2588 0.0000 -0.9659
vn 0.0000 -1.0000 0.0000
vn 0.0000 1.0000 -0.0000
usemtl Grey
s off
f 1/1/1 26/2/1 25/3/1 3/4/1
f 3/5/2 25/6/2 27/7/2 5/8/2
f 5/9/3 27/10/3 28/11/3 7/12/3
f 7/13/4 28/14/4 29/15/4 9/16/4
f 9/17/5 29/18/5 30/19/5 11/20/5
f 11/21/6 30/22/6 31/23/6 13/24/6
f 13/25/7 31/26/7 32/27/7 15/28/7
f 15/29/8 32/30/8 33/31/8 17/32/8
f 17/33/9 33/34/9 34/35/9 19/36/9
f 19/37/10 34/38/10 35/39/10 21/40/10
f 8/41/9 6/42/9 51/43/9 52/44/9
f 21/45/11 35/46/11 36/47/11 23/48/11
f 23/49/12 36/50/12 26/51/12 1/52/12
f 1/53/13 3/54/13 5/55/13 7/56/13 9/57/13 11/58/13 13/59/13 15/60/13 17/61/13 19/62/13 21/63/13 23/64/13
f 2/65/14 4/66/14 25/67/14 26/68/14
f 4/69/14 6/70/14 27/71/14 25/72/14
f 6/73/14 8/74/14 28/75/14 27/76/14
f 8/77/14 10/78/14 29/79/14 28/80/14
f 10/81/14 12/82/14 30/83/14 29/84/14
f 12/85/14 14/86/14 31/87/14 30/88/14
f 14/89/14 16/90/14 32/91/14 31/92/14
f 16/93/14 18/94/14 33/95/14 32/96/14
f 18/97/14 20/98/14 34/99/14 33/100/14
f 20/101/14 22/102/14 35/103/14 34/104/14
f 22/105/14 24/106/14 36/107/14 35/108/14
f 24/109/14 2/110/14 26/111/14 36/112/14
f 22/113/4 20/114/4 58/115/4 59/116/4
f 16/117/1 14/118/1 55/119/1 56/120/1
f 10/121/10 8/122/10 52/123/10 53/124/10
f 24/125/5 22/126/5 59/127/5 60/128/5
f 4/129/7 2/130/7 50/131/7 49/132/7
f 18/133/2 16/134/2 56/135/2 57/136/2
f 12/137/11 10/138/11 53/139/11 54/140/11
f 2/141/6 24/142/6 60/143/6 50/144/6
f 6/145/8 4/146/8 49/147/8 51/148/8
f 20/149/3 18/150/3 57/151/3 58/152/3
f 14/153/12 12/154/12 54/155/12 55/156/12
f 38/157/14 37/158/14 49/159/14 50/160/14
f 37/161/14 39/162/14 51/163/14 49/164/14
f 39/165/14 40/166/14 52/167/14 51/168/14
f 40/169/14 41/170/14 53/171/14 52/172/14
f 41/173/14 42/174/14 54/175/14 53/176/14
f 42/177/14 43/178/14 55/179/14 54/180/14
f 43/181/14 44/182/14 56/183/14 55/184/14
f 44/185/14 45/186/14 57/187/14 56/188/14
f 45/189/14 46/190/14 58/191/14 57/192/14
f 46/193/14 47/194/14 59/195/14 58/196/14
f 47/197/14 48/198/14 60/199/14 59/200/14
f 48/201/14 38/202/14 50/203/14 60/204/14
f 89/205/10 88/206/10 112/207/10 113/208/10
f 96/209/5 95/210/5 119/211/5 120/212/5
f 85/213/7 86/214/7 110/215/7 109/216/7
f 93/217/2 92/218/2 116/219/2 117/220/2
f 90/221/11 89/222/11 113/223/11 114/224/11
f 86/225/6 96/226/6 120/227/6 110/228/6
f 87/229/8 85/230/8 109/231/8 111/232/8
f 94/233/3 93/234/3 117/235/3 118/236/3
f 91/237/12 90/238/12 114/239/12 115/240/12
f 88/241/9 87/242/9 111/243/9 112/244/9
f 95/245/4 94/246/4 118/247/4 119/248/4
f 92/249/1 91/250/1 115/251/1 116/252/1
f 103/253/14 91/254/14 92/255/14 104/256/14
f 98/257/14 108/258/14 107/259/14 106/260/14 105/261/14 104/262/14 92/263/14 93/264/14 94/265/14 95/266/14 96/267/14 86/268/14 85/269/14 87/270/14 88/271/14 89/272/14 90/273/14 91/274/14 103/275/14 102/276/14 101/277/14 100/278/14 99/279/14 97/280/14
usemtl Black
f 43/281/6 42/282/6 78/283/6 79/284/6
f 70/285/3 69/286/3 105/287/3 106/288/3
f 40/289/3 39/290/3 75/291/3 76/292/3
f 47/293/10 46/294/10 82/295/10 83/296/10
f 44/297/7 43/298/7 79/299/7 80/300/7
f 41/301/4 40/302/4 76/303/4 77/304/4
f 48/305/11 47/306/11 83/307/11 84/308/11
f 37/309/1 38/310/1 74/311/1 73/312/1
f 45/313/8 44/314/8 80/315/8 81/316/8
f 42/317/5 41/318/5 77/319/5 78/320/5
f 38/321/12 48/322/12 84/323/12 74/324/12
f 39/325/2 37/326/2 73/327/2 75/328/2
f 46/329/9 45/330/9 81/331/9 82/332/9
f 62/333/14 61/334/14 73/335/14 74/336/14
f 61/337/14 63/338/14 75/339/14 73/340/14
f 63/341/14 64/342/14 76/343/14 75/344/14
f 64/345/14 65/346/14 77/347/14 76/348/14
f 65/349/14 66/350/14 78/351/14 77/352/14
f 66/353/14 67/354/14 79/355/14 78/356/14
f 67/357/14 68/358/14 80/359/14 79/360/14
f 68/361/14 69/362/14 81/363/14 80/364/14
f 69/365/14 70/366/14 82/367/14 81/368/14
f 70/369/14 71/370/14 83/371/14 82/372/14
f 71/373/14 72/374/14 84/375/14 83/376/14
f 72/377/14 62/378/14 74/379/14 84/380/14
f 67/381/12 66/382/12 102/383/12 103/384/12
f 64/385/9 63/386/9 99/387/9 100/388/9
f 71/389/4 70/390/4 106/391/4 107/392/4
f 68/393/1 67/394/1 103/395/1 104/396/1
f 65/397/10 64/398/10 100/399/10 101/400/10
f 72/401/5 71/402/5 107/403/5 108/404/5
f 61/405/7 62/406/7 98/407/7 97/408/7
f 69/409/2 68/410/2 104/411/2 105/412/2
f 66/413/11 65/414/11 101/415/11 102/416/11
f 62/417/6 72/418/6 108/419/6 98/420/6
f 63/421/8 61/422/8 97/423/8 99/424/8
f 109/425/14 110/426/14 120/427/14 119/428/14 118/429/14 117/430/14 116/431/14 115/432/14 114/433/14 113/434/14 112/435/14 111/436/14
