# Blender v2.80 (sub 75) OBJ File: 'street props pack.blend'
# www.blender.org
mtllib wire pole.mtl
o Cylinder.011
v 0.000000 -0.294683 74.421730
v 0.000000 14.901354 74.421730
v 0.264060 -0.294683 74.531105
v 0.264060 14.901354 74.531105
v 0.373438 -0.294683 74.795166
v 0.373438 14.901354 74.795166
v 0.264060 -0.294683 75.059227
v 0.264060 14.901354 75.059227
v -0.000000 -0.294683 75.168602
v -0.000000 14.901354 75.168602
v -0.264060 -0.294683 75.059227
v -0.264060 14.901354 75.059227
v -0.373438 -0.294683 74.795166
v -0.373438 14.901354 74.795166
v -0.264060 -0.294683 74.531105
v -0.264060 14.901354 74.531105
v -1.845898 12.936110 75.291862
v -1.845898 13.568591 75.291862
v -1.845898 12.936110 75.166275
v -1.845898 13.568591 75.166275
v 1.845898 12.936110 75.291862
v 1.845898 13.568591 75.291862
v 1.845898 12.936110 75.166275
v 1.845898 13.568591 75.166275
v 1.404626 13.568037 75.038422
v 1.404626 14.060688 75.038422
v 1.572445 13.568037 75.135315
v 1.572445 14.060688 75.135315
v 1.572445 13.568037 75.329094
v 1.572445 14.060688 75.329094
v 1.404626 13.568037 75.425987
v 1.404626 14.060688 75.425987
v 1.236807 13.568037 75.329094
v 1.236807 14.060688 75.329094
v 1.236807 13.568037 75.135315
v 1.236807 14.060688 75.135315
v 1.404626 13.650146 75.113243
v 1.404626 13.732254 75.038422
v 1.404626 13.814363 75.113243
v 1.404626 13.896471 75.038422
v 1.404626 13.978580 75.113243
v 1.507649 13.978580 75.172722
v 1.572445 13.896471 75.135315
v 1.507649 13.814363 75.172722
v 1.572445 13.732254 75.135315
v 1.507649 13.650146 75.172722
v 1.507649 13.978580 75.291687
v 1.572445 13.896471 75.329094
v 1.507649 13.814363 75.291687
v 1.572445 13.732254 75.329094
v 1.507649 13.650146 75.291687
v 1.404626 13.978580 75.351166
v 1.404626 13.896471 75.425987
v 1.404626 13.814363 75.351166
v 1.404626 13.732254 75.425987
v 1.404626 13.650146 75.351166
v 1.301602 13.978580 75.291687
v 1.236807 13.896471 75.329094
v 1.301602 13.814363 75.291687
v 1.236807 13.732254 75.329094
v 1.301602 13.650146 75.291687
v 1.301602 13.978580 75.172722
v 1.236807 13.896471 75.135315
v 1.301602 13.814363 75.172722
v 1.236807 13.732254 75.135315
v 1.301602 13.650146 75.172722
v -1.402324 13.568037 75.038422
v -1.402324 14.060688 75.038422
v -1.234505 13.568037 75.135315
v -1.234505 14.060688 75.135315
v -1.234505 13.568037 75.329094
v -1.234505 14.060688 75.329094
v -1.402324 13.568037 75.425987
v -1.402324 14.060688 75.425987
v -1.570143 13.568037 75.329094
v -1.570143 14.060688 75.329094
v -1.570143 13.568037 75.135315
v -1.570143 14.060688 75.135315
v -1.402324 13.650146 75.113243
v -1.402324 13.732254 75.038422
v -1.402324 13.814363 75.113243
v -1.402324 13.896471 75.038422
v -1.402324 13.978580 75.113243
v -1.299300 13.978580 75.172722
v -1.234505 13.896471 75.135315
v -1.299300 13.814363 75.172722
v -1.234505 13.732254 75.135315
v -1.299300 13.650146 75.172722
v -1.299300 13.978580 75.291687
v -1.234505 13.896471 75.329094
v -1.299300 13.814363 75.291687
v -1.234505 13.732254 75.329094
v -1.299300 13.650146 75.291687
v -1.402324 13.978580 75.351166
v -1.402324 13.896471 75.425987
v -1.402324 13.814363 75.351166
v -1.402324 13.732254 75.425987
v -1.402324 13.650146 75.351166
v -1.505347 13.978580 75.291687
v -1.570143 13.896471 75.329094
v -1.505347 13.814363 75.291687
v -1.570143 13.732254 75.329094
v -1.505347 13.650146 75.291687
v -1.505347 13.978580 75.172722
v -1.570143 13.896471 75.135315
v -1.505347 13.814363 75.172722
v -1.570143 13.732254 75.135315
v -1.505347 13.650146 75.172722
vt 0.116646 0.469587
vt 0.116646 0.001001
vt 0.001001 0.001001
vt 0.001001 0.469587
vt 0.001001 0.587234
vt 0.469587 0.587234
vt 0.469587 0.471589
vt 0.001001 0.471589
vt 0.234293 0.469587
vt 0.234293 0.001001
vt 0.118648 0.001001
vt 0.118648 0.469587
vt 0.001001 0.704881
vt 0.469587 0.704881
vt 0.469587 0.589236
vt 0.001001 0.589236
vt 0.351940 0.469587
vt 0.351940 0.001001
vt 0.236295 0.001001
vt 0.236295 0.469587
vt 0.353942 0.116646
vt 0.822528 0.116646
vt 0.822528 0.001001
vt 0.353942 0.001001
vt 0.353942 0.186978
vt 0.422272 0.118648
vt 0.518905 0.118648
vt 0.587234 0.186978
vt 0.587234 0.283611
vt 0.518905 0.351940
vt 0.422272 0.351940
vt 0.353942 0.283610
vt 0.704881 0.587234
vt 0.704881 0.118648
vt 0.589236 0.118648
vt 0.589236 0.587234
vt 0.001001 0.822528
vt 0.469587 0.822528
vt 0.469587 0.706883
vt 0.001001 0.706883
vt 0.539919 0.822528
vt 0.471589 0.754199
vt 0.471589 0.657566
vt 0.539919 0.589236
vt 0.636552 0.589236
vt 0.704881 0.657566
vt 0.704881 0.754199
vt 0.636552 0.822528
vt 0.704881 0.883354
vt 0.648060 0.883354
vt 0.648060 0.940175
vt 0.704881 0.940175
vt 0.763705 0.118648
vt 0.706883 0.118648
vt 0.706883 0.587234
vt 0.763705 0.587234
vt 0.881352 0.471589
vt 0.824530 0.471589
vt 0.824530 0.528411
vt 0.881352 0.528411
vt 0.469587 0.881352
vt 0.469587 0.824530
vt 0.001001 0.824530
vt 0.001001 0.881352
vt 0.822528 0.587234
vt 0.822528 0.118648
vt 0.765707 0.118648
vt 0.765707 0.587234
vt 0.001001 0.940175
vt 0.469587 0.940175
vt 0.469587 0.883354
vt 0.001001 0.883354
vt 0.881352 0.059825
vt 0.824530 0.059825
vt 0.824530 0.116646
vt 0.881352 0.116646
vt 0.822528 0.706883
vt 0.765707 0.706883
vt 0.765707 0.763705
vt 0.822528 0.763705
vt 0.763705 0.706883
vt 0.706883 0.706883
vt 0.706883 0.763705
vt 0.763705 0.763705
vt 0.763705 0.765707
vt 0.706883 0.765707
vt 0.706883 0.822528
vt 0.763705 0.822528
vt 0.764706 0.589236
vt 0.822528 0.618147
vt 0.822528 0.675970
vt 0.764706 0.704881
vt 0.706883 0.675970
vt 0.706883 0.618148
vt 0.822528 0.765707
vt 0.765707 0.765707
vt 0.765707 0.822528
vt 0.822528 0.822528
vt 0.881352 0.001001
vt 0.824530 0.001001
vt 0.824530 0.057823
vt 0.881352 0.057823
vt 0.587234 0.500501
vt 0.587234 0.558323
vt 0.529412 0.587234
vt 0.471589 0.558323
vt 0.471589 0.500501
vt 0.529412 0.471589
vt 0.881352 0.118648
vt 0.824530 0.118648
vt 0.824530 0.175470
vt 0.881352 0.175470
vt 0.881352 0.177472
vt 0.824530 0.177472
vt 0.824530 0.234293
vt 0.881352 0.234293
vt 0.881352 0.236295
vt 0.824530 0.236295
vt 0.824530 0.293117
vt 0.881352 0.293117
vt 0.881352 0.295119
vt 0.824530 0.295119
vt 0.824530 0.351940
vt 0.881352 0.351940
vt 0.881352 0.353942
vt 0.824530 0.353942
vt 0.824530 0.410764
vt 0.881352 0.410764
vt 0.881352 0.412766
vt 0.824530 0.412766
vt 0.824530 0.469587
vt 0.881352 0.469587
vt 0.528411 0.824530
vt 0.471589 0.824530
vt 0.471589 0.881352
vt 0.528411 0.881352
vt 0.940175 0.765707
vt 0.883354 0.765707
vt 0.883354 0.822528
vt 0.940175 0.822528
vt 0.587234 0.824530
vt 0.530413 0.824530
vt 0.530413 0.881352
vt 0.587234 0.881352
vt 0.881352 0.530413
vt 0.824530 0.530413
vt 0.824530 0.587234
vt 0.881352 0.587234
vt 0.881352 0.589236
vt 0.824530 0.589236
vt 0.824530 0.646058
vt 0.881352 0.646058
vt 0.646058 0.824530
vt 0.589236 0.824530
vt 0.589236 0.881352
vt 0.646058 0.881352
vt 0.881352 0.648060
vt 0.824530 0.648060
vt 0.824530 0.704881
vt 0.881352 0.704881
vt 0.704881 0.824530
vt 0.648060 0.824530
vt 0.648060 0.881352
vt 0.704881 0.881352
vt 0.881352 0.706883
vt 0.824530 0.706883
vt 0.824530 0.763705
vt 0.881352 0.763705
vt 0.763705 0.824530
vt 0.706883 0.824530
vt 0.706883 0.881352
vt 0.763705 0.881352
vt 0.881352 0.765707
vt 0.824530 0.765707
vt 0.824530 0.822528
vt 0.881352 0.822528
vt 0.822528 0.824530
vt 0.765707 0.824530
vt 0.765707 0.881352
vt 0.822528 0.881352
vt 0.881352 0.824530
vt 0.824530 0.824530
vt 0.824530 0.881352
vt 0.881352 0.881352
vt 0.940175 0.001001
vt 0.883354 0.001001
vt 0.883354 0.057823
vt 0.940175 0.057823
vt 0.940175 0.059825
vt 0.883354 0.059825
vt 0.883354 0.116646
vt 0.940175 0.116646
vt 0.940175 0.118648
vt 0.883354 0.118648
vt 0.883354 0.175470
vt 0.940175 0.175470
vt 0.940175 0.177472
vt 0.883354 0.177472
vt 0.883354 0.234293
vt 0.940175 0.234293
vt 0.940175 0.236295
vt 0.883354 0.236295
vt 0.883354 0.293117
vt 0.940175 0.293117
vt 0.940175 0.295119
vt 0.883354 0.295119
vt 0.883354 0.351940
vt 0.940175 0.351940
vt 0.940175 0.353942
vt 0.883354 0.353942
vt 0.883354 0.410764
vt 0.940175 0.410764
vt 0.940175 0.412766
vt 0.883354 0.412766
vt 0.883354 0.469587
vt 0.940175 0.469587
vt 0.940175 0.471589
vt 0.883354 0.471589
vt 0.883354 0.528411
vt 0.940175 0.528411
vt 0.528411 0.883354
vt 0.471589 0.883354
vt 0.471589 0.940175
vt 0.528411 0.940175
vt 0.587234 0.883354
vt 0.530413 0.883354
vt 0.530413 0.940175
vt 0.587234 0.940175
vt 0.940175 0.530413
vt 0.883354 0.530413
vt 0.883354 0.587234
vt 0.940175 0.587234
vt 0.940175 0.589236
vt 0.883354 0.589236
vt 0.883354 0.646058
vt 0.940175 0.646058
vt 0.646058 0.883354
vt 0.589236 0.883354
vt 0.589236 0.940175
vt 0.646058 0.940175
vt 0.940175 0.648060
vt 0.883354 0.648060
vt 0.883354 0.704881
vt 0.940175 0.704881
vt 0.471589 0.440676
vt 0.471589 0.382853
vt 0.529412 0.353942
vt 0.587234 0.382853
vt 0.587234 0.440676
vt 0.529412 0.469587
vt 0.940175 0.706883
vt 0.883354 0.706883
vt 0.883354 0.763705
vt 0.940175 0.763705
vt 0.763705 0.883354
vt 0.706883 0.883354
vt 0.706883 0.940175
vt 0.763705 0.940175
vt 0.469587 0.440676
vt 0.411765 0.469587
vt 0.353942 0.440676
vt 0.353942 0.382853
vt 0.411765 0.353942
vt 0.469587 0.382853
vt 0.822528 0.883354
vt 0.765707 0.883354
vt 0.765707 0.940175
vt 0.822528 0.940175
vt 0.881352 0.883354
vt 0.824530 0.883354
vt 0.824530 0.940175
vt 0.881352 0.940175
vt 0.940175 0.824530
vt 0.883354 0.824530
vt 0.883354 0.881352
vt 0.940175 0.881352
vt 0.940175 0.883354
vt 0.883354 0.883354
vt 0.883354 0.940175
vt 0.940175 0.940175
vt 0.057823 0.942177
vt 0.001001 0.942177
vt 0.001001 0.998999
vt 0.057823 0.998999
vt 0.998999 0.001001
vt 0.942177 0.001001
vt 0.942177 0.057823
vt 0.998999 0.057823
vt 0.116646 0.942177
vt 0.059825 0.942177
vt 0.059825 0.998999
vt 0.116646 0.998999
vt 0.998999 0.059825
vt 0.942177 0.059825
vt 0.942177 0.116646
vt 0.998999 0.116646
vt 0.175470 0.942177
vt 0.118648 0.942177
vt 0.118648 0.998999
vt 0.175470 0.998999
vt 0.998999 0.118648
vt 0.942177 0.118648
vt 0.942177 0.175470
vt 0.998999 0.175470
vt 0.998999 0.177472
vt 0.942177 0.177472
vt 0.942177 0.234293
vt 0.998999 0.234293
vt 0.234293 0.942177
vt 0.177472 0.942177
vt 0.177472 0.998999
vt 0.234293 0.998999
vt 0.998999 0.236295
vt 0.942177 0.236295
vt 0.942177 0.293117
vt 0.998999 0.293117
vt 0.293117 0.942177
vt 0.236295 0.942177
vt 0.236295 0.998999
vt 0.293117 0.998999
vt 0.998999 0.295119
vt 0.942177 0.295119
vt 0.942177 0.351940
vt 0.998999 0.351940
vt 0.351940 0.942177
vt 0.295119 0.942177
vt 0.295119 0.998999
vt 0.351940 0.998999
vt 0.410764 0.942177
vt 0.353942 0.942177
vt 0.353942 0.998999
vt 0.410764 0.998999
vt 0.998999 0.353942
vt 0.942177 0.353942
vt 0.942177 0.410764
vt 0.998999 0.410764
vt 0.998999 0.412766
vt 0.942177 0.412766
vt 0.942177 0.469587
vt 0.998999 0.469587
vt 0.469587 0.942177
vt 0.412766 0.942177
vt 0.412766 0.998999
vt 0.469587 0.998999
vt 0.528411 0.942177
vt 0.471589 0.942177
vt 0.471589 0.998999
vt 0.528411 0.998999
vt 0.998999 0.471589
vt 0.942177 0.471589
vt 0.942177 0.528411
vt 0.998999 0.528411
vt 0.998999 0.530413
vt 0.942177 0.530413
vt 0.942177 0.587234
vt 0.998999 0.587234
vt 0.587234 0.942177
vt 0.530413 0.942177
vt 0.530413 0.998999
vt 0.587234 0.998999
vt 0.646058 0.942177
vt 0.589236 0.942177
vt 0.589236 0.998999
vt 0.646058 0.998999
vt 0.998999 0.589236
vt 0.942177 0.589236
vt 0.942177 0.646058
vt 0.998999 0.646058
vt 0.998999 0.648060
vt 0.942177 0.648060
vt 0.942177 0.704881
vt 0.998999 0.704881
vt 0.704881 0.942177
vt 0.648060 0.942177
vt 0.648060 0.998999
vt 0.704881 0.998999
vt 0.998999 0.706883
vt 0.942177 0.706883
vt 0.942177 0.763705
vt 0.998999 0.763705
vt 0.763705 0.942177
vt 0.706883 0.942177
vt 0.706883 0.998999
vt 0.763705 0.998999
vn 0.3827 0.0000 -0.9239
vn 0.9239 0.0000 -0.3827
vn 0.9239 0.0000 0.3827
vn 0.3827 0.0000 0.9239
vn -0.3827 0.0000 0.9239
vn -0.9239 0.0000 0.3827
vn 0.0000 1.0000 0.0000
vn -0.9239 0.0000 -0.3827
vn -0.3827 0.0000 -0.9239
vn 0.0000 -1.0000 0.0000
vn -1.0000 0.0000 0.0000
vn 0.0000 0.0000 -1.0000
vn 1.0000 0.0000 0.0000
vn 0.0000 0.0000 1.0000
vn 0.3925 -0.6195 -0.6798
vn 0.7850 -0.6195 0.0000
vn 0.3925 -0.6195 0.6798
vn -0.3925 -0.6195 0.6798
vn -0.7850 -0.6195 0.0000
vn -0.3925 -0.6195 -0.6798
vn -0.3925 0.6195 -0.6798
vn -0.7850 0.6195 0.0000
vn -0.3925 0.6195 0.6798
vn 0.3925 0.6195 0.6798
vn 0.7850 0.6195 0.0000
vn 0.3925 0.6195 -0.6798
usemtl dark_brown
s off
f 1/1/1 2/2/1 4/3/1 3/4/1
f 3/5/2 4/6/2 6/7/2 5/8/2
f 5/9/3 6/10/3 8/11/3 7/12/3
f 7/13/4 8/14/4 10/15/4 9/16/4
f 9/17/5 10/18/5 12/19/5 11/20/5
f 11/21/6 12/22/6 14/23/6 13/24/6
f 4/25/7 2/26/7 16/27/7 14/28/7 12/29/7 10/30/7 8/31/7 6/32/7
f 13/33/8 14/34/8 16/35/8 15/36/8
f 15/37/9 16/38/9 2/39/9 1/40/9
f 1/41/10 3/42/10 5/43/10 7/44/10 9/45/10 11/46/10 13/47/10 15/48/10
usemtl Black
f 17/49/11 18/50/11 20/51/11 19/52/11
f 19/53/12 20/54/12 24/55/12 23/56/12
f 23/57/13 24/58/13 22/59/13 21/60/13
f 21/61/14 22/62/14 18/63/14 17/64/14
f 19/65/10 23/66/10 21/67/10 17/68/10
f 24/69/7 20/70/7 18/71/7 22/72/7
usemtl Grey
f 41/73/15 26/74/15 28/75/15 42/76/15
f 42/77/16 28/78/16 30/79/16 47/80/16
f 47/81/17 30/82/17 32/83/17 52/84/17
f 52/85/18 32/86/18 34/87/18 57/88/18
f 28/89/7 26/90/7 36/91/7 34/92/7 32/93/7 30/94/7
f 57/95/19 34/96/19 36/97/19 62/98/19
f 62/99/20 36/100/20 26/101/20 41/102/20
f 25/103/10 27/104/10 29/105/10 31/106/10 33/107/10 35/108/10
f 35/109/21 66/110/21 37/111/21 25/112/21
f 66/113/20 65/114/20 38/115/20 37/116/20
f 65/117/21 64/118/21 39/119/21 38/120/21
f 64/121/20 63/122/20 40/123/20 39/124/20
f 63/125/21 62/126/21 41/127/21 40/128/21
f 33/129/22 61/130/22 66/131/22 35/132/22
f 61/133/19 60/134/19 65/135/19 66/136/19
f 60/137/22 59/138/22 64/139/22 65/140/22
f 59/141/19 58/142/19 63/143/19 64/144/19
f 58/145/22 57/146/22 62/147/22 63/148/22
f 31/149/23 56/150/23 61/151/23 33/152/23
f 56/153/18 55/154/18 60/155/18 61/156/18
f 55/157/23 54/158/23 59/159/23 60/160/23
f 54/161/18 53/162/18 58/163/18 59/164/18
f 53/165/23 52/166/23 57/167/23 58/168/23
f 29/169/24 51/170/24 56/171/24 31/172/24
f 51/173/17 50/174/17 55/175/17 56/176/17
f 50/177/24 49/178/24 54/179/24 55/180/24
f 49/181/17 48/182/17 53/183/17 54/184/17
f 48/185/24 47/186/24 52/187/24 53/188/24
f 27/189/25 46/190/25 51/191/25 29/192/25
f 46/193/16 45/194/16 50/195/16 51/196/16
f 45/197/25 44/198/25 49/199/25 50/200/25
f 44/201/16 43/202/16 48/203/16 49/204/16
f 43/205/25 42/206/25 47/207/25 48/208/25
f 25/209/26 37/210/26 46/211/26 27/212/26
f 37/213/15 38/214/15 45/215/15 46/216/15
f 38/217/26 39/218/26 44/219/26 45/220/26
f 39/221/15 40/222/15 43/223/15 44/224/15
f 40/225/26 41/226/26 42/227/26 43/228/26
f 83/229/15 68/230/15 70/231/15 84/232/15
f 84/233/16 70/234/16 72/235/16 89/236/16
f 89/237/17 72/238/17 74/239/17 94/240/17
f 94/241/18 74/242/18 76/243/18 99/244/18
f 70/245/7 68/246/7 78/247/7 76/248/7 74/249/7 72/250/7
f 99/251/19 76/252/19 78/253/19 104/254/19
f 104/255/20 78/256/20 68/257/20 83/258/20
f 67/259/10 69/260/10 71/261/10 73/262/10 75/263/10 77/264/10
f 77/265/21 108/266/21 79/267/21 67/268/21
f 108/269/20 107/270/20 80/271/20 79/272/20
f 107/273/21 106/274/21 81/275/21 80/276/21
f 106/277/20 105/278/20 82/279/20 81/280/20
f 105/281/21 104/282/21 83/283/21 82/284/21
f 75/285/22 103/286/22 108/287/22 77/288/22
f 103/289/19 102/290/19 107/291/19 108/292/19
f 102/293/22 101/294/22 106/295/22 107/296/22
f 101/297/19 100/298/19 105/299/19 106/300/19
f 100/301/22 99/302/22 104/303/22 105/304/22
f 73/305/23 98/306/23 103/307/23 75/308/23
f 98/309/18 97/310/18 102/311/18 103/312/18
f 97/313/23 96/314/23 101/315/23 102/316/23
f 96/317/18 95/318/18 100/319/18 101/320/18
f 95/321/23 94/322/23 99/323/23 100/324/23
f 71/325/24 93/326/24 98/327/24 73/328/24
f 93/329/17 92/330/17 97/331/17 98/332/17
f 92/333/24 91/334/24 96/335/24 97/336/24
f 91/337/17 90/338/17 95/339/17 96/340/17
f 90/341/24 89/342/24 94/343/24 95/344/24
f 69/345/25 88/346/25 93/347/25 71/348/25
f 88/349/16 87/350/16 92/351/16 93/352/16
f 87/353/25 86/354/25 91/355/25 92/356/25
f 86/357/16 85/358/16 90/359/16 91/360/16
f 85/361/25 84/362/25 89/363/25 90/364/25
f 67/365/26 79/366/26 88/367/26 69/368/26
f 79/369/15 80/370/15 87/371/15 88/372/15
f 80/373/26 81/374/26 86/375/26 87/376/26
f 81/377/15 82/378/15 85/379/15 86/380/15
f 82/381/26 83/382/26 84/383/26 85/384/26
